<?xml version="1.0" encoding="UTF-8"?>
<svg width="146px" height="46px" viewBox="0 0 146 46" version="1.1" xmlns="http://www.w3.org/2000/svg" xmlns:xlink="http://www.w3.org/1999/xlink">
    <!-- Generator: Sketch 54.1 (76490) - https://sketchapp.com -->
    <title>poc1</title>
    <desc>Created with Sketch.</desc>
    <g id="Page-1" stroke="none" stroke-width="1" fill="none" fill-rule="evenodd">
        <g id="poc1">
            <path d="M24.3809684,1.01875474 L37.3558737,8.50983053 C39.7086526,9.86816211 41.1578947,12.3784305 41.1578947,15.0950211 L41.1578947,30.0772211 C41.1578947,32.7938842 39.7086526,35.3042737 37.3558737,36.6624842 L24.3809684,44.1537053 C22.0281895,45.5119158 19.1297053,45.5119158 16.7769263,44.1537053 L3.80199684,36.6624842 C1.44931474,35.3042737 0,32.7938842 0,30.0772211 L0,15.0950211 C0,12.3784547 1.44931474,9.86816211 3.80199684,8.50983053 L16.7769263,1.01875474 C19.1297053,-0.339576842 22.0281895,-0.339576842 24.3809684,1.01875474 Z M22.7578947,35.2473789 C26.0081579,32.0116421 28.0171474,27.5297895 28.0115789,22.5755895 C28.0060105,17.6356737 25.9987158,13.1612295 22.7578947,9.92033579 L20.3511263,12.3270316 C22.9748211,14.9504842 24.5998316,18.5728632 24.6041895,22.5717158 C24.6087895,26.5850947 22.9801474,30.2154632 20.3458,32.8352842 L22.7578947,35.2473789 Z M18.2351263,30.7246105 C20.3305474,28.6437158 21.6262947,25.7585474 21.6226632,22.5683263 C21.6190316,19.3926316 20.3288526,16.5164211 18.2452947,14.4328874 L15.8387684,16.8396316 C17.3047158,18.3055789 18.2128526,20.3298211 18.2152737,22.5644526 C18.2179368,24.8136105 17.3025368,26.8475368 15.8230316,28.3125158 L18.2351263,30.7246105 Z M13.5616232,26.0512526 C14.46378,25.1636947 15.0223895,23.9279895 15.0209368,22.5610632 C15.0194842,21.2084211 14.46976,19.9831263 13.5823716,19.0958105 L10.0943368,22.5838211 L13.5616232,26.0512526 Z" id="Combined-Shape" fill="#B377FF" fill-rule="nonzero"></path>
            <path d="M41.1578947,23.2360526 L106.526316,23.2360526" id="Path" stroke="#B377FF" stroke-width="3" stroke-dasharray="4,5"></path>
            <path d="M128.486232,1.01875474 L141.461137,8.50983053 C143.813916,9.86816211 145.263158,12.3784305 145.263158,15.0950211 L145.263158,30.0772211 C145.263158,32.7938842 143.813916,35.3042737 141.461137,36.6624842 L128.486232,44.1537053 C126.133453,45.5119158 123.234968,45.5119158 120.882189,44.1537053 L107.907284,36.6624842 C105.554505,35.3042737 104.105263,32.7938842 104.105263,30.0772211 L104.105263,15.0950211 C104.105263,12.3784547 105.554505,9.86816211 107.907284,8.50983053 L120.882189,1.01875474 C123.234968,-0.339576842 126.133453,-0.339576842 128.486232,1.01875474 Z M118.362842,17.7497053 C118.362842,18.9309368 119.297368,19.8884632 120.450274,19.8884632 C121.603179,19.8884632 122.537705,18.9309368 122.537705,17.7497053 C122.537705,16.2544632 123.751379,14.9824421 125.320947,14.9824421 C126.890758,14.9824421 128.104432,16.2544632 128.104432,17.7497053 C128.104432,19.2449474 126.890758,20.5169684 125.320947,20.5169684 C124.168284,20.5169684 123.233516,21.4744947 123.233516,22.6554842 L123.233516,26.151 C123.233516,27.3319895 124.168284,28.2895158 125.320947,28.2895158 C126.473853,28.2895158 127.408621,27.3319895 127.408621,26.151 L127.408621,24.4707895 C130.214379,23.5771789 132.279295,20.9273368 132.279295,17.7497053 C132.279295,13.8244042 129.129747,10.7052895 125.320947,10.7052895 C121.512389,10.7052895 118.362842,13.8244042 118.362842,17.7497053 Z M123.233516,32.8045368 C123.233516,33.9855263 124.168284,34.9430526 125.320947,34.9430526 C126.473853,34.9430526 127.408621,33.9855263 127.408621,32.8045368 C127.408621,31.6233053 126.473853,30.6657789 125.320947,30.6657789 C124.168284,30.6657789 123.233516,31.6233053 123.233516,32.8045368 Z" id="Combined-Shape" fill="#788BA0" fill-rule="nonzero"></path>
        </g>
    </g>
</svg>