<?xml version="1.0" encoding="UTF-8"?>
<svg width="145px" height="45px" viewBox="0 0 145 45" version="1.1" xmlns="http://www.w3.org/2000/svg" xmlns:xlink="http://www.w3.org/1999/xlink">
    <!-- Generator: Sketch 54.1 (76490) - https://sketchapp.com -->
    <title>poc3</title>
    <desc>Created with Sketch.</desc>
    <g id="Page-1" stroke="none" stroke-width="1" fill="none" fill-rule="evenodd">
        <g id="poc3">
            <path d="M41.2606907,23.0860917 L106.207237,23.0860917" id="Path" stroke="#FF6666" stroke-width="3" stroke-dasharray="4,5"></path>
            <path d="M128.025428,1.01217989 L140.916595,8.45490975 C143.25419,9.80447492 144.694079,12.2985426 144.694079,14.9976007 L144.694079,29.8831086 C144.694079,32.5822389 143.25419,35.0764268 140.916595,36.4258717 L128.025428,43.8687459 C125.687833,45.2181908 122.808055,45.2181908 120.47046,43.8687459 L107.579293,36.4258717 C105.241698,35.0764268 103.801809,32.5822389 103.801809,29.8831086 L103.801809,14.9976007 C103.801809,12.2985666 105.241698,9.80447492 107.579293,8.45490975 L120.47046,1.01217989 C122.808055,-0.33738528 125.687833,-0.33738528 128.025428,1.01217989 Z M117.967372,17.6351521 C117.967372,18.8087603 118.895868,19.7601069 120.041332,19.7601069 C121.186797,19.7601069 122.115292,18.8087603 122.115292,17.6351521 C122.115292,16.14956 123.321133,14.8857484 124.880571,14.8857484 C126.440251,14.8857484 127.646092,16.14956 127.646092,17.6351521 C127.646092,19.1207442 126.440251,20.3845559 124.880571,20.3845559 C123.735347,20.3845559 122.806612,21.3359025 122.806612,22.5092701 L122.806612,25.9822266 C122.806612,27.1555942 123.735347,28.1069408 124.880571,28.1069408 C126.026036,28.1069408 126.954772,27.1555942 126.954772,25.9822266 L126.954772,24.3128598 C129.742422,23.4250164 131.794011,20.7922759 131.794011,17.6351521 C131.794011,13.7351842 128.66479,10.6361996 124.880571,10.6361996 C121.096593,10.6361996 117.967372,13.7351842 117.967372,17.6351521 Z M122.806612,32.5928228 C122.806612,33.7661904 123.735347,34.717537 124.880571,34.717537 C126.026036,34.717537 126.954772,33.7661904 126.954772,32.5928228 C126.954772,31.4192146 126.026036,30.467868 124.880571,30.467868 C123.735347,30.467868 122.806612,31.4192146 122.806612,32.5928228 Z" id="Combined-Shape" fill="#788BA0" fill-rule="nonzero"></path>
            <path d="M24.5920394,1.01217989 L37.4832072,8.45490975 C39.8208018,9.80447492 41.2606907,12.2985426 41.2606907,14.9976007 L41.2606907,29.8831086 C41.2606907,32.5822389 39.8208018,35.0764268 37.4832072,36.4258717 L24.5920394,43.8687459 C22.2544448,45.2181908 19.3746669,45.2181908 17.0370723,43.8687459 L4.1458805,36.4258717 C1.80838214,35.0764268 0.368421,32.5822389 0.368421,29.8831086 L0.368421,14.9976007 C0.368421,12.2985666 1.80838214,9.80447492 4.1458805,8.45490975 L17.0370723,1.01217989 C19.3746669,-0.33738528 22.2544448,-0.33738528 24.5920394,1.01217989 Z M28.5833655,18.2218359 C29.4502816,17.3549198 29.4502816,15.9494285 28.5833655,15.0827529 C27.7166899,14.2158608 26.3111985,14.2158608 25.4442824,15.0827529 L20.8145559,19.7124794 L16.1848293,15.0827529 C15.3179132,14.2158608 13.912518,14.2158608 13.0456981,15.0827529 C12.1788542,15.9494285 12.1788542,17.3549198 13.0456981,18.2218359 L17.6754728,22.8515625 L13.0457222,27.4812891 C12.1789023,28.3482052 12.1789023,29.7536965 13.0457222,30.6203721 C13.9125661,31.4872882 15.3179132,31.4872882 16.1848293,30.6203721 L20.8145559,25.9906456 L25.4442824,30.6203721 C26.3111985,31.4872882 27.7164494,31.4872882 28.5833655,30.6203721 C29.4502816,29.7536965 29.4502816,28.3482052 28.5833655,27.4812891 L23.9536389,22.8515625 L28.5833655,18.2218359 Z" id="Combined-Shape" fill="#FF6666" fill-rule="nonzero"></path>
        </g>
    </g>
</svg>