<?xml version="1.0" encoding="UTF-8"?>
<svg width="470px" height="155px" viewBox="0 0 470 155" version="1.1" xmlns="http://www.w3.org/2000/svg" xmlns:xlink="http://www.w3.org/1999/xlink">
    <!-- Generator: Sketch 54.1 (76490) - https://sketchapp.com -->
    <title>Group</title>
    <desc>Created with Sketch.</desc>
    <g id="Page-1" stroke="none" stroke-width="1" fill="none" fill-rule="evenodd">
        <g id="Group">
            <path d="M7,0 L143,0 C146.865993,-7.10171439e-16 150,3.13400675 150,7 L150,38 C150,41.8659932 146.865993,45 143,45 L7,45 C3.13400675,45 4.73447626e-16,41.8659932 0,38 L0,7 C-4.73447626e-16,3.13400675 3.13400675,7.10171439e-16 7,0 Z M37.0795001,27.5 L37.0795001,26.122 L33.2575001,26.122 L33.2575001,18.4 L31.6455001,18.4 L31.6455001,27.5 L37.0795001,27.5 Z M40.7835001,20.649 C38.7815001,20.649 37.3125001,22.196 37.3125001,24.146 C37.3125001,26.109 38.7815001,27.656 40.7835001,27.656 C42.7855001,27.656 44.2545001,26.109 44.2545001,24.146 C44.2545001,22.196 42.7855001,20.649 40.7835001,20.649 Z M42.6555001,24.146 C42.6555001,25.329 41.8755001,26.278 40.7835001,26.278 C39.6915001,26.278 38.9115001,25.329 38.9115001,24.146 C38.9115001,22.976 39.6915001,22.027 40.7835001,22.027 C41.8755001,22.027 42.6555001,22.976 42.6555001,24.146 Z M45.4105001,20.805 L45.4105001,27.5 L46.9835001,27.5 L46.9835001,23.054 C47.3735001,22.43 48.0235001,22.027 48.6475001,22.027 C49.1285001,22.027 49.4665001,22.196 49.6615001,22.534 C49.9085001,22.95 49.9215001,23.574 49.9215001,24.133 L49.9215001,27.5 L51.4945001,27.5 L51.4945001,24.016 C51.4945001,23.041 51.3905001,22.157 50.8965001,21.507 C50.4805001,20.974 49.8565001,20.649 49.0505001,20.649 C48.2445001,20.649 47.4515001,21.026 46.9185001,21.793 L46.8405001,20.805 L45.4105001,20.805 Z M59.4105,20.805 L57.9675,20.805 L57.8895,21.572 C57.3825,20.935 56.5375,20.649 55.8225,20.649 C53.8985,20.649 52.5855,22.235 52.5855,24.055 C52.5855,25.992 53.9635,27.5 55.7835,27.5 C56.4985,27.5 57.3435,27.227 57.8245,26.564 L57.8245,27.318 C57.8245,28.54 57.0055,29.06 55.9785,29.06 C55.2375,29.06 54.2755,28.761 53.5735,28.228 L52.9885,29.528 C53.8725,30.139 54.9905,30.438 56.0175,30.438 C57.2655,30.438 58.4095,30.009 59.0075,28.917 C59.2675,28.449 59.4105,27.864 59.4105,27.149 L59.4105,20.805 Z M57.8245,25.095 C57.4475,25.81 56.7195,26.122 56.0825,26.122 C54.9255,26.122 54.1845,25.173 54.1845,24.094 C54.1845,23.08 54.8085,22.027 56.1215,22.027 C56.7325,22.027 57.3695,22.287 57.8245,22.872 L57.8245,25.095 Z M65.9745,23.73 L65.9745,22.352 L62.7245,22.352 L62.7245,19.778 L65.9745,19.778 L65.9745,18.4 L61.1125,18.4 L61.1125,27.5 L62.7245,27.5 L62.7245,23.73 L65.9745,23.73 Z M68.7555,27.5 L68.7555,20.805 L67.1825,20.805 L67.1825,27.5 L68.7555,27.5 Z M68.7555,19.713 L68.7555,18.244 L67.1825,18.244 L67.1825,19.713 L68.7555,19.713 Z M72.5625,27.5 L74.3305,27.5 L74.9805,25.706 L78.4905,25.706 L79.1275,27.5 L80.9735,27.5 L77.5285,18.4 L76.1895,18.4 L72.5625,27.5 Z M76.7485,20.857 L76.7615,20.857 L78.0095,24.354 L75.4745,24.354 L76.7485,20.857 Z M83.2605,20.805 L81.8175,20.805 L81.8175,27.5 L83.4035,27.5 L83.4035,22.989 C83.7285,22.417 84.2095,22.092 84.7815,22.092 C85.0285,22.092 85.2235,22.131 85.4185,22.235 L85.7695,20.766 C85.5225,20.688 85.2755,20.649 84.9635,20.649 C84.2745,20.649 83.7415,21.104 83.3385,21.754 L83.2605,20.805 Z M92.6195,17.75 L91.0335,17.75 L91.0335,21.494 C90.5135,20.922 89.7205,20.649 89.0315,20.649 C87.1075,20.649 85.7945,22.3 85.7945,24.133 C85.7945,26.083 87.1595,27.656 89.0055,27.656 C89.7465,27.656 90.6175,27.37 91.0985,26.642 L91.1765,27.5 L92.6195,27.5 L92.6195,17.75 Z M91.0335,25.238 C90.6565,25.966 89.9285,26.278 89.3045,26.278 C88.1215,26.278 87.3935,25.264 87.3935,24.172 C87.3935,23.145 88.0175,22.027 89.3305,22.027 C89.9415,22.027 90.5785,22.287 91.0335,22.872 L91.0335,25.238 Z M100.2885,27.5 L100.2885,20.805 L98.7155,20.805 L98.7155,25.251 C98.3255,25.875 97.6755,26.278 97.0515,26.278 C96.5705,26.278 96.2325,26.109 96.0375,25.771 C95.7905,25.355 95.7775,24.731 95.7775,24.172 L95.7775,20.805 L94.2045,20.805 L94.2045,24.289 C94.2045,25.264 94.3085,26.148 94.8025,26.798 C95.2185,27.331 95.8425,27.656 96.6485,27.656 C97.4545,27.656 98.2475,27.279 98.7805,26.512 L98.8585,27.5 L100.2885,27.5 Z M103.5115,27.5 L103.5115,20.805 L101.9385,20.805 L101.9385,27.5 L103.5115,27.5 Z M103.5115,19.713 L103.5115,18.244 L101.9385,18.244 L101.9385,19.713 L103.5115,19.713 Z M105.1615,20.805 L105.1615,27.5 L106.7345,27.5 L106.7345,23.054 C107.1245,22.43 107.7745,22.027 108.3985,22.027 C108.8795,22.027 109.2175,22.196 109.4125,22.534 C109.6595,22.95 109.6725,23.574 109.6725,24.133 L109.6725,27.5 L111.2455,27.5 L111.2455,24.016 C111.2455,23.041 111.1415,22.157 110.6475,21.507 C110.2315,20.974 109.6075,20.649 108.8015,20.649 C107.9955,20.649 107.2025,21.026 106.6695,21.793 L106.5915,20.805 L105.1615,20.805 Z M115.8075,20.649 C113.8055,20.649 112.3365,22.196 112.3365,24.146 C112.3365,26.109 113.8055,27.656 115.8075,27.656 C117.8095,27.656 119.2785,26.109 119.2785,24.146 C119.2785,22.196 117.8095,20.649 115.8075,20.649 Z M117.6795,24.146 C117.6795,25.329 116.8995,26.278 115.8075,26.278 C114.7155,26.278 113.9355,25.329 113.9355,24.146 C113.9355,22.976 114.7155,22.027 115.8075,22.027 C116.8995,22.027 117.6795,22.976 117.6795,24.146 Z" id="Combined-Shape" fill="#FFC769"></path>
            <path d="M167,0 L303,0 C306.865993,-7.10171439e-16 310,3.13400675 310,7 L310,38 C310,41.8659932 306.865993,45 303,45 L167,45 C163.134007,45 160,41.8659932 160,38 L160,7 C160,3.13400675 163.134007,7.10171439e-16 167,0 Z M200.16,27.5 L200.16,26.122 L196.338,26.122 L196.338,18.4 L194.726,18.4 L194.726,27.5 L200.16,27.5 Z M203.864,20.649 C201.862,20.649 200.393,22.196 200.393,24.146 C200.393,26.109 201.862,27.656 203.864,27.656 C205.866,27.656 207.335,26.109 207.335,24.146 C207.335,22.196 205.866,20.649 203.864,20.649 Z M205.736,24.146 C205.736,25.329 204.956,26.278 203.864,26.278 C202.772,26.278 201.992,25.329 201.992,24.146 C201.992,22.976 202.772,22.027 203.864,22.027 C204.956,22.027 205.736,22.976 205.736,24.146 Z M208.491,20.805 L208.491,27.5 L210.064,27.5 L210.064,23.054 C210.454,22.43 211.104,22.027 211.728,22.027 C212.209,22.027 212.547,22.196 212.742,22.534 C212.989,22.95 213.002,23.574 213.002,24.133 L213.002,27.5 L214.575,27.5 L214.575,24.016 C214.575,23.041 214.471,22.157 213.977,21.507 C213.561,20.974 212.937,20.649 212.131,20.649 C211.325,20.649 210.532,21.026 209.999,21.793 L209.921,20.805 L208.491,20.805 Z M222.491,20.805 L221.048,20.805 L220.97,21.572 C220.463,20.935 219.618,20.649 218.903,20.649 C216.979,20.649 215.666,22.235 215.666,24.055 C215.666,25.992 217.044,27.5 218.864,27.5 C219.579,27.5 220.424,27.227 220.905,26.564 L220.905,27.318 C220.905,28.54 220.086,29.06 219.059,29.06 C218.318,29.06 217.356,28.761 216.654,28.228 L216.069,29.528 C216.953,30.139 218.071,30.438 219.098,30.438 C220.346,30.438 221.49,30.009 222.088,28.917 C222.348,28.449 222.491,27.864 222.491,27.149 L222.491,20.805 Z M220.905,25.095 C220.528,25.81 219.8,26.122 219.163,26.122 C218.006,26.122 217.265,25.173 217.265,24.094 C217.265,23.08 217.889,22.027 219.202,22.027 C219.813,22.027 220.45,22.287 220.905,22.872 L220.905,25.095 Z M229.055,23.73 L229.055,22.352 L225.805,22.352 L225.805,19.778 L229.055,19.778 L229.055,18.4 L224.193,18.4 L224.193,27.5 L225.805,27.5 L225.805,23.73 L229.055,23.73 Z M231.836,27.5 L231.836,20.805 L230.263,20.805 L230.263,27.5 L231.836,27.5 Z M231.836,19.713 L231.836,18.244 L230.263,18.244 L230.263,19.713 L231.836,19.713 Z M241.493,20.415 L242.442,19.258 C241.558,18.595 240.635,18.244 239.504,18.244 C238.009,18.244 236.631,19.05 236.631,20.779 C236.631,22.352 237.918,22.95 239.14,23.392 C240.089,23.73 241.012,24.055 241.012,24.926 C241.012,25.875 240.206,26.265 239.4,26.265 C238.464,26.265 237.866,25.914 237.073,25.147 L235.981,26.2 C236.969,27.175 238.009,27.656 239.387,27.656 C240.895,27.656 242.715,26.837 242.715,24.835 C242.715,23.002 241.207,22.404 239.868,21.949 C239.14,21.702 238.243,21.416 238.243,20.701 C238.243,20.012 238.841,19.635 239.595,19.635 C240.297,19.635 241.025,19.999 241.493,20.415 Z M249.279,19.778 L249.279,18.4 L243.247,18.4 L243.247,19.778 L245.457,19.778 L245.457,27.5 L247.069,27.5 L247.069,19.778 L249.279,19.778 Z M260.691,27.5 L260.691,18.4 L259.079,18.4 L259.079,22.131 L254.828,22.131 L254.828,18.4 L253.216,18.4 L253.216,27.5 L254.828,27.5 L254.828,23.509 L259.079,23.509 L259.079,27.5 L260.691,27.5 Z M261.743,27.5 L263.511,27.5 L264.161,25.706 L267.671,25.706 L268.308,27.5 L270.154,27.5 L266.709,18.4 L265.37,18.4 L261.743,27.5 Z M265.929,20.857 L265.942,20.857 L267.19,24.354 L264.655,24.354 L265.929,20.857 Z M276.627,27.5 L276.627,26.122 L272.805,26.122 L272.805,18.4 L271.193,18.4 L271.193,27.5 L276.627,27.5 Z" id="Combined-Shape" fill="#FF6666"></path>
            <path d="M7,55 L463,55 C466.865993,55 470,58.1340068 470,62 L470,93 C470,96.8659932 466.865993,100 463,100 L7,100 C3.13400675,100 4.73447626e-16,96.8659932 0,93 L0,62 C-4.73447626e-16,58.1340068 3.13400675,55 7,55 Z M201.044,82.5 L201.044,81.122 L197.222,81.122 L197.222,73.4 L195.61,73.4 L195.61,82.5 L201.044,82.5 Z M204.748,75.649 C202.746,75.649 201.277,77.196 201.277,79.146 C201.277,81.109 202.746,82.656 204.748,82.656 C206.75,82.656 208.219,81.109 208.219,79.146 C208.219,77.196 206.75,75.649 204.748,75.649 Z M206.62,79.146 C206.62,80.329 205.84,81.278 204.748,81.278 C203.656,81.278 202.876,80.329 202.876,79.146 C202.876,77.976 203.656,77.027 204.748,77.027 C205.84,77.027 206.62,77.976 206.62,79.146 Z M209.375,75.805 L209.375,82.5 L210.948,82.5 L210.948,78.054 C211.338,77.43 211.988,77.027 212.612,77.027 C213.093,77.027 213.431,77.196 213.626,77.534 C213.873,77.95 213.886,78.574 213.886,79.133 L213.886,82.5 L215.459,82.5 L215.459,79.016 C215.459,78.041 215.355,77.157 214.861,76.507 C214.445,75.974 213.821,75.649 213.015,75.649 C212.209,75.649 211.416,76.026 210.883,76.793 L210.805,75.805 L209.375,75.805 Z M223.375,75.805 L221.932,75.805 L221.854,76.572 C221.347,75.935 220.502,75.649 219.787,75.649 C217.863,75.649 216.55,77.235 216.55,79.055 C216.55,80.992 217.928,82.5 219.748,82.5 C220.463,82.5 221.308,82.227 221.789,81.564 L221.789,82.318 C221.789,83.54 220.97,84.06 219.943,84.06 C219.202,84.06 218.24,83.761 217.538,83.228 L216.953,84.528 C217.837,85.139 218.955,85.438 219.982,85.438 C221.23,85.438 222.374,85.009 222.972,83.917 C223.232,83.449 223.375,82.864 223.375,82.149 L223.375,75.805 Z M221.789,80.095 C221.412,80.81 220.684,81.122 220.047,81.122 C218.89,81.122 218.149,80.173 218.149,79.094 C218.149,78.08 218.773,77.027 220.086,77.027 C220.697,77.027 221.334,77.287 221.789,77.872 L221.789,80.095 Z M229.939,78.73 L229.939,77.352 L226.689,77.352 L226.689,74.778 L229.939,74.778 L229.939,73.4 L225.077,73.4 L225.077,82.5 L226.689,82.5 L226.689,78.73 L229.939,78.73 Z M232.72,82.5 L232.72,75.805 L231.147,75.805 L231.147,82.5 L232.72,82.5 Z M232.72,74.713 L232.72,73.244 L231.147,73.244 L231.147,74.713 L232.72,74.713 Z M237.45,82.5 L239.894,82.5 C242.39,82.5 244.964,81.278 244.964,77.911 C244.964,74.622 242.351,73.4 240.024,73.4 L237.45,73.4 L237.45,82.5 Z M239.062,74.778 L239.803,74.778 C241.974,74.778 243.261,75.909 243.261,78.028 C243.261,80.329 241.675,81.122 239.361,81.122 L239.062,81.122 L239.062,74.778 Z M252.308,79.549 C252.347,79.302 252.373,79.003 252.373,78.756 C252.373,76.962 251.034,75.649 249.214,75.649 C247.316,75.649 245.847,77.183 245.847,79.198 C245.847,81.187 247.147,82.656 249.214,82.656 C250.605,82.656 251.476,82.136 252.217,81.044 L251.151,80.329 C250.735,81.031 250.176,81.369 249.305,81.369 C248.213,81.369 247.537,80.55 247.433,79.549 L252.308,79.549 Z M250.761,78.418 L247.524,78.418 C247.732,77.56 248.291,76.91 249.253,76.91 C250.085,76.91 250.722,77.547 250.761,78.418 Z M257.442,75.805 L255.908,80.381 L255.882,80.381 L254.361,75.805 L252.619,75.805 L255.154,82.5 L256.467,82.5 L259.158,75.805 L257.442,75.805 Z M261.484,82.5 L261.484,75.805 L259.911,75.805 L259.911,82.5 L261.484,82.5 Z M261.484,74.713 L261.484,73.244 L259.911,73.244 L259.911,74.713 L261.484,74.713 Z M267.489,80.784 C267.112,81.109 266.631,81.278 266.15,81.278 C265.11,81.278 264.239,80.394 264.239,79.146 C264.239,77.976 265.071,77.027 266.163,77.027 C266.657,77.027 267.112,77.209 267.489,77.534 L268.269,76.364 C267.671,75.909 266.93,75.649 266.111,75.649 C264.096,75.649 262.64,77.196 262.64,79.146 C262.64,81.239 264.096,82.656 266.046,82.656 C266.943,82.656 267.723,82.409 268.308,81.902 L267.489,80.784 Z M275.249,79.549 C275.288,79.302 275.314,79.003 275.314,78.756 C275.314,76.962 273.975,75.649 272.155,75.649 C270.257,75.649 268.788,77.183 268.788,79.198 C268.788,81.187 270.088,82.656 272.155,82.656 C273.546,82.656 274.417,82.136 275.158,81.044 L274.092,80.329 C273.676,81.031 273.117,81.369 272.246,81.369 C271.154,81.369 270.478,80.55 270.374,79.549 L275.249,79.549 Z M273.702,78.418 L270.465,78.418 C270.673,77.56 271.232,76.91 272.194,76.91 C273.026,76.91 273.663,77.547 273.702,78.418 Z" id="Combined-Shape" fill="#29D391"></path>
            <path d="M7,110 L463,110 C466.865993,110 470,113.134007 470,117 L470,148 C470,151.865993 466.865993,155 463,155 L7,155 C3.13400675,155 4.73447626e-16,151.865993 0,148 L0,117 C-4.73447626e-16,113.134007 3.13400675,110 7,110 Z M206.854,137.5 L206.854,136.122 L203.032,136.122 L203.032,128.4 L201.42,128.4 L201.42,137.5 L206.854,137.5 Z M210.558,130.649 C208.556,130.649 207.087,132.196 207.087,134.146 C207.087,136.109 208.556,137.656 210.558,137.656 C212.56,137.656 214.029,136.109 214.029,134.146 C214.029,132.196 212.56,130.649 210.558,130.649 Z M212.43,134.146 C212.43,135.329 211.65,136.278 210.558,136.278 C209.466,136.278 208.686,135.329 208.686,134.146 C208.686,132.976 209.466,132.027 210.558,132.027 C211.65,132.027 212.43,132.976 212.43,134.146 Z M215.185,130.805 L215.185,137.5 L216.758,137.5 L216.758,133.054 C217.148,132.43 217.798,132.027 218.422,132.027 C218.903,132.027 219.241,132.196 219.436,132.534 C219.683,132.95 219.696,133.574 219.696,134.133 L219.696,137.5 L221.269,137.5 L221.269,134.016 C221.269,133.041 221.165,132.157 220.671,131.507 C220.255,130.974 219.631,130.649 218.825,130.649 C218.019,130.649 217.226,131.026 216.693,131.793 L216.615,130.805 L215.185,130.805 Z M229.185,130.805 L227.742,130.805 L227.664,131.572 C227.157,130.935 226.312,130.649 225.597,130.649 C223.673,130.649 222.36,132.235 222.36,134.055 C222.36,135.992 223.738,137.5 225.558,137.5 C226.273,137.5 227.118,137.227 227.599,136.564 L227.599,137.318 C227.599,138.54 226.78,139.06 225.753,139.06 C225.012,139.06 224.05,138.761 223.348,138.228 L222.763,139.528 C223.647,140.139 224.765,140.438 225.792,140.438 C227.04,140.438 228.184,140.009 228.782,138.917 C229.042,138.449 229.185,137.864 229.185,137.149 L229.185,130.805 Z M227.599,135.095 C227.222,135.81 226.494,136.122 225.857,136.122 C224.7,136.122 223.959,135.173 223.959,134.094 C223.959,133.08 224.583,132.027 225.896,132.027 C226.507,132.027 227.144,132.287 227.599,132.872 L227.599,135.095 Z M235.749,133.73 L235.749,132.352 L232.499,132.352 L232.499,129.778 L235.749,129.778 L235.749,128.4 L230.887,128.4 L230.887,137.5 L232.499,137.5 L232.499,133.73 L235.749,133.73 Z M238.53,137.5 L238.53,130.805 L236.957,130.805 L236.957,137.5 L238.53,137.5 Z M238.53,129.713 L238.53,128.244 L236.957,128.244 L236.957,129.713 L238.53,129.713 Z M244.56,132.95 C244.56,131.078 245.899,129.661 247.719,129.661 C248.408,129.661 249.058,129.908 249.604,130.298 L250.371,129.05 C249.552,128.543 248.694,128.244 247.719,128.244 C245.028,128.244 242.857,130.272 242.857,132.95 C242.857,135.771 244.95,137.656 247.68,137.656 C248.733,137.656 249.721,137.318 250.579,136.707 L249.682,135.537 C249.097,135.992 248.421,136.239 247.719,136.239 C245.808,136.239 244.56,134.939 244.56,132.95 Z M254.374,130.649 C252.372,130.649 250.903,132.196 250.903,134.146 C250.903,136.109 252.372,137.656 254.374,137.656 C256.376,137.656 257.845,136.109 257.845,134.146 C257.845,132.196 256.376,130.649 254.374,130.649 Z M256.246,134.146 C256.246,135.329 255.466,136.278 254.374,136.278 C253.282,136.278 252.502,135.329 252.502,134.146 C252.502,132.976 253.282,132.027 254.374,132.027 C255.466,132.027 256.246,132.976 256.246,134.146 Z M260.444,130.805 L259.001,130.805 L259.001,137.5 L260.587,137.5 L260.587,132.989 C260.912,132.417 261.393,132.092 261.965,132.092 C262.212,132.092 262.407,132.131 262.602,132.235 L262.953,130.766 C262.706,130.688 262.459,130.649 262.147,130.649 C261.458,130.649 260.925,131.104 260.522,131.754 L260.444,130.805 Z M269.439,134.549 C269.478,134.302 269.504,134.003 269.504,133.756 C269.504,131.962 268.165,130.649 266.345,130.649 C264.447,130.649 262.978,132.183 262.978,134.198 C262.978,136.187 264.278,137.656 266.345,137.656 C267.736,137.656 268.607,137.136 269.348,136.044 L268.282,135.329 C267.866,136.031 267.307,136.369 266.436,136.369 C265.344,136.369 264.668,135.55 264.564,134.549 L269.439,134.549 Z M267.892,133.418 L264.655,133.418 C264.863,132.56 265.422,131.91 266.384,131.91 C267.216,131.91 267.853,132.547 267.892,133.418 Z" id="Combined-Shape" fill="#38A2FF"></path>
            <path d="M327,0 L463,0 C466.865993,-7.10171439e-16 470,3.13400675 470,7 L470,38 C470,41.8659932 466.865993,45 463,45 L327,45 C323.134007,45 320,41.8659932 320,38 L320,7 C320,3.13400675 323.134007,7.10171439e-16 327,0 Z M367.777,27.5 L367.777,26.122 L363.955,26.122 L363.955,18.4 L362.343,18.4 L362.343,27.5 L367.777,27.5 Z M371.481,20.649 C369.479,20.649 368.01,22.196 368.01,24.146 C368.01,26.109 369.479,27.656 371.481,27.656 C373.483,27.656 374.952,26.109 374.952,24.146 C374.952,22.196 373.483,20.649 371.481,20.649 Z M373.353,24.146 C373.353,25.329 372.573,26.278 371.481,26.278 C370.389,26.278 369.609,25.329 369.609,24.146 C369.609,22.976 370.389,22.027 371.481,22.027 C372.573,22.027 373.353,22.976 373.353,24.146 Z M376.108,20.805 L376.108,27.5 L377.681,27.5 L377.681,23.054 C378.071,22.43 378.721,22.027 379.345,22.027 C379.826,22.027 380.164,22.196 380.359,22.534 C380.606,22.95 380.619,23.574 380.619,24.133 L380.619,27.5 L382.192,27.5 L382.192,24.016 C382.192,23.041 382.088,22.157 381.594,21.507 C381.178,20.974 380.554,20.649 379.748,20.649 C378.942,20.649 378.149,21.026 377.616,21.793 L377.538,20.805 L376.108,20.805 Z M390.108,20.805 L388.665,20.805 L388.587,21.572 C388.08,20.935 387.235,20.649 386.52,20.649 C384.596,20.649 383.283,22.235 383.283,24.055 C383.283,25.992 384.661,27.5 386.481,27.5 C387.196,27.5 388.041,27.227 388.522,26.564 L388.522,27.318 C388.522,28.54 387.703,29.06 386.676,29.06 C385.935,29.06 384.973,28.761 384.271,28.228 L383.686,29.528 C384.57,30.139 385.688,30.438 386.715,30.438 C387.963,30.438 389.107,30.009 389.705,28.917 C389.965,28.449 390.108,27.864 390.108,27.149 L390.108,20.805 Z M388.522,25.095 C388.145,25.81 387.417,26.122 386.78,26.122 C385.623,26.122 384.882,25.173 384.882,24.094 C384.882,23.08 385.506,22.027 386.819,22.027 C387.43,22.027 388.067,22.287 388.522,22.872 L388.522,25.095 Z M396.672,23.73 L396.672,22.352 L393.422,22.352 L393.422,19.778 L396.672,19.778 L396.672,18.4 L391.81,18.4 L391.81,27.5 L393.422,27.5 L393.422,23.73 L396.672,23.73 Z M399.453,27.5 L399.453,20.805 L397.88,20.805 L397.88,27.5 L399.453,27.5 Z M399.453,19.713 L399.453,18.244 L397.88,18.244 L397.88,19.713 L399.453,19.713 Z M404.183,18.4 L404.183,27.5 L405.795,27.5 L405.795,23.782 L406.367,23.782 L408.967,27.5 L410.969,27.5 L408.148,23.626 C409.214,23.327 410.228,22.547 410.228,21.078 C410.228,19.141 408.434,18.4 406.991,18.4 L404.183,18.4 Z M405.795,22.404 L405.795,19.778 L406.952,19.778 C407.888,19.778 408.525,20.311 408.525,21.117 C408.525,22.027 407.745,22.404 406.692,22.404 L405.795,22.404 Z M417.897,27.5 L417.897,20.805 L416.324,20.805 L416.324,25.251 C415.934,25.875 415.284,26.278 414.66,26.278 C414.179,26.278 413.841,26.109 413.646,25.771 C413.399,25.355 413.386,24.731 413.386,24.172 L413.386,20.805 L411.813,20.805 L411.813,24.289 C411.813,25.264 411.917,26.148 412.411,26.798 C412.827,27.331 413.451,27.656 414.257,27.656 C415.063,27.656 415.856,27.279 416.389,26.512 L416.467,27.5 L417.897,27.5 Z M423.928,21.468 C423.343,20.922 422.55,20.649 421.718,20.649 C420.535,20.649 419.417,21.312 419.417,22.677 C419.417,23.873 420.431,24.328 421.224,24.653 C421.822,24.9 422.472,25.16 422.472,25.628 C422.472,26.161 421.952,26.395 421.471,26.395 C420.873,26.395 420.418,26.122 419.937,25.641 L418.975,26.551 C419.625,27.266 420.522,27.656 421.51,27.656 C422.81,27.656 424.032,27.006 424.032,25.524 C424.032,24.289 422.94,23.834 422.082,23.496 C421.484,23.249 420.925,23.015 420.925,22.56 C420.925,22.157 421.263,21.91 421.718,21.91 C422.212,21.91 422.719,22.144 423.044,22.43 L423.928,21.468 Z M428.724,22.131 L428.724,20.805 L426.956,20.805 L426.956,19.271 L425.539,19.271 L425.37,20.805 L424.538,20.805 L424.538,22.131 L425.37,22.131 L425.37,25.134 C425.37,25.576 425.409,26.018 425.539,26.369 C425.799,27.136 426.449,27.643 427.45,27.643 C427.944,27.643 428.516,27.513 428.906,27.292 L428.438,26.096 C428.217,26.213 427.983,26.278 427.697,26.278 C427.203,26.278 427.021,25.979 426.969,25.459 C426.956,25.251 426.956,25.095 426.956,24.9 L426.956,22.131 L428.724,22.131 Z" id="Combined-Shape" fill="#BE73FF"></path>
        </g>
    </g>
</svg>