<?xml version="1.0" encoding="UTF-8"?>
<svg width="87px" height="94px" viewBox="0 0 87 94" version="1.1" xmlns="http://www.w3.org/2000/svg" xmlns:xlink="http://www.w3.org/1999/xlink">
    <!-- Generator: Sketch 54.1 (76490) - https://sketchapp.com -->
    <title>Combined Shape</title>
    <desc>Created with Sketch.</desc>
    <defs>
        <linearGradient x1="7.75453394%" y1="0%" x2="82.8983179%" y2="100%" id="linearGradient-1">
            <stop stop-color="#4362F7" offset="0%"></stop>
            <stop stop-color="#C86DD7" offset="100%"></stop>
        </linearGradient>
    </defs>
    <g id="Page-2" stroke="none" stroke-width="1" fill="none" fill-rule="evenodd">
        <g id="Desktop-HD-Copy-4" transform="translate(-2257.000000, -4395.000000)" fill="url(#linearGradient-1)">
            <path d="M2309.52723,4397.49871 L2334.07849,4411.67339 C2339.84902,4415.00501 2343.40381,4421.16209 2343.40381,4427.82532 L2343.40381,4456.17468 C2343.40381,4462.83791 2339.84902,4468.99499 2334.07849,4472.32661 L2309.52723,4486.50129 C2303.7567,4489.8329 2296.64711,4489.8329 2290.87659,4486.50129 L2266.32532,4472.32661 C2260.55479,4468.99499 2257,4462.83791 2257,4456.17468 L2257,4427.82532 C2257,4421.16209 2260.55479,4415.00501 2266.32532,4411.67339 L2290.87659,4397.49871 C2296.64711,4394.1671 2303.7567,4394.1671 2309.52723,4397.49871 Z M2293.58925,4448.38301 C2293.58925,4443.67327 2297.40725,4439.85527 2302.11699,4439.85527 C2306.82673,4439.85527 2310.64473,4443.67327 2310.64473,4448.38301 C2310.64473,4453.09275 2306.82673,4456.91075 2302.11699,4456.91075 C2300.99707,4456.91075 2299.91571,4456.69754 2298.90862,4456.28814 L2294.92082,4466.09781 C2297.18904,4467.01988 2299.62408,4467.5 2302.11699,4467.5 C2312.67501,4467.5 2321.23398,4458.94103 2321.23398,4448.38301 C2321.23398,4437.82499 2312.67501,4429.26602 2302.11699,4429.26602 C2299.05253,4429.26602 2296.15648,4429.98707 2293.58925,4431.26876 L2293.58925,4415.5 L2283,4415.5 L2283,4449.44193 L2293.58925,4449.44193 L2293.58925,4448.38301 Z" id="Combined-Shape"></path>
        </g>
    </g>
</svg>