<?xml version="1.0" encoding="UTF-8"?>
<svg width="87px" height="94px" viewBox="0 0 87 94" version="1.1" xmlns="http://www.w3.org/2000/svg" xmlns:xlink="http://www.w3.org/1999/xlink">
    <!-- Generator: Sketch 54.1 (76490) - https://sketchapp.com -->
    <title>Unknown</title>
    <desc>Created with Sketch.</desc>
    <g id="Page-1" stroke="none" stroke-width="1" fill="none" fill-rule="evenodd">
        <g id="Unknown" fill="#FFC769" fill-rule="nonzero">
            <path d="M52.52723,2.49871 L77.07849,16.67339 C82.84902,20.00501 86.40381,26.16209 86.40381,32.82532 L86.40381,61.17468 C86.40381,67.83791 82.84902,73.99499 77.07849,77.32661 L52.52723,91.50129 C46.7567,94.8329 39.64711,94.8329 33.87659,91.50129 L9.32532,77.32661 C3.55479,73.99499 0,67.83791 0,61.17468 L0,32.82532 C0,26.16209 3.55479,20.00501 9.32532,16.67339 L33.87659,2.49871 C39.64711,-0.8329 46.7567,-0.8329 52.52723,2.49871 Z M61.7120581,29.6758839 C52.1442129,20.1080387 36.6316709,20.1080387 27.0638258,29.6758839 C17.4959806,39.243729 17.4959806,54.756271 27.0638258,64.3241161 C36.6316709,73.8919613 52.1442129,73.8919613 61.7120581,64.3241161 L52.3504979,54.962556 C47.9528997,59.3601542 40.8229842,59.3601542 36.425386,54.962556 C32.0277877,50.5649577 32.0277877,43.4350423 36.425386,39.037444 C40.8229842,34.6398458 47.9528997,34.6398458 52.3504979,39.037444 L61.7120581,29.6758839 Z" id="Combined-Shape"></path>
        </g>
    </g>
</svg>