<?xml version="1.0" encoding="UTF-8"?>
<svg width="87px" height="94px" viewBox="0 0 87 94" version="1.1" xmlns="http://www.w3.org/2000/svg" xmlns:xlink="http://www.w3.org/1999/xlink">
    <!-- Generator: Sketch 54.1 (76490) - https://sketchapp.com -->
    <title>Combined Shape</title>
    <desc>Created with Sketch.</desc>
    <g id="Page-2" stroke="none" stroke-width="1" fill="none" fill-rule="evenodd">
        <g id="Desktop-HD-Copy-4" transform="translate(-1998.000000, -4395.000000)" fill="#38A2FF">
            <path d="M2050.52723,4397.49871 L2075.07849,4411.67339 C2080.84902,4415.00501 2084.40381,4421.16209 2084.40381,4427.82532 L2084.40381,4456.17468 C2084.40381,4462.83791 2080.84902,4468.99499 2075.07849,4472.32661 L2050.52723,4486.50129 C2044.7567,4489.8329 2037.64711,4489.8329 2031.87659,4486.50129 L2007.32532,4472.32661 C2001.55479,4468.99499 1998,4462.83791 1998,4456.17468 L1998,4427.82532 C1998,4421.16209 2001.55479,4415.00501 2007.32532,4411.67339 L2031.87659,4397.49871 C2037.64711,4394.1671 2044.7567,4394.1671 2050.52723,4397.49871 Z M2037.19631,4419.91985 C2035.20683,4420.03324 2033.62849,4421.68247 2033.62849,4423.70034 L2033.62849,4424.45768 C2033.62849,4424.66682 2033.45895,4424.83636 2033.24981,4424.83636 C2031.15847,4424.83636 2029.4631,4426.53172 2029.4631,4428.62307 L2029.4631,4462.70346 C2029.4631,4464.7948 2031.15847,4466.49017 2033.24981,4466.49017 L2049.154,4466.49017 C2051.24534,4466.49017 2052.94071,4464.7948 2052.94071,4462.70346 L2052.94071,4428.62307 C2052.94071,4426.53172 2051.24534,4424.83636 2049.154,4424.83636 C2048.94486,4424.83636 2048.77533,4424.66682 2048.77533,4424.45768 L2048.77533,4423.70034 C2048.77533,4421.69857 2047.22207,4420.05958 2045.25505,4419.92286 L2045.25505,4412.5 L2037.19631,4412.5 L2037.19631,4419.91985 Z M2039.19631,4419.91363 L2039.19631,4414.5 L2043.25505,4414.5 L2043.25505,4419.91363 L2039.19631,4419.91363 Z M2037.7645,4447.55662 L2044.68687,4447.55662 C2046.34372,4447.55662 2047.68687,4448.89976 2047.68687,4450.55662 L2047.68687,4457.47899 C2047.68687,4459.13584 2046.34372,4460.47899 2044.68687,4460.47899 L2037.7645,4460.47899 C2036.10764,4460.47899 2034.7645,4459.13584 2034.7645,4457.47899 L2034.7645,4450.55662 C2034.7645,4448.89976 2036.10764,4447.55662 2037.7645,4447.55662 Z M2036.65785,4435.08425 C2037.70352,4435.08425 2038.55121,4435.93193 2038.55121,4436.97761 C2038.55121,4438.02328 2037.70352,4438.87096 2036.65785,4438.87096 C2035.61218,4438.87096 2034.7645,4438.02328 2034.7645,4436.97761 C2034.7645,4435.93193 2035.61218,4435.08425 2036.65785,4435.08425 Z" id="Combined-Shape"></path>
        </g>
    </g>
</svg>