<?xml version="1.0" encoding="UTF-8"?>
<svg width="87px" height="95px" viewBox="0 0 87 95" version="1.1" xmlns="http://www.w3.org/2000/svg" xmlns:xlink="http://www.w3.org/1999/xlink">
    <!-- Generator: Sketch 54.1 (76490) - https://sketchapp.com -->
    <title>device</title>
    <desc>Created with Sketch.</desc>
    <g id="Page-1" stroke="none" stroke-width="1" fill="none" fill-rule="evenodd">
        <g id="device" transform="translate(0.100000, 0.700000)" fill="#29D391" fill-rule="nonzero">
            <path d="M52.52723,2.49871 L77.07849,16.67339 C82.84902,20.00501 86.40381,26.16209 86.40381,32.82532 L86.40381,61.17468 C86.40381,67.83791 82.84902,73.99499 77.07849,77.32661 L52.52723,91.50129 C46.7567,94.8329 39.64711,94.8329 33.87659,91.50129 L9.32532,77.32661 C3.55479,73.99499 0,67.83791 0,61.17468 L0,32.82532 C0,26.16209 3.55479,20.00501 9.32532,16.67339 L33.87659,2.49871 C39.64711,-0.8329 46.7567,-0.8329 52.52723,2.49871 Z M39.19631,24.91985 C37.20683,25.03324 35.62849,26.68247 35.62849,28.70034 L35.62849,29.45768 C35.62849,29.66682 35.45895,29.83636 35.24981,29.83636 C33.15847,29.83636 31.4631,31.53172 31.4631,33.62307 L31.4631,67.70346 C31.4631,69.7948 33.15847,71.49017 35.24981,71.49017 L51.154,71.49017 C53.24534,71.49017 54.94071,69.7948 54.94071,67.70346 L54.94071,33.62307 C54.94071,31.53172 53.24534,29.83636 51.154,29.83636 C50.94486,29.83636 50.77533,29.66682 50.77533,29.45768 L50.77533,28.70034 C50.77533,26.69857 49.22207,25.05958 47.25505,24.92286 L47.25505,17.5 L39.19631,17.5 L39.19631,24.91985 Z M41.19631,24.91363 L41.19631,19.5 L45.25505,19.5 L45.25505,24.91363 L41.19631,24.91363 Z M39.7645,52.55662 L46.68687,52.55662 C48.34372,52.55662 49.68687,53.89976 49.68687,55.55662 L49.68687,62.47899 C49.68687,64.13584 48.34372,65.47899 46.68687,65.47899 L39.7645,65.47899 C38.10764,65.47899 36.7645,64.13584 36.7645,62.47899 L36.7645,55.55662 C36.7645,53.89976 38.10764,52.55662 39.7645,52.55662 Z M38.65785,40.08425 C39.70352,40.08425 40.55121,40.93193 40.55121,41.97761 C40.55121,43.02328 39.70352,43.87096 38.65785,43.87096 C37.61218,43.87096 36.7645,43.02328 36.7645,41.97761 C36.7645,40.93193 37.61218,40.08425 38.65785,40.08425 Z" id="Combined-Shape"></path>
        </g>
    </g>
</svg>