<?xml version="1.0" encoding="UTF-8"?>
<svg width="87px" height="94px" viewBox="0 0 87 94" version="1.1" xmlns="http://www.w3.org/2000/svg" xmlns:xlink="http://www.w3.org/1999/xlink">
    <!-- Generator: Sketch 54.1 (76490) - https://sketchapp.com -->
    <title>hotspot</title>
    <desc>Created with Sketch.</desc>
    <g id="Page-1" stroke="none" stroke-width="1" fill="none" fill-rule="evenodd">
        <g id="hotspot" fill="#38A2FF" fill-rule="nonzero">
            <path d="M52.52723,2.49871 L77.07849,16.67339 C82.84902,20.00501 86.40381,26.16209 86.40381,32.82532 L86.40381,61.17468 C86.40381,67.83791 82.84902,73.99499 77.07849,77.32661 L52.52723,91.50129 C46.7567,94.8329 39.64711,94.8329 33.87659,91.50129 L9.32532,77.32661 C3.55479,73.99499 0,67.83791 0,61.17468 L0,32.82532 C0,26.16209 3.55479,20.00501 9.32532,16.67339 L33.87659,2.49871 C39.64711,-0.8329 46.7567,-0.8329 52.52723,2.49871 Z M29.72445,21.44068 C23.05182,21.44068 17.64258,26.84991 17.64258,33.52254 L17.64258,60.47746 C17.64258,67.15009 23.05182,72.55932 29.72445,72.55932 L56.67936,72.55932 C63.35199,72.55932 68.76123,67.15009 68.76123,60.47746 L68.76123,33.52254 C68.76123,26.84991 63.35199,21.44068 56.67936,21.44068 L29.72445,21.44068 Z M43.20191,26.21919 C54.67883,26.21919 63.98271,35.52308 63.98271,47 C63.98271,58.47692 54.67883,67.78081 43.20191,67.78081 C31.72498,67.78081 22.4211,58.47692 22.4211,47 C22.4211,35.52308 31.72498,26.21919 43.20191,26.21919 Z" id="Combined-Shape"></path>
        </g>
    </g>
</svg>