<?xml version="1.0" encoding="UTF-8"?>
<svg width="88px" height="95px" viewBox="0 0 88 95" version="1.1" xmlns="http://www.w3.org/2000/svg" xmlns:xlink="http://www.w3.org/1999/xlink">
    <!-- Generator: Sketch 54.1 (76490) - https://sketchapp.com -->
    <title>longfi</title>
    <desc>Created with Sketch.</desc>
    <defs>
        <linearGradient x1="30.3165502%" y1="82.6164855%" x2="67.3664605%" y2="22.8135874%" id="linearGradient-1">
            <stop stop-color="#2B8BFF" offset="0%"></stop>
            <stop stop-color="#35E3B9" offset="100%"></stop>
        </linearGradient>
    </defs>
    <g id="Page-1" stroke="none" stroke-width="1" fill="none" fill-rule="evenodd">
        <g id="longfi" transform="translate(0.800000, 0.800000)" fill="url(#linearGradient-1)" fill-rule="nonzero">
            <path d="M52.52723,2.49871 L77.07849,16.67339 C82.84902,20.00501 86.40381,26.16209 86.40381,32.82532 L86.40381,61.17468 C86.40381,67.83791 82.84902,73.99499 77.07849,77.32661 L52.52723,91.50129 C46.7567,94.8329 39.64711,94.8329 33.87659,91.50129 L9.32532,77.32661 C3.55479,73.99499 0,67.83791 0,61.17468 L0,32.82532 C0,26.16209 3.55479,20.00501 9.32532,16.67339 L33.87659,2.49871 C39.64711,-0.8329 46.7567,-0.8329 52.52723,2.49871 Z M59.03768,43.16586 L59.03768,41.09897 C59.03768,37.41955 62.02044,34.4368 65.69985,34.4368 L65.69985,23 C55.70407,23 47.60088,31.10318 47.60088,41.09897 L47.60088,52.90103 C47.60088,56.58045 44.61813,59.5632 40.93872,59.5632 L40.93872,71 C50.7108,71 58.67405,63.25545 59.02558,53.56921 L65.69985,53.56921 L65.69985,43.16586 L59.03768,43.16586 Z M20.70396,36.53475 L20.70396,52.90103 C20.70396,62.89682 28.80714,71 38.80293,71 L38.80293,59.5632 C35.12351,59.5632 32.14076,56.58045 32.14076,52.90103 L32.14076,36.53475 L20.70396,36.53475 Z" id="Combined-Shape"></path>
        </g>
    </g>
</svg>