<?xml version="1.0" encoding="UTF-8"?>
<svg width="87px" height="94px" viewBox="0 0 87 94" version="1.1" xmlns="http://www.w3.org/2000/svg" xmlns:xlink="http://www.w3.org/1999/xlink">
    <!-- Generator: Sketch 54.1 (76490) - https://sketchapp.com -->
    <title>Combined Shape</title>
    <desc>Created with Sketch.</desc>
    <defs>
        <linearGradient x1="16.1666454%" y1="6.86663792%" x2="85.551167%" y2="90.4537994%" id="linearGradient-1">
            <stop stop-color="#0E60C4" offset="0%"></stop>
            <stop stop-color="#35E3B9" offset="100%"></stop>
        </linearGradient>
    </defs>
    <g id="Page-2" stroke="none" stroke-width="1" fill="none" fill-rule="evenodd">
        <g id="Desktop-HD-Copy-4" transform="translate(-2129.000000, -4395.000000)" fill="url(#linearGradient-1)">
            <path d="M2181.52723,4397.49871 L2206.07849,4411.67339 C2211.84902,4415.00501 2215.40381,4421.16209 2215.40381,4427.82532 L2215.40381,4456.17468 C2215.40381,4462.83791 2211.84902,4468.99499 2206.07849,4472.32661 L2181.52723,4486.50129 C2175.7567,4489.8329 2168.64711,4489.8329 2162.87659,4486.50129 L2138.32532,4472.32661 C2132.55479,4468.99499 2129,4462.83791 2129,4456.17468 L2129,4427.82532 C2129,4421.16209 2132.55479,4415.00501 2138.32532,4411.67339 L2162.87659,4397.49871 C2168.64711,4394.1671 2175.7567,4394.1671 2181.52723,4397.49871 Z M2188.03768,4438.16586 L2188.03768,4436.09897 C2188.03768,4432.41955 2191.02044,4429.4368 2194.69985,4429.4368 L2194.69985,4418 C2184.70407,4418 2176.60088,4426.10318 2176.60088,4436.09897 L2176.60088,4447.90103 C2176.60088,4451.58045 2173.61813,4454.5632 2169.93872,4454.5632 L2169.93872,4466 C2179.7108,4466 2187.67405,4458.25545 2188.02558,4448.56921 L2194.69985,4448.56921 L2194.69985,4438.16586 L2188.03768,4438.16586 Z M2149.70396,4431.53475 L2149.70396,4447.90103 C2149.70396,4457.89682 2157.80714,4466 2167.80293,4466 L2167.80293,4454.5632 C2164.12351,4454.5632 2161.14076,4451.58045 2161.14076,4447.90103 L2161.14076,4431.53475 L2149.70396,4431.53475 Z" id="Combined-Shape"></path>
        </g>
    </g>
</svg>