<?xml version="1.0" encoding="UTF-8"?>
<svg width="146px" height="46px" viewBox="0 0 146 46" version="1.1" xmlns="http://www.w3.org/2000/svg" xmlns:xlink="http://www.w3.org/1999/xlink">
    <!-- Generator: Sketch 54.1 (76490) - https://sketchapp.com -->
    <title>poc2</title>
    <desc>Created with Sketch.</desc>
    <g id="Page-1" stroke="none" stroke-width="1" fill="none" fill-rule="evenodd">
        <g id="poc2">
            <path d="M24.3809684,1.01875474 L37.3558737,8.50983053 C39.7086526,9.86816211 41.1578947,12.3784305 41.1578947,15.0950211 L41.1578947,30.0772211 C41.1578947,32.7938842 39.7086526,35.3042737 37.3558737,36.6624842 L24.3809684,44.1537053 C22.0281895,45.5119158 19.1297053,45.5119158 16.7769263,44.1537053 L3.80199684,36.6624842 C1.44931474,35.3042737 0,32.7938842 0,30.0772211 L0,15.0950211 C0,12.3784547 1.44931474,9.86816211 3.80199684,8.50983053 L16.7769263,1.01875474 C19.1297053,-0.339576842 22.0281895,-0.339576842 24.3809684,1.01875474 Z M32.6609684,15.2591684 C31.6615579,14.2820316 30.0411474,14.2820316 29.0414947,15.2591684 L18.6360526,25.4329158 L13.5689347,20.4787158 C12.5694758,19.5015789 10.9490411,19.5015789 9.94960632,20.4787158 C8.95014737,21.4558526 8.95014737,23.0401895 9.94960632,24.0173263 L16.8263158,30.7408316 C17.8257263,31.7179684 19.4461368,31.7179684 20.4457895,30.7408316 L32.6609684,18.7977789 C33.6603789,17.8206421 33.6603789,16.2363053 32.6609684,15.2591684 Z" id="Combined-Shape" fill="#29D391" fill-rule="nonzero"></path>
            <path d="M41.1578947,23.2360526 L106.526316,23.2360526" id="Path" stroke="#29D391" stroke-width="3" stroke-dasharray="5,4"></path>
            <path d="M128.486232,1.01875474 L141.461137,8.50983053 C143.813916,9.86816211 145.263158,12.3784305 145.263158,15.0950211 L145.263158,30.0772211 C145.263158,32.7938842 143.813916,35.3042737 141.461137,36.6624842 L128.486232,44.1537053 C126.133453,45.5119158 123.234968,45.5119158 120.882189,44.1537053 L107.907284,36.6624842 C105.554505,35.3042737 104.105263,32.7938842 104.105263,30.0772211 L104.105263,15.0950211 C104.105263,12.3784547 105.554505,9.86816211 107.907284,8.50983053 L120.882189,1.01875474 C123.234968,-0.339576842 126.133453,-0.339576842 128.486232,1.01875474 Z M132.503484,18.3402 C133.376032,17.4676526 133.376032,16.0530316 132.503484,15.1807263 C131.631179,14.3082032 130.216558,14.3082032 129.344011,15.1807263 L124.684211,19.8405263 L120.024411,15.1807263 C119.151863,14.3082032 117.737242,14.3082032 116.864937,15.1807263 C115.992389,16.0530316 115.992389,17.4676526 116.864937,18.3402 L121.524737,23 L116.864937,27.6598 C115.992389,28.5323474 115.992389,29.9469684 116.864937,30.8192737 C117.737484,31.6918211 119.151863,31.6918211 120.024411,30.8192737 L124.684211,26.1594737 L129.344011,30.8192737 C130.216558,31.6918211 131.630937,31.6918211 132.503484,30.8192737 C133.376032,29.9469684 133.376032,28.5323474 132.503484,27.6598 L127.843684,23 L132.503484,18.3402 Z" id="Combined-Shape" fill="#FF6666" fill-rule="nonzero"></path>
        </g>
    </g>
</svg>