<?xml version="1.0" encoding="UTF-8"?>
<svg width="1431px" height="722px" viewBox="0 0 1431 722" version="1.1" xmlns="http://www.w3.org/2000/svg" xmlns:xlink="http://www.w3.org/1999/xlink">
    <!-- Generator: Sketch 63.1 (92452) - https://sketch.com -->
    <title>Group 5</title>
    <desc>Created with Sketch.</desc>
    <defs>
        <rect id="path-1" x="41.3964609" y="543.16307" width="35.143849" height="35" rx="17.5"></rect>
        <mask id="mask-2" maskContentUnits="userSpaceOnUse" maskUnits="objectBoundingBox" x="0" y="0" width="35.143849" height="35" fill="white">
            <use xlink:href="#path-1"></use>
        </mask>
    </defs>
    <g id="Page-2" stroke="none" stroke-width="1" fill="none" fill-rule="evenodd">
        <g id="Artboard" transform="translate(-166.000000, -1181.000000)">
            <g id="Group-5" transform="translate(166.000000, 1182.000000)">
                <g id="Group-4-Copy">
                    <g id="Group-3" transform="translate(593.010868, 314.081535) rotate(-90.000000) translate(-593.010868, -314.081535) translate(525.010868, 240.581535)" stroke="#FFFFFF">
                        <g id="Group-2" transform="translate(88.274728, 73.500000) rotate(90.000000) translate(-88.274728, -73.500000) translate(44.774728, 26.000000)" stroke-width="2">
                            <path d="M6,0.692677706 C9.3137085,0.692677706 12,3.37896921 12,6.69267771 L12,94.6926777 L12,94.6926777 L0,94.6926777 L0,6.69267771 C-4.05812251e-16,3.37896921 2.6862915,0.692677706 6,0.692677706 Z" id="Rectangle-Copy-42"></path>
                            <path d="M81,0.692677706 C84.3137085,0.692677706 87,3.37896921 87,6.69267771 L87,94.6926777 L87,94.6926777 L75,94.6926777 L75,6.69267771 C75,3.37896921 77.6862915,0.692677706 81,0.692677706 Z" id="Rectangle-Copy-43"></path>
                        </g>
                        <path d="M68,67.8426699 L68,74.7252716 C68,77.4866953 65.7614237,79.7252716 63,79.7252716 L-50,79.7252716 C-52.7614237,79.7252716 -55,77.4866953 -55,74.7252716 L-55,67.2747284" id="Path" stroke-width="2" transform="translate(6.500000, 73.500000) rotate(90.000000) translate(-6.500000, -73.500000) "></path>
                        <rect id="Rectangle-Copy-7" stroke-width="3" transform="translate(26.967406, 73.500000) rotate(90.000000) translate(-26.967406, -73.500000) " x="-48.0325939" y="59" width="150" height="29" rx="5"></rect>
                    </g>
                    <g id="Group-3-Copy" transform="translate(593.010868, 58.000000) rotate(-90.000000) translate(-593.010868, -58.000000) translate(535.010868, 2.500000)" stroke="#FFFFFF">
                        <g id="Group-2" transform="translate(90.774728, 83.489132) rotate(90.000000) translate(-90.774728, -83.489132) translate(84.774728, 58.489132)" stroke-width="2">
                            <path d="M6,0.364567213 C9.3137085,0.364567213 12,3.05085871 12,6.36456721 L12,49.8382514 L12,49.8382514 L0,49.8382514 L0,6.36456721 C-1.29399067e-15,3.05085871 2.6862915,0.364567213 6,0.364567213 Z" id="Rectangle-Copy-43"></path>
                        </g>
                        <rect id="Rectangle-Copy-7" stroke-width="3" transform="translate(36.967406, 55.500000) rotate(90.000000) translate(-36.967406, -55.500000) " x="-18.0325939" y="27.5" width="110" height="56" rx="5"></rect>
                        <path d="M-39.2429835,51.2896104 L48.7570165,51.2896104 L48.7570165,56.7103896 C48.7570165,58.3672439 47.4138708,59.7103896 45.7570165,59.7103896 L-36.2429835,59.7103896 C-37.8998377,59.7103896 -39.2429835,58.3672439 -39.2429835,56.7103896 L-39.2429835,51.2896104 L-39.2429835,51.2896104 Z" id="Rectangle-Copy-8" stroke-width="3" transform="translate(4.757017, 55.500000) rotate(90.000000) translate(-4.757017, -55.500000) "></path>
                    </g>
                    <g id="Group" transform="translate(593.010868, 554.663070) rotate(-90.000000) translate(-593.010868, -554.663070) translate(512.510868, 466.663070)" stroke="#FFFFFF">
                        <g id="Group-9" transform="translate(80.692678, 88.000000) rotate(90.000000) translate(-80.692678, -88.000000) translate(-6.807322, 28.500000)">
                            <path d="M159,1 L16,1 C11.8578644,1 8.10786438,2.67893219 5.39339828,5.39339828 C2.67893219,8.10786438 1,11.8578644 1,16 L1,34 C1,38.1421356 2.67893219,41.8921356 5.39339828,44.6066017 C8.10786438,47.3210678 11.8578644,49 16,49 L159,49 C163.142136,49 166.892136,47.3210678 169.606602,44.6066017 C172.321068,41.8921356 174,38.1421356 174,34 L174,16 C174,11.8578644 172.321068,8.10786438 169.606602,5.39339828 C166.892136,2.67893219 163.142136,1 159,1 Z" id="Rectangle" stroke-width="2"></path>
                            <path d="M159,69.8073223 L16,69.8073223 C11.8578644,69.8073223 8.10786438,71.4862545 5.39339828,74.2007206 C2.67893219,76.9151867 1,80.6651867 1,84.8073223 L1,102.807322 C1,106.949458 2.67893219,110.699458 5.39339828,113.413924 C8.10786438,116.12839 11.8578644,117.807322 16,117.807322 L159,117.807322 C163.142136,117.807322 166.892136,116.12839 169.606602,113.413924 C172.321068,110.699458 174,106.949458 174,102.807322 L174,84.8073223 C174,80.6651867 172.321068,76.9151867 169.606602,74.2007206 C166.892136,71.4862545 163.142136,69.8073223 159,69.8073223 Z" id="Rectangle-Copy-45" stroke-width="2"></path>
                            <path d="M12.25,11 C11.0763949,11 10.0138949,11.4756975 9.24479618,12.2447962 C8.47569745,13.0138949 8,14.0763949 8,15.25 L8,34.75 C8,35.9236051 8.47569745,36.9861051 9.24479618,37.7552038 C10.0138949,38.5243025 11.0763949,39 12.25,39 C13.4236051,39 14.4861051,38.5243025 15.2552038,37.7552038 C16.0243025,36.9861051 16.5,35.9236051 16.5,34.75 L16.5,15.25 C16.5,14.0763949 16.0243025,13.0138949 15.2552038,12.2447962 C14.4861051,11.4756975 13.4236051,11 12.25,11 Z" id="Rectangle"></path>
                            <path d="M12.25,79.8073223 C11.0763949,79.8073223 10.0138949,80.2830197 9.24479618,81.0521185 C8.47569745,81.8212172 8,82.8837172 8,84.0573223 L8,103.557322 C8,104.730927 8.47569745,105.793427 9.24479618,106.562526 C10.0138949,107.331625 11.0763949,107.807322 12.25,107.807322 C13.4236051,107.807322 14.4861051,107.331625 15.2552038,106.562526 C16.0243025,105.793427 16.5,104.730927 16.5,103.557322 L16.5,84.0573223 C16.5,82.8837172 16.0243025,81.8212172 15.2552038,81.0521185 C14.4861051,80.2830197 13.4236051,79.8073223 12.25,79.8073223 Z" id="Rectangle-Copy-46"></path>
                            <path d="M162.75,11 C161.576395,11 160.513895,11.4756975 159.744796,12.2447962 C158.975697,13.0138949 158.5,14.0763949 158.5,15.25 L158.5,34.75 C158.5,35.9236051 158.975697,36.9861051 159.744796,37.7552038 C160.513895,38.5243025 161.576395,39 162.75,39 C163.923605,39 164.986105,38.5243025 165.755204,37.7552038 C166.524303,36.9861051 167,35.9236051 167,34.75 L167,15.25 C167,14.0763949 166.524303,13.0138949 165.755204,12.2447962 C164.986105,11.4756975 163.923605,11 162.75,11 Z" id="Rectangle-Copy-3"></path>
                            <path d="M162.75,79.8073223 C161.576395,79.8073223 160.513895,80.2830197 159.744796,81.0521185 C158.975697,81.8212172 158.5,82.8837172 158.5,84.0573223 L158.5,103.557322 C158.5,104.730927 158.975697,105.793427 159.744796,106.562526 C160.513895,107.331625 161.576395,107.807322 162.75,107.807322 C163.923605,107.807322 164.986105,107.331625 165.755204,106.562526 C166.524303,105.793427 167,104.730927 167,103.557322 L167,84.0573223 C167,82.8837172 166.524303,81.8212172 165.755204,81.0521185 C164.986105,80.2830197 163.923605,79.8073223 162.75,79.8073223 Z" id="Rectangle-Copy-47"></path>
                        </g>
                        <rect id="Rectangle" stroke-width="3" fill="#27284B" transform="translate(80.692678, 88.000000) rotate(90.000000) translate(-80.692678, -88.000000) " x="17.1926777" y="6.5" width="127" height="163" rx="17"></rect>
                        <rect id="Rectangle" stroke-width="2" transform="translate(46.000000, 88.000000) rotate(90.000000) translate(-46.000000, -88.000000) " x="-10" y="49" width="112" height="78" rx="13"></rect>
                    </g>
                    <path id="Line-5" d="M447.291326,59.16307 C449.776608,59.16307 451.791326,61.1777886 451.791326,63.66307 C451.791326,66.1483514 449.776608,68.16307 447.291326,68.16307 C444.975292,68.16307 443.067913,66.4134121 442.818869,64.1637775 L399.101209,64.16307 C386.799067,64.16307 376.802917,74.0361986 376.604224,86.2909914 L376.601209,86.66307 L376.601209,537.66307 C376.601209,549.965213 386.474338,559.961363 398.729131,560.160056 L399.101209,560.16307 L442.818758,560.163367 C443.067345,557.913249 444.974948,556.16307 447.291326,556.16307 C449.776608,556.16307 451.791326,558.177789 451.791326,560.66307 C451.791326,563.148351 449.776608,565.16307 447.291326,565.16307 C444.975292,565.16307 443.067913,563.413412 442.818869,561.163777 L399.101209,561.16307 C386.252305,561.16307 375.811881,550.851136 375.604358,538.051685 L375.601209,537.66307 L375.601209,86.66307 C375.601209,73.8141653 385.913144,63.3737419 398.712594,63.1662183 L399.101209,63.16307 L442.818758,63.1633671 C443.067345,60.9132488 444.974948,59.16307 447.291326,59.16307 Z" fill="#7C7EBB" fill-rule="nonzero"></path>
                    <path d="M73.537017,40.8256981 L44.5981222,40.8256981 C42.2873836,40.8256981 40.1954025,41.7623099 38.681106,43.2766064 C37.1668095,44.7909029 36.2301977,46.882884 36.2301977,49.1936226 L36.2301977,78.1325174 C36.2301977,80.443256 37.1668095,82.5352371 38.681106,84.0495336 C40.1954025,85.5638301 42.2873836,86.500442 44.5981222,86.500442 L73.537017,86.500442 C75.8477556,86.500442 77.9397367,85.5638301 79.4540332,84.0495336 C80.9683297,82.5352371 81.9049416,80.443256 81.9049416,78.1325174 L81.9049416,49.1936226 C81.9049416,46.882884 80.9683297,44.7909029 79.4540332,43.2766064 C77.9397367,41.7623099 75.8477556,40.8256981 73.537017,40.8256981 Z" id="Rectangle" stroke="#FFFFFF" stroke-width="3" transform="translate(59.067570, 63.663070) rotate(90.000000) translate(-59.067570, -63.663070) "></path>
                    <path d="M64.6185521,291.244163 L35.6796572,291.244163 C33.3689186,291.244163 31.2769375,292.180775 29.762641,293.695071 C28.2483445,295.209368 27.3117327,297.301349 27.3117327,299.612088 L27.3117327,328.550982 C27.3117327,330.861721 28.2483445,332.953702 29.762641,334.467999 C31.2769375,335.982295 33.3689186,336.918907 35.6796572,336.918907 L64.6185521,336.918907 C65.0302908,336.918907 65.4350677,336.889066 65.830856,336.831535 L84.1734381,336.831535 C86.0097762,336.831535 87.6722683,336.087212 88.8756759,334.883804 C90.0790835,333.680397 90.8234066,332.017905 90.8234066,330.181567 L90.8234066,308.481503 C90.8234066,306.645165 90.0790835,304.982673 88.8756759,303.779266 C87.6722683,302.575858 86.0097762,301.831535 84.1734381,301.831535 L75.205924,301.831535 C74.5930405,301.831535 74.0381787,301.583115 73.6365377,301.181474 C73.2348967,300.779833 72.9864766,300.224971 72.9864766,299.612088 C72.9864766,297.301349 72.0498647,295.209368 70.5355682,293.695071 C69.0212717,292.180775 66.9292906,291.244163 64.6185521,291.244163 Z" id="Path" stroke="#FFFFFF" stroke-width="3" transform="translate(59.067570, 314.081535) rotate(90.000000) translate(-59.067570, -314.081535) "></path>
                    <path d="M66.3079093,53.4887681 L51.8272299,53.4887681 C51.0170386,53.4887681 50.2835481,53.817163 49.7526053,54.3481057 C49.2216626,54.8790485 48.8932677,55.612539 48.8932677,56.4227303 L48.8932677,70.9034097 C48.8932677,71.713601 49.2216626,72.4470916 49.7526053,72.9780343 C50.2835481,73.508977 51.0170386,73.837372 51.8272299,73.837372 L66.3079093,73.837372 C67.1181006,73.837372 67.8515912,73.508977 68.3825339,72.9780343 C68.9134766,72.4470916 69.2418716,71.713601 69.2418716,70.9034097 L69.2418716,56.4227303 C69.2418716,55.612539 68.9134766,54.8790485 68.3825339,54.3481057 C67.8515912,53.817163 67.1181006,53.4887681 66.3079093,53.4887681 Z" id="Rectangle" stroke="#FFFFFF" transform="translate(59.067570, 63.663070) rotate(90.000000) translate(-59.067570, -63.663070) "></path>
                    <rect id="Rectangle" stroke="#39393B" fill="#FFFFFF" transform="translate(58.968385, 300.913070) rotate(90.000000) translate(-58.968385, -300.913070) " x="48.7183854" y="285.976514" width="20.5" height="29.8731124" rx="4"></rect>
                    <rect id="Rectangle" stroke="#39393B" fill="#FFFFFF" transform="translate(58.968385, 305.663070) rotate(90.000000) translate(-58.968385, -305.663070) " x="43.9683854" y="290.726514" width="30" height="29.8731124" rx="4"></rect>
                    <rect id="Rectangle-Copy-41" stroke="#39393B" fill="#FFFFFF" transform="translate(47.031829, 335.163070) rotate(90.000000) translate(-47.031829, -335.163070) " x="44.0318292" y="332.16307" width="6" height="6" rx="3"></rect>
                    <rect id="Rectangle-Copy-41" stroke="#39393B" fill="#FFFFFF" transform="translate(57.031829, 335.163070) rotate(90.000000) translate(-57.031829, -335.163070) " x="54.0318292" y="332.16307" width="6" height="6" rx="3"></rect>
                    <rect id="Rectangle" stroke="#FFFFFF" stroke-width="3" transform="translate(58.968385, 560.663070) rotate(90.000000) translate(-58.968385, -560.663070) " x="31.4683854" y="533.16307" width="55" height="55" rx="26"></rect>
                    <use id="Rectangle-Copy-44" stroke="#FFFFFF" mask="url(#mask-2)" stroke-width="2" stroke-dasharray="4.199999809265137" transform="translate(58.968385, 560.663070) rotate(90.000000) translate(-58.968385, -560.663070) " xlink:href="#path-1"></use>
                    <rect id="Rectangle" stroke="#39393B" fill="#FFFFFF" transform="translate(59.067570, 560.663070) rotate(90.000000) translate(-59.067570, -560.663070) " x="54.0675696" y="555.66307" width="10" height="10" rx="5"></rect>
                    <path id="Path-3" d="M126.377399,64.1637775 C126.128355,66.4134121 124.220976,68.16307 121.904942,68.16307 C119.41966,68.16307 117.404942,66.1483514 117.404942,63.66307 C117.404942,61.1777886 119.41966,59.16307 121.904942,59.16307 C124.22132,59.16307 126.128923,60.9132488 126.37751,63.1633671 L170.095058,63.16307 C182.943963,63.16307 193.384387,73.4750044 193.59191,86.2744545 L193.595058,86.66307 L193.595058,537.66307 C193.595058,550.511975 183.283124,560.952398 170.483674,561.159922 L170.095058,561.16307 L126.377399,561.163777 C126.128355,563.413412 124.220976,565.16307 121.904942,565.16307 C119.41966,565.16307 117.404942,563.148351 117.404942,560.66307 C117.404942,558.177789 119.41966,556.16307 121.904942,556.16307 C124.22132,556.16307 126.128923,557.913249 126.37751,560.163367 L170.095058,560.16307 C182.397201,560.16307 192.393351,550.289941 192.592044,538.035149 L192.595058,537.66307 L192.595058,86.66307 C192.595058,74.3609272 182.72193,64.3647772 170.467137,64.1660844 L170.095058,64.16307 Z" fill="#7C7EBB" fill-rule="nonzero"></path>
                    <path id="Line-6-Copy" d="M1218.89317,307.66307 C1221.37845,307.66307 1223.39317,309.677789 1223.39317,312.16307 C1223.39317,314.648351 1221.37845,316.66307 1218.89317,316.66307 C1216.57714,316.66307 1214.66976,314.913412 1214.42071,312.663777 L743.202868,312.663777 C742.953824,314.913412 741.046444,316.66307 738.73041,316.66307 C736.245129,316.66307 734.23041,314.648351 734.23041,312.16307 C734.23041,309.677789 736.245129,307.66307 738.73041,307.66307 C741.046789,307.66307 742.954392,309.413249 743.202979,311.663367 L1214.4206,311.663367 C1214.66919,309.413249 1216.57679,307.66307 1218.89317,307.66307 Z" fill="#7C7EBB" fill-rule="nonzero"></path>
                    <path id="Path-3-Copy" d="M743.202868,64.1637775 C742.953824,66.4134121 741.046444,68.16307 738.73041,68.16307 C736.245129,68.16307 734.23041,66.1483514 734.23041,63.66307 C734.23041,61.1777886 736.245129,59.16307 738.73041,59.16307 C741.046789,59.16307 742.954392,60.9132488 743.202979,63.1633671 L786.920527,63.16307 C799.769432,63.16307 810.209855,73.4750044 810.417379,86.2744545 L810.420527,86.66307 L810.420527,537.66307 C810.420527,550.511975 800.108593,560.952398 787.309143,561.159922 L786.920527,561.16307 L743.202868,561.163777 C742.953824,563.413412 741.046444,565.16307 738.73041,565.16307 C736.245129,565.16307 734.23041,563.148351 734.23041,560.66307 C734.23041,558.177789 736.245129,556.16307 738.73041,556.16307 C741.046789,556.16307 742.954392,557.913249 743.202979,560.163367 L786.920527,560.16307 C799.22267,560.16307 809.21882,550.289941 809.417513,538.035149 L809.420527,537.66307 L809.420527,86.66307 C809.420527,74.3609272 799.547398,64.3647772 787.292606,64.1660844 L786.920527,64.16307 Z" fill="#7C7EBB" fill-rule="nonzero"></path>
                    <path d="M1300.89317,346 C1282.94392,346 1268.39317,331.449254 1268.39317,313.5 C1268.39317,295.550746 1282.94392,281 1300.89317,281 C1304.34342,281 1307.66809,281.537641 1310.78798,282.533715 C1317.34386,264.154586 1334.90373,251 1355.53603,251 C1381.76955,251 1403.03603,272.266474 1403.03603,298.5 C1403.03603,299.943014 1402.97168,301.371 1402.8457,302.781244 C1404.11528,302.549298 1405.42568,302.428571 1406.76427,302.428571 C1418.79619,302.428571 1428.54999,312.182368 1428.54999,324.214286 C1428.54999,336.246203 1418.79619,346 1406.76427,346 L1406.76427,346 Z" id="Combined-Shape-Copy" stroke="#FFFFFF" stroke-width="3"></path>
                    <path d="M12.4568292,707.66307 L12.4568292,705.61307 L2.83182921,705.61307 L2.83182921,699.48807 L11.2818292,699.48807 L11.2818292,697.38807 L2.83182921,697.38807 L2.83182921,691.98807 L12.4568292,691.98807 L12.4568292,689.93807 L0.606829205,689.93807 L0.606829205,707.66307 L12.4568292,707.66307 Z M18.1818292,707.66307 L18.1818292,701.78807 C18.1818292,701.304737 18.2026624,700.76307 18.2443292,700.16307 C18.285996,699.56307 18.4151624,699.029737 18.6318292,698.56307 C18.9151624,697.979737 19.2901624,697.508903 19.7568292,697.15057 C20.223496,696.792237 20.7651624,696.61307 21.3818292,696.61307 C22.3818292,696.61307 23.0943292,696.879737 23.5193292,697.41307 C23.9443292,697.946403 24.1568292,698.68807 24.1568292,699.63807 L24.1568292,707.66307 L26.2818292,707.66307 L26.2818292,699.33807 C26.2818292,697.871403 25.9151624,696.729737 25.1818292,695.91307 C24.448496,695.096403 23.3568292,694.68807 21.9068292,694.68807 C21.5568292,694.68807 21.1901624,694.733903 20.8068292,694.82557 C20.423496,694.917237 20.0568292,695.058903 19.7068292,695.25057 C19.3568292,695.442237 19.0401624,695.67557 18.7568292,695.95057 C18.473496,696.22557 18.248496,696.546403 18.0818292,696.91307 L17.9068292,695.01307 L16.0568292,695.01307 L16.0568292,707.66307 L18.1818292,707.66307 Z M35.1068292,707.98807 C35.823496,707.98807 36.5401624,707.817237 37.2568292,707.47557 C37.973496,707.133903 38.5151624,706.646403 38.8818292,706.01307 L39.0318292,707.66307 L40.9068292,707.66307 L40.9068292,689.61307 L38.7818292,689.61307 L38.7818292,696.48807 C38.6151624,696.204737 38.3943292,695.95057 38.1193292,695.72557 C37.8443292,695.50057 37.5401624,695.31307 37.2068292,695.16307 C36.873496,695.01307 36.5276624,694.896403 36.1693292,694.81307 C35.810996,694.729737 35.4568292,694.68807 35.1068292,694.68807 C34.3568292,694.68807 33.6943292,694.804737 33.1193292,695.03807 C32.5443292,695.271403 32.048496,695.579737 31.6318292,695.96307 C30.998496,696.579737 30.5193292,697.358903 30.1943292,698.30057 C29.8693292,699.242237 29.7068292,700.26307 29.7068292,701.36307 C29.7068292,702.41307 29.860996,703.396403 30.1693292,704.31307 C30.4776624,705.229737 30.9318292,705.996403 31.5318292,706.61307 C31.948496,707.046403 32.4526624,707.383903 33.0443292,707.62557 C33.635996,707.867237 34.323496,707.98807 35.1068292,707.98807 Z M35.4568292,706.18807 C34.7568292,706.18807 34.173496,706.046403 33.7068292,705.76307 C33.2401624,705.479737 32.873496,705.104737 32.6068292,704.63807 C32.3401624,704.171403 32.1526624,703.65057 32.0443292,703.07557 C31.935996,702.50057 31.8818292,701.921403 31.8818292,701.33807 C31.8818292,700.754737 31.935996,700.17557 32.0443292,699.60057 C32.1526624,699.02557 32.3401624,698.504737 32.6068292,698.03807 C32.873496,697.571403 33.2401624,697.196403 33.7068292,696.91307 C34.173496,696.629737 34.7568292,696.48807 35.4568292,696.48807 C35.923496,696.48807 36.3193292,696.567237 36.6443292,696.72557 C36.9693292,696.883903 37.2568292,697.079737 37.5068292,697.31307 C38.0401624,697.779737 38.4068292,698.367237 38.6068292,699.07557 C38.8068292,699.783903 38.9068292,700.53807 38.9068292,701.33807 C38.9068292,702.13807 38.8068292,702.892237 38.6068292,703.60057 C38.4068292,704.308903 38.0401624,704.896403 37.5068292,705.36307 C37.2568292,705.596403 36.9693292,705.792237 36.6443292,705.95057 C36.3193292,706.108903 35.923496,706.18807 35.4568292,706.18807 Z M53.6318292,707.66307 L53.6318292,693.41307 L62.3318292,707.66307 L64.8318292,707.66307 L64.8318292,689.93807 L62.6818292,689.93807 L62.6818292,704.23807 L53.9818292,689.93807 L51.4818292,689.93807 L51.4818292,707.66307 L53.6318292,707.66307 Z M74.3068292,707.98807 C75.1068292,707.98807 75.8276624,707.854737 76.4693292,707.58807 C77.110996,707.321403 77.6651624,706.96307 78.1318292,706.51307 C78.8318292,705.829737 79.3068292,705.046403 79.5568292,704.16307 C79.8068292,703.279737 79.9318292,702.33807 79.9318292,701.33807 C79.9318292,700.33807 79.8068292,699.396403 79.5568292,698.51307 C79.3068292,697.629737 78.8318292,696.846403 78.1318292,696.16307 C77.6651624,695.71307 77.110996,695.354737 76.4693292,695.08807 C75.8276624,694.821403 75.1068292,694.68807 74.3068292,694.68807 C73.5068292,694.68807 72.785996,694.821403 72.1443292,695.08807 C71.5026624,695.354737 70.948496,695.71307 70.4818292,696.16307 C69.7818292,696.846403 69.3068292,697.629737 69.0568292,698.51307 C68.8068292,699.396403 68.6818292,700.33807 68.6818292,701.33807 C68.6818292,702.33807 68.8068292,703.279737 69.0568292,704.16307 C69.3068292,705.046403 69.7818292,705.829737 70.4818292,706.51307 C70.948496,706.96307 71.5026624,707.321403 72.1443292,707.58807 C72.785996,707.854737 73.5068292,707.98807 74.3068292,707.98807 Z M74.3068292,706.16307 C73.8068292,706.16307 73.3693292,706.079737 72.9943292,705.91307 C72.6193292,705.746403 72.298496,705.529737 72.0318292,705.26307 C71.5818292,704.796403 71.273496,704.21307 71.1068292,703.51307 C70.9401624,702.81307 70.8568292,702.08807 70.8568292,701.33807 C70.8568292,700.58807 70.9401624,699.86307 71.1068292,699.16307 C71.273496,698.46307 71.5818292,697.879737 72.0318292,697.41307 C72.298496,697.146403 72.6193292,696.929737 72.9943292,696.76307 C73.3693292,696.596403 73.8068292,696.51307 74.3068292,696.51307 C74.8068292,696.51307 75.2443292,696.596403 75.6193292,696.76307 C75.9943292,696.929737 76.3151624,697.146403 76.5818292,697.41307 C77.0318292,697.879737 77.3401624,698.46307 77.5068292,699.16307 C77.673496,699.86307 77.7568292,700.58807 77.7568292,701.33807 C77.7568292,702.08807 77.673496,702.81307 77.5068292,703.51307 C77.3401624,704.21307 77.0318292,704.796403 76.5818292,705.26307 C76.3151624,705.529737 75.9943292,705.746403 75.6193292,705.91307 C75.2443292,706.079737 74.8068292,706.16307 74.3068292,706.16307 Z M88.0318292,707.98807 C88.748496,707.98807 89.4651624,707.817237 90.1818292,707.47557 C90.898496,707.133903 91.4401624,706.646403 91.8068292,706.01307 L91.9568292,707.66307 L93.8318292,707.66307 L93.8318292,689.61307 L91.7068292,689.61307 L91.7068292,696.48807 C91.5401624,696.204737 91.3193292,695.95057 91.0443292,695.72557 C90.7693292,695.50057 90.4651624,695.31307 90.1318292,695.16307 C89.798496,695.01307 89.4526624,694.896403 89.0943292,694.81307 C88.735996,694.729737 88.3818292,694.68807 88.0318292,694.68807 C87.2818292,694.68807 86.6193292,694.804737 86.0443292,695.03807 C85.4693292,695.271403 84.973496,695.579737 84.5568292,695.96307 C83.923496,696.579737 83.4443292,697.358903 83.1193292,698.30057 C82.7943292,699.242237 82.6318292,700.26307 82.6318292,701.36307 C82.6318292,702.41307 82.785996,703.396403 83.0943292,704.31307 C83.4026624,705.229737 83.8568292,705.996403 84.4568292,706.61307 C84.873496,707.046403 85.3776624,707.383903 85.9693292,707.62557 C86.560996,707.867237 87.248496,707.98807 88.0318292,707.98807 Z M88.3818292,706.18807 C87.6818292,706.18807 87.098496,706.046403 86.6318292,705.76307 C86.1651624,705.479737 85.798496,705.104737 85.5318292,704.63807 C85.2651624,704.171403 85.0776624,703.65057 84.9693292,703.07557 C84.860996,702.50057 84.8068292,701.921403 84.8068292,701.33807 C84.8068292,700.754737 84.860996,700.17557 84.9693292,699.60057 C85.0776624,699.02557 85.2651624,698.504737 85.5318292,698.03807 C85.798496,697.571403 86.1651624,697.196403 86.6318292,696.91307 C87.098496,696.629737 87.6818292,696.48807 88.3818292,696.48807 C88.848496,696.48807 89.2443292,696.567237 89.5693292,696.72557 C89.8943292,696.883903 90.1818292,697.079737 90.4318292,697.31307 C90.9651624,697.779737 91.3318292,698.367237 91.5318292,699.07557 C91.7318292,699.783903 91.8318292,700.53807 91.8318292,701.33807 C91.8318292,702.13807 91.7318292,702.892237 91.5318292,703.60057 C91.3318292,704.308903 90.9651624,704.896403 90.4318292,705.36307 C90.1818292,705.596403 89.8943292,705.792237 89.5693292,705.95057 C89.2443292,706.108903 88.848496,706.18807 88.3818292,706.18807 Z M103.256829,707.98807 C103.856829,707.98807 104.431829,707.904737 104.981829,707.73807 C105.531829,707.571403 106.031829,707.33807 106.481829,707.03807 C106.998496,706.68807 107.431829,706.23807 107.781829,705.68807 C108.131829,705.13807 108.348496,704.546403 108.431829,703.91307 L106.356829,703.91307 C106.273496,704.246403 106.173496,704.51307 106.056829,704.71307 C105.940162,704.91307 105.790162,705.104737 105.606829,705.28807 C105.340162,705.571403 105.006829,705.779737 104.606829,705.91307 C104.206829,706.046403 103.756829,706.11307 103.256829,706.11307 C102.306829,706.11307 101.531829,705.81307 100.931829,705.21307 C100.548496,704.829737 100.248496,704.35057 100.031829,703.77557 C99.8151624,703.20057 99.7068292,702.621403 99.7068292,702.03807 L108.656829,702.03807 L108.681829,700.76307 C108.698496,699.91307 108.565162,699.10057 108.281829,698.32557 C107.998496,697.55057 107.598496,696.879737 107.081829,696.31307 C106.615162,695.81307 106.060996,695.417237 105.419329,695.12557 C104.777662,694.833903 104.048496,694.68807 103.231829,694.68807 C102.131829,694.68807 101.173496,694.93807 100.356829,695.43807 C99.5401624,695.93807 98.9068292,696.571403 98.4568292,697.33807 C98.1068292,697.921403 97.8568292,698.55057 97.7068292,699.22557 C97.5568292,699.90057 97.4818292,700.621403 97.4818292,701.38807 C97.4818292,702.28807 97.610996,703.142237 97.8693292,703.95057 C98.1276624,704.758903 98.523496,705.471403 99.0568292,706.08807 C99.5401624,706.671403 100.135996,707.133903 100.844329,707.47557 C101.552662,707.817237 102.356829,707.98807 103.256829,707.98807 Z M106.506829,700.21307 L99.7568292,700.21307 C99.773496,699.746403 99.8568292,699.292237 100.006829,698.85057 C100.156829,698.408903 100.373496,698.01307 100.656829,697.66307 C100.940162,697.31307 101.298496,697.029737 101.731829,696.81307 C102.165162,696.596403 102.665162,696.48807 103.231829,696.48807 C103.798496,696.48807 104.290162,696.592237 104.706829,696.80057 C105.123496,697.008903 105.465162,697.28807 105.731829,697.63807 C105.981829,697.971403 106.173496,698.36307 106.306829,698.81307 C106.440162,699.26307 106.506829,699.729737 106.506829,700.21307 Z M116.506829,707.98807 C117.340162,707.98807 118.115162,707.87557 118.831829,707.65057 C119.548496,707.42557 120.148496,707.06307 120.631829,706.56307 C120.931829,706.246403 121.173496,705.87557 121.356829,705.45057 C121.540162,705.02557 121.631829,704.53807 121.631829,703.98807 C121.631829,703.03807 121.319329,702.254737 120.694329,701.63807 C120.069329,701.021403 119.306829,700.63807 118.406829,700.48807 C117.723496,700.371403 117.131829,700.283903 116.631829,700.22557 C116.131829,700.167237 115.706829,700.11307 115.356829,700.06307 C114.823496,699.979737 114.406829,699.817237 114.106829,699.57557 C113.806829,699.333903 113.656829,698.946403 113.656829,698.41307 C113.656829,698.06307 113.769329,697.733903 113.994329,697.42557 C114.219329,697.117237 114.531829,696.879737 114.931829,696.71307 C115.231829,696.579737 115.490162,696.504737 115.706829,696.48807 C115.923496,696.471403 116.156829,696.46307 116.406829,696.46307 C117.290162,696.46307 117.981829,696.68807 118.481829,697.13807 C118.665162,697.304737 118.827662,697.52557 118.969329,697.80057 C119.110996,698.07557 119.190162,698.379737 119.206829,698.71307 L121.331829,698.71307 C121.331829,698.196403 121.252662,697.746403 121.094329,697.36307 C120.935996,696.979737 120.715162,696.621403 120.431829,696.28807 C119.998496,695.754737 119.431829,695.354737 118.731829,695.08807 C118.031829,694.821403 117.256829,694.68807 116.406829,694.68807 C115.606829,694.68807 114.890162,694.81307 114.256829,695.06307 C113.623496,695.31307 113.098496,695.654737 112.681829,696.08807 C112.398496,696.371403 112.152662,696.733903 111.944329,697.17557 C111.735996,697.617237 111.631829,698.079737 111.631829,698.56307 C111.631829,699.529737 111.910996,700.30057 112.469329,700.87557 C113.027662,701.45057 113.781829,701.81307 114.731829,701.96307 C114.948496,701.996403 115.194329,702.029737 115.469329,702.06307 C115.744329,702.096403 116.015162,702.129737 116.281829,702.16307 C116.548496,702.196403 116.798496,702.229737 117.031829,702.26307 C117.265162,702.296403 117.448496,702.321403 117.581829,702.33807 C118.231829,702.421403 118.723496,702.621403 119.056829,702.93807 C119.390162,703.254737 119.556829,703.654737 119.556829,704.13807 C119.556829,704.421403 119.498496,704.68807 119.381829,704.93807 C119.265162,705.18807 119.115162,705.379737 118.931829,705.51307 C118.598496,705.796403 118.235996,705.983903 117.844329,706.07557 C117.452662,706.167237 117.040162,706.21307 116.606829,706.21307 C116.206829,706.21307 115.798496,706.171403 115.381829,706.08807 C114.965162,706.004737 114.615162,705.854737 114.331829,705.63807 C114.031829,705.404737 113.790162,705.12557 113.606829,704.80057 C113.423496,704.47557 113.323496,704.096403 113.306829,703.66307 L111.181829,703.66307 C111.181829,704.196403 111.290162,704.717237 111.506829,705.22557 C111.723496,705.733903 112.023496,706.179737 112.406829,706.56307 C112.940162,707.096403 113.556829,707.467237 114.256829,707.67557 C114.956829,707.883903 115.706829,707.98807 116.506829,707.98807 Z" id="EndNodes" fill="#38A2FF" fill-rule="nonzero"></path>
                    <path d="M539.998368,716.01307 C540.498368,716.01307 540.990035,715.95057 541.473368,715.82557 C541.956701,715.70057 542.410868,715.529737 542.835868,715.31307 C543.260868,715.096403 543.644201,714.83807 543.985868,714.53807 C544.327535,714.23807 544.606701,713.904737 544.823368,713.53807 L545.198368,715.66307 L546.748368,715.66307 L546.748368,706.11307 L539.998368,706.11307 L539.998368,708.18807 L544.748368,708.18807 C544.748368,709.004737 544.640035,709.81307 544.423368,710.61307 C544.206701,711.41307 543.806701,712.104737 543.223368,712.68807 C542.823368,713.08807 542.344201,713.392237 541.785868,713.60057 C541.227535,713.808903 540.631701,713.91307 539.998368,713.91307 C539.398368,713.91307 538.827535,713.808903 538.285868,713.60057 C537.744201,713.392237 537.256701,713.071403 536.823368,712.63807 C536.456701,712.254737 536.165035,711.821403 535.948368,711.33807 C535.731701,710.854737 535.569201,710.35057 535.460868,709.82557 C535.352535,709.30057 535.285868,708.779737 535.260868,708.26307 C535.235868,707.746403 535.223368,707.26307 535.223368,706.81307 C535.223368,706.346403 535.235868,705.854737 535.260868,705.33807 C535.285868,704.821403 535.348368,704.308903 535.448368,703.80057 C535.548368,703.292237 535.702535,702.80057 535.910868,702.32557 C536.119201,701.85057 536.406701,701.429737 536.773368,701.06307 C537.206701,700.629737 537.702535,700.296403 538.260868,700.06307 C538.819201,699.829737 539.398368,699.71307 539.998368,699.71307 C540.731701,699.71307 541.394201,699.82557 541.985868,700.05057 C542.577535,700.27557 543.073368,700.629737 543.473368,701.11307 C543.706701,701.396403 543.890035,701.68807 544.023368,701.98807 C544.156701,702.28807 544.240035,702.646403 544.273368,703.06307 L546.598368,703.06307 C546.565035,702.346403 546.410868,701.704737 546.135868,701.13807 C545.860868,700.571403 545.506701,700.06307 545.073368,699.61307 C544.456701,698.96307 543.706701,698.467237 542.823368,698.12557 C541.940035,697.783903 540.998368,697.61307 539.998368,697.61307 C539.098368,697.61307 538.235868,697.771403 537.410868,698.08807 C536.585868,698.404737 535.856701,698.879737 535.223368,699.51307 C534.740035,699.979737 534.348368,700.492237 534.048368,701.05057 C533.748368,701.608903 533.515035,702.196403 533.348368,702.81307 C533.181701,703.429737 533.069201,704.07557 533.010868,704.75057 C532.952535,705.42557 532.923368,706.11307 532.923368,706.81307 C532.923368,708.41307 533.081701,709.821403 533.398368,711.03807 C533.715035,712.254737 534.323368,713.304737 535.223368,714.18807 C535.856701,714.821403 536.585868,715.283903 537.410868,715.57557 C538.235868,715.867237 539.098368,716.01307 539.998368,716.01307 Z M554.173368,715.98807 C555.073368,715.98807 555.885868,715.80057 556.610868,715.42557 C557.335868,715.05057 557.881701,714.546403 558.248368,713.91307 L558.298368,713.91307 C558.298368,714.446403 558.460868,714.90057 558.785868,715.27557 C559.110868,715.65057 559.556701,715.83807 560.123368,715.83807 C560.390035,715.83807 560.631701,715.817237 560.848368,715.77557 C561.065035,715.733903 561.290035,715.654737 561.523368,715.53807 L561.523368,713.96307 C561.456701,713.96307 561.390035,713.971403 561.323368,713.98807 C561.190035,714.021403 561.073368,714.03807 560.973368,714.03807 C560.756701,714.03807 560.585868,713.979737 560.460868,713.86307 C560.335868,713.746403 560.273368,713.521403 560.273368,713.18807 L560.273368,707.06307 C560.273368,706.329737 560.148368,705.679737 559.898368,705.11307 C559.598368,704.41307 559.090035,703.833903 558.373368,703.37557 C557.656701,702.917237 556.681701,702.68807 555.448368,702.68807 C554.665035,702.68807 553.927535,702.80057 553.235868,703.02557 C552.544201,703.25057 551.981701,703.58807 551.548368,704.03807 C551.215035,704.371403 550.952535,704.75057 550.760868,705.17557 C550.569201,705.60057 550.465035,706.104737 550.448368,706.68807 L552.523368,706.68807 C552.523368,706.08807 552.731701,705.579737 553.148368,705.16307 C553.365035,704.946403 553.656701,704.767237 554.023368,704.62557 C554.390035,704.483903 554.865035,704.41307 555.448368,704.41307 C555.965035,704.41307 556.385868,704.471403 556.710868,704.58807 C557.035868,704.704737 557.306701,704.86307 557.523368,705.06307 C557.806701,705.329737 557.985868,705.63807 558.060868,705.98807 C558.135868,706.33807 558.173368,706.671403 558.173368,706.98807 L558.173368,707.91307 L554.323368,708.13807 C553.456701,708.18807 552.735868,708.346403 552.160868,708.61307 C551.585868,708.879737 551.123368,709.20057 550.773368,709.57557 C550.423368,709.95057 550.177535,710.36307 550.035868,710.81307 C549.894201,711.26307 549.823368,711.68807 549.823368,712.08807 C549.823368,712.571403 549.915035,713.046403 550.098368,713.51307 C550.281701,713.979737 550.552535,714.396403 550.910868,714.76307 C551.269201,715.129737 551.723368,715.42557 552.273368,715.65057 C552.823368,715.87557 553.456701,715.98807 554.173368,715.98807 Z M554.498368,714.21307 C553.598368,714.21307 552.956701,713.992237 552.573368,713.55057 C552.190035,713.108903 551.998368,712.604737 551.998368,712.03807 C551.998368,711.63807 552.081701,711.296403 552.248368,711.01307 C552.415035,710.729737 552.631701,710.50057 552.898368,710.32557 C553.165035,710.15057 553.465035,710.017237 553.798368,709.92557 C554.131701,709.833903 554.456701,709.779737 554.773368,709.76307 L558.173368,709.56307 L558.173368,710.31307 C558.173368,710.846403 558.090035,711.36307 557.923368,711.86307 C557.756701,712.36307 557.481701,712.804737 557.098368,713.18807 C556.765035,713.53807 556.369201,713.796403 555.910868,713.96307 C555.452535,714.129737 554.981701,714.21307 554.498368,714.21307 Z M568.923368,715.83807 C569.506701,715.83807 570.002535,715.80057 570.410868,715.72557 C570.819201,715.65057 571.165035,715.571403 571.448368,715.48807 L571.448368,713.66307 L570.698368,713.76307 C570.481701,713.796403 570.248368,713.82557 569.998368,713.85057 C569.748368,713.87557 569.506701,713.88807 569.273368,713.88807 C568.690035,713.88807 568.260868,713.754737 567.985868,713.48807 C567.710868,713.221403 567.573368,712.779737 567.573368,712.16307 L567.573368,704.83807 L571.323368,704.83807 L571.323368,703.01307 L567.573368,703.01307 L567.573368,699.28807 L565.448368,699.78807 L565.448368,703.01307 L562.998368,703.01307 L562.998368,704.83807 L565.448368,704.83807 L565.448368,712.41307 C565.448368,712.829737 565.502535,713.246403 565.610868,713.66307 C565.719201,714.079737 565.902535,714.446403 566.160868,714.76307 C566.419201,715.079737 566.773368,715.33807 567.223368,715.53807 C567.673368,715.73807 568.240035,715.83807 568.923368,715.83807 Z M579.298368,715.98807 C579.898368,715.98807 580.473368,715.904737 581.023368,715.73807 C581.573368,715.571403 582.073368,715.33807 582.523368,715.03807 C583.040035,714.68807 583.473368,714.23807 583.823368,713.68807 C584.173368,713.13807 584.390035,712.546403 584.473368,711.91307 L582.398368,711.91307 C582.315035,712.246403 582.215035,712.51307 582.098368,712.71307 C581.981701,712.91307 581.831701,713.104737 581.648368,713.28807 C581.381701,713.571403 581.048368,713.779737 580.648368,713.91307 C580.248368,714.046403 579.798368,714.11307 579.298368,714.11307 C578.348368,714.11307 577.573368,713.81307 576.973368,713.21307 C576.590035,712.829737 576.290035,712.35057 576.073368,711.77557 C575.856701,711.20057 575.748368,710.621403 575.748368,710.03807 L584.698368,710.03807 L584.723368,708.76307 C584.740035,707.91307 584.606701,707.10057 584.323368,706.32557 C584.040035,705.55057 583.640035,704.879737 583.123368,704.31307 C582.656701,703.81307 582.102535,703.417237 581.460868,703.12557 C580.819201,702.833903 580.090035,702.68807 579.273368,702.68807 C578.173368,702.68807 577.215035,702.93807 576.398368,703.43807 C575.581701,703.93807 574.948368,704.571403 574.498368,705.33807 C574.148368,705.921403 573.898368,706.55057 573.748368,707.22557 C573.598368,707.90057 573.523368,708.621403 573.523368,709.38807 C573.523368,710.28807 573.652535,711.142237 573.910868,711.95057 C574.169201,712.758903 574.565035,713.471403 575.098368,714.08807 C575.581701,714.671403 576.177535,715.133903 576.885868,715.47557 C577.594201,715.817237 578.398368,715.98807 579.298368,715.98807 Z M582.548368,708.21307 L575.798368,708.21307 C575.815035,707.746403 575.898368,707.292237 576.048368,706.85057 C576.198368,706.408903 576.415035,706.01307 576.698368,705.66307 C576.981701,705.31307 577.340035,705.029737 577.773368,704.81307 C578.206701,704.596403 578.706701,704.48807 579.273368,704.48807 C579.840035,704.48807 580.331701,704.592237 580.748368,704.80057 C581.165035,705.008903 581.506701,705.28807 581.773368,705.63807 C582.023368,705.971403 582.215035,706.36307 582.348368,706.81307 C582.481701,707.26307 582.548368,707.729737 582.548368,708.21307 Z M592.198368,715.66307 L595.573368,705.98807 L598.873368,715.66307 L600.923368,715.66307 L604.198368,703.01307 L602.123368,703.01307 L599.673368,712.56307 L596.498368,703.16307 L594.673368,703.16307 L591.448368,712.56307 L589.023368,703.01307 L586.923368,703.01307 L590.173368,715.66307 L592.198368,715.66307 Z M610.723368,715.98807 C611.623368,715.98807 612.435868,715.80057 613.160868,715.42557 C613.885868,715.05057 614.431701,714.546403 614.798368,713.91307 L614.848368,713.91307 C614.848368,714.446403 615.010868,714.90057 615.335868,715.27557 C615.660868,715.65057 616.106701,715.83807 616.673368,715.83807 C616.940035,715.83807 617.181701,715.817237 617.398368,715.77557 C617.615035,715.733903 617.840035,715.654737 618.073368,715.53807 L618.073368,713.96307 C618.006701,713.96307 617.940035,713.971403 617.873368,713.98807 C617.740035,714.021403 617.623368,714.03807 617.523368,714.03807 C617.306701,714.03807 617.135868,713.979737 617.010868,713.86307 C616.885868,713.746403 616.823368,713.521403 616.823368,713.18807 L616.823368,707.06307 C616.823368,706.329737 616.698368,705.679737 616.448368,705.11307 C616.148368,704.41307 615.640035,703.833903 614.923368,703.37557 C614.206701,702.917237 613.231701,702.68807 611.998368,702.68807 C611.215035,702.68807 610.477535,702.80057 609.785868,703.02557 C609.094201,703.25057 608.531701,703.58807 608.098368,704.03807 C607.765035,704.371403 607.502535,704.75057 607.310868,705.17557 C607.119201,705.60057 607.015035,706.104737 606.998368,706.68807 L609.073368,706.68807 C609.073368,706.08807 609.281701,705.579737 609.698368,705.16307 C609.915035,704.946403 610.206701,704.767237 610.573368,704.62557 C610.940035,704.483903 611.415035,704.41307 611.998368,704.41307 C612.515035,704.41307 612.935868,704.471403 613.260868,704.58807 C613.585868,704.704737 613.856701,704.86307 614.073368,705.06307 C614.356701,705.329737 614.535868,705.63807 614.610868,705.98807 C614.685868,706.33807 614.723368,706.671403 614.723368,706.98807 L614.723368,707.91307 L610.873368,708.13807 C610.006701,708.18807 609.285868,708.346403 608.710868,708.61307 C608.135868,708.879737 607.673368,709.20057 607.323368,709.57557 C606.973368,709.95057 606.727535,710.36307 606.585868,710.81307 C606.444201,711.26307 606.373368,711.68807 606.373368,712.08807 C606.373368,712.571403 606.465035,713.046403 606.648368,713.51307 C606.831701,713.979737 607.102535,714.396403 607.460868,714.76307 C607.819201,715.129737 608.273368,715.42557 608.823368,715.65057 C609.373368,715.87557 610.006701,715.98807 610.723368,715.98807 Z M611.048368,714.21307 C610.148368,714.21307 609.506701,713.992237 609.123368,713.55057 C608.740035,713.108903 608.548368,712.604737 608.548368,712.03807 C608.548368,711.63807 608.631701,711.296403 608.798368,711.01307 C608.965035,710.729737 609.181701,710.50057 609.448368,710.32557 C609.715035,710.15057 610.015035,710.017237 610.348368,709.92557 C610.681701,709.833903 611.006701,709.779737 611.323368,709.76307 L614.723368,709.56307 L614.723368,710.31307 C614.723368,710.846403 614.640035,711.36307 614.473368,711.86307 C614.306701,712.36307 614.031701,712.804737 613.648368,713.18807 C613.315035,713.53807 612.919201,713.796403 612.460868,713.96307 C612.002535,714.129737 611.531701,714.21307 611.048368,714.21307 Z M622.198368,720.96307 C623.148368,720.96307 623.881701,720.717237 624.398368,720.22557 C624.915035,719.733903 625.323368,719.079737 625.623368,718.26307 L631.323368,703.01307 L629.098368,703.01307 L625.548368,712.98807 L621.823368,703.01307 L619.423368,703.01307 L624.473368,715.66307 L623.673368,717.78807 C623.490035,718.271403 623.240035,718.604737 622.923368,718.78807 C622.606701,718.971403 622.223368,719.06307 621.773368,719.06307 C621.573368,719.06307 621.381701,719.054737 621.198368,719.03807 C621.015035,719.021403 620.856701,718.996403 620.723368,718.96307 C620.556701,718.929737 620.406701,718.896403 620.273368,718.86307 L620.273368,720.71307 C620.356701,720.746403 620.565035,720.796403 620.898368,720.86307 C621.231701,720.929737 621.665035,720.96307 622.198368,720.96307 Z M638.148368,715.98807 C638.981701,715.98807 639.756701,715.87557 640.473368,715.65057 C641.190035,715.42557 641.790035,715.06307 642.273368,714.56307 C642.573368,714.246403 642.815035,713.87557 642.998368,713.45057 C643.181701,713.02557 643.273368,712.53807 643.273368,711.98807 C643.273368,711.03807 642.960868,710.254737 642.335868,709.63807 C641.710868,709.021403 640.948368,708.63807 640.048368,708.48807 C639.365035,708.371403 638.773368,708.283903 638.273368,708.22557 C637.773368,708.167237 637.348368,708.11307 636.998368,708.06307 C636.465035,707.979737 636.048368,707.817237 635.748368,707.57557 C635.448368,707.333903 635.298368,706.946403 635.298368,706.41307 C635.298368,706.06307 635.410868,705.733903 635.635868,705.42557 C635.860868,705.117237 636.173368,704.879737 636.573368,704.71307 C636.873368,704.579737 637.131701,704.504737 637.348368,704.48807 C637.565035,704.471403 637.798368,704.46307 638.048368,704.46307 C638.931701,704.46307 639.623368,704.68807 640.123368,705.13807 C640.306701,705.304737 640.469201,705.52557 640.610868,705.80057 C640.752535,706.07557 640.831701,706.379737 640.848368,706.71307 L642.973368,706.71307 C642.973368,706.196403 642.894201,705.746403 642.735868,705.36307 C642.577535,704.979737 642.356701,704.621403 642.073368,704.28807 C641.640035,703.754737 641.073368,703.354737 640.373368,703.08807 C639.673368,702.821403 638.898368,702.68807 638.048368,702.68807 C637.248368,702.68807 636.531701,702.81307 635.898368,703.06307 C635.265035,703.31307 634.740035,703.654737 634.323368,704.08807 C634.040035,704.371403 633.794201,704.733903 633.585868,705.17557 C633.377535,705.617237 633.273368,706.079737 633.273368,706.56307 C633.273368,707.529737 633.552535,708.30057 634.110868,708.87557 C634.669201,709.45057 635.423368,709.81307 636.373368,709.96307 C636.590035,709.996403 636.835868,710.029737 637.110868,710.06307 C637.385868,710.096403 637.656701,710.129737 637.923368,710.16307 C638.190035,710.196403 638.440035,710.229737 638.673368,710.26307 C638.906701,710.296403 639.090035,710.321403 639.223368,710.33807 C639.873368,710.421403 640.365035,710.621403 640.698368,710.93807 C641.031701,711.254737 641.198368,711.654737 641.198368,712.13807 C641.198368,712.421403 641.140035,712.68807 641.023368,712.93807 C640.906701,713.18807 640.756701,713.379737 640.573368,713.51307 C640.240035,713.796403 639.877535,713.983903 639.485868,714.07557 C639.094201,714.167237 638.681701,714.21307 638.248368,714.21307 C637.848368,714.21307 637.440035,714.171403 637.023368,714.08807 C636.606701,714.004737 636.256701,713.854737 635.973368,713.63807 C635.673368,713.404737 635.431701,713.12557 635.248368,712.80057 C635.065035,712.47557 634.965035,712.096403 634.948368,711.66307 L632.823368,711.66307 C632.823368,712.196403 632.931701,712.717237 633.148368,713.22557 C633.365035,713.733903 633.665035,714.179737 634.048368,714.56307 C634.581701,715.096403 635.198368,715.467237 635.898368,715.67557 C636.598368,715.883903 637.348368,715.98807 638.148368,715.98807 Z" id="Hotspots&amp;Gateways" fill="#29D391" fill-rule="nonzero"></path>
                    <path d="M1303.02158,423.712628 L1303.02158,409.462628 L1311.72158,423.712628 L1314.22158,423.712628 L1314.22158,405.987628 L1312.07158,405.987628 L1312.07158,420.287628 L1303.37158,405.987628 L1300.87158,405.987628 L1300.87158,423.712628 L1303.02158,423.712628 Z M1323.82158,424.037628 C1324.42158,424.037628 1324.99658,423.954295 1325.54658,423.787628 C1326.09658,423.620961 1326.59658,423.387628 1327.04658,423.087628 C1327.56325,422.737628 1327.99658,422.287628 1328.34658,421.737628 C1328.69658,421.187628 1328.91325,420.595961 1328.99658,419.962628 L1326.92158,419.962628 C1326.83825,420.295961 1326.73825,420.562628 1326.62158,420.762628 C1326.50491,420.962628 1326.35491,421.154295 1326.17158,421.337628 C1325.90491,421.620961 1325.57158,421.829295 1325.17158,421.962628 C1324.77158,422.095961 1324.32158,422.162628 1323.82158,422.162628 C1322.87158,422.162628 1322.09658,421.862628 1321.49658,421.262628 C1321.11325,420.879295 1320.81325,420.400128 1320.59658,419.825128 C1320.37991,419.250128 1320.27158,418.670961 1320.27158,418.087628 L1329.22158,418.087628 L1329.24658,416.812628 C1329.26325,415.962628 1329.12991,415.150128 1328.84658,414.375128 C1328.56325,413.600128 1328.16325,412.929295 1327.64658,412.362628 C1327.17991,411.862628 1326.62575,411.466795 1325.98408,411.175128 C1325.34241,410.883461 1324.61325,410.737628 1323.79658,410.737628 C1322.69658,410.737628 1321.73825,410.987628 1320.92158,411.487628 C1320.10491,411.987628 1319.47158,412.620961 1319.02158,413.387628 C1318.67158,413.970961 1318.42158,414.600128 1318.27158,415.275128 C1318.12158,415.950128 1318.04658,416.670961 1318.04658,417.437628 C1318.04658,418.337628 1318.17575,419.191795 1318.43408,420.000128 C1318.69241,420.808461 1319.08825,421.520961 1319.62158,422.137628 C1320.10491,422.720961 1320.70075,423.183461 1321.40908,423.525128 C1322.11741,423.866795 1322.92158,424.037628 1323.82158,424.037628 Z M1327.07158,416.262628 L1320.32158,416.262628 C1320.33825,415.795961 1320.42158,415.341795 1320.57158,414.900128 C1320.72158,414.458461 1320.93825,414.062628 1321.22158,413.712628 C1321.50491,413.362628 1321.86325,413.079295 1322.29658,412.862628 C1322.72991,412.645961 1323.22991,412.537628 1323.79658,412.537628 C1324.36325,412.537628 1324.85491,412.641795 1325.27158,412.850128 C1325.68825,413.058461 1326.02991,413.337628 1326.29658,413.687628 C1326.54658,414.020961 1326.73825,414.412628 1326.87158,414.862628 C1327.00491,415.312628 1327.07158,415.779295 1327.07158,416.262628 Z M1336.84658,423.887628 C1337.42991,423.887628 1337.92575,423.850128 1338.33408,423.775128 C1338.74241,423.700128 1339.08825,423.620961 1339.37158,423.537628 L1339.37158,421.712628 L1338.62158,421.812628 C1338.40491,421.845961 1338.17158,421.875128 1337.92158,421.900128 C1337.67158,421.925128 1337.42991,421.937628 1337.19658,421.937628 C1336.61325,421.937628 1336.18408,421.804295 1335.90908,421.537628 C1335.63408,421.270961 1335.49658,420.829295 1335.49658,420.212628 L1335.49658,412.887628 L1339.24658,412.887628 L1339.24658,411.062628 L1335.49658,411.062628 L1335.49658,407.337628 L1333.37158,407.837628 L1333.37158,411.062628 L1330.92158,411.062628 L1330.92158,412.887628 L1333.37158,412.887628 L1333.37158,420.462628 C1333.37158,420.879295 1333.42575,421.295961 1333.53408,421.712628 C1333.64241,422.129295 1333.82575,422.495961 1334.08408,422.812628 C1334.34241,423.129295 1334.69658,423.387628 1335.14658,423.587628 C1335.59658,423.787628 1336.16325,423.887628 1336.84658,423.887628 Z M1346.34658,423.712628 L1349.72158,414.037628 L1353.02158,423.712628 L1355.07158,423.712628 L1358.34658,411.062628 L1356.27158,411.062628 L1353.82158,420.612628 L1350.64658,411.212628 L1348.82158,411.212628 L1345.59658,420.612628 L1343.17158,411.062628 L1341.07158,411.062628 L1344.32158,423.712628 L1346.34658,423.712628 Z M1366.27158,424.037628 C1367.07158,424.037628 1367.79241,423.904295 1368.43408,423.637628 C1369.07575,423.370961 1369.62991,423.012628 1370.09658,422.562628 C1370.79658,421.879295 1371.27158,421.095961 1371.52158,420.212628 C1371.77158,419.329295 1371.89658,418.387628 1371.89658,417.387628 C1371.89658,416.387628 1371.77158,415.445961 1371.52158,414.562628 C1371.27158,413.679295 1370.79658,412.895961 1370.09658,412.212628 C1369.62991,411.762628 1369.07575,411.404295 1368.43408,411.137628 C1367.79241,410.870961 1367.07158,410.737628 1366.27158,410.737628 C1365.47158,410.737628 1364.75075,410.870961 1364.10908,411.137628 C1363.46741,411.404295 1362.91325,411.762628 1362.44658,412.212628 C1361.74658,412.895961 1361.27158,413.679295 1361.02158,414.562628 C1360.77158,415.445961 1360.64658,416.387628 1360.64658,417.387628 C1360.64658,418.387628 1360.77158,419.329295 1361.02158,420.212628 C1361.27158,421.095961 1361.74658,421.879295 1362.44658,422.562628 C1362.91325,423.012628 1363.46741,423.370961 1364.10908,423.637628 C1364.75075,423.904295 1365.47158,424.037628 1366.27158,424.037628 Z M1366.27158,422.212628 C1365.77158,422.212628 1365.33408,422.129295 1364.95908,421.962628 C1364.58408,421.795961 1364.26325,421.579295 1363.99658,421.312628 C1363.54658,420.845961 1363.23825,420.262628 1363.07158,419.562628 C1362.90491,418.862628 1362.82158,418.137628 1362.82158,417.387628 C1362.82158,416.637628 1362.90491,415.912628 1363.07158,415.212628 C1363.23825,414.512628 1363.54658,413.929295 1363.99658,413.462628 C1364.26325,413.195961 1364.58408,412.979295 1364.95908,412.812628 C1365.33408,412.645961 1365.77158,412.562628 1366.27158,412.562628 C1366.77158,412.562628 1367.20908,412.645961 1367.58408,412.812628 C1367.95908,412.979295 1368.27991,413.195961 1368.54658,413.462628 C1368.99658,413.929295 1369.30491,414.512628 1369.47158,415.212628 C1369.63825,415.912628 1369.72158,416.637628 1369.72158,417.387628 C1369.72158,418.137628 1369.63825,418.862628 1369.47158,419.562628 C1369.30491,420.262628 1368.99658,420.845961 1368.54658,421.312628 C1368.27991,421.579295 1367.95908,421.795961 1367.58408,421.962628 C1367.20908,422.129295 1366.77158,422.212628 1366.27158,422.212628 Z M1377.67158,423.712628 L1377.67158,418.087628 C1377.67158,417.754295 1377.68408,417.400128 1377.70908,417.025128 C1377.73408,416.650128 1377.78408,416.283461 1377.85908,415.925128 C1377.93408,415.566795 1378.05075,415.225128 1378.20908,414.900128 C1378.36741,414.575128 1378.57158,414.287628 1378.82158,414.037628 C1379.10491,413.754295 1379.45075,413.516795 1379.85908,413.325128 C1380.26741,413.133461 1380.72158,413.037628 1381.22158,413.037628 C1381.40491,413.037628 1381.60075,413.045961 1381.80908,413.062628 C1382.01741,413.079295 1382.21325,413.104295 1382.39658,413.137628 L1382.39658,411.062628 C1382.07991,411.012628 1381.74658,410.987628 1381.39658,410.987628 C1380.59658,410.987628 1379.85075,411.175128 1379.15908,411.550128 C1378.46741,411.925128 1377.95491,412.504295 1377.62158,413.287628 L1377.44658,411.062628 L1375.57158,411.062628 L1375.57158,423.712628 L1377.67158,423.712628 Z M1387.29658,423.712628 L1387.29658,420.312628 L1389.72158,417.612628 L1393.67158,423.712628 L1396.07158,423.712628 L1391.09658,416.062628 L1395.59658,411.062628 L1393.02158,411.062628 L1387.29658,417.437628 L1387.29658,405.662628 L1385.17158,405.662628 L1385.17158,423.712628 L1387.29658,423.712628 Z M1316.62158,452.037628 C1317.57158,452.037628 1318.49241,451.891795 1319.38408,451.600128 C1320.27575,451.308461 1321.02991,450.862628 1321.64658,450.262628 C1322.07991,449.829295 1322.43825,449.337628 1322.72158,448.787628 C1323.00491,448.237628 1323.14658,447.587628 1323.14658,446.837628 C1323.14658,445.420961 1322.69658,444.283461 1321.79658,443.425128 C1320.89658,442.566795 1319.70491,442.029295 1318.22158,441.812628 C1317.73825,441.729295 1317.25075,441.650128 1316.75908,441.575128 C1316.26741,441.500128 1315.77158,441.429295 1315.27158,441.362628 C1314.93825,441.312628 1314.61325,441.229295 1314.29658,441.112628 C1313.97991,440.995961 1313.69658,440.837628 1313.44658,440.637628 C1313.19658,440.437628 1312.99658,440.191795 1312.84658,439.900128 C1312.69658,439.608461 1312.62158,439.262628 1312.62158,438.862628 C1312.62158,438.462628 1312.68408,438.108461 1312.80908,437.800128 C1312.93408,437.491795 1313.11325,437.204295 1313.34658,436.937628 C1313.72991,436.504295 1314.19241,436.191795 1314.73408,436.000128 C1315.27575,435.808461 1315.86325,435.712628 1316.49658,435.712628 C1317.19658,435.712628 1317.80908,435.820961 1318.33408,436.037628 C1318.85908,436.254295 1319.28825,436.554295 1319.62158,436.937628 C1319.87158,437.220961 1320.07158,437.554295 1320.22158,437.937628 C1320.37158,438.320961 1320.46325,438.729295 1320.49658,439.162628 L1322.82158,439.162628 C1322.77158,437.662628 1322.20491,436.395961 1321.12158,435.362628 C1320.53825,434.795961 1319.84241,434.370961 1319.03408,434.087628 C1318.22575,433.804295 1317.38825,433.662628 1316.52158,433.662628 C1314.67158,433.662628 1313.12158,434.245961 1311.87158,435.412628 C1311.38825,435.862628 1311.00908,436.391795 1310.73408,437.000128 C1310.45908,437.608461 1310.32158,438.245961 1310.32158,438.912628 C1310.32158,439.612628 1310.44241,440.233461 1310.68408,440.775128 C1310.92575,441.316795 1311.25908,441.783461 1311.68408,442.175128 C1312.10908,442.566795 1312.60908,442.879295 1313.18408,443.112628 C1313.75908,443.345961 1314.37991,443.512628 1315.04658,443.612628 C1315.52991,443.695961 1315.99658,443.766795 1316.44658,443.825128 C1316.89658,443.883461 1317.36325,443.954295 1317.84658,444.037628 C1318.89658,444.204295 1319.65491,444.545961 1320.12158,445.062628 C1320.58825,445.579295 1320.82158,446.187628 1320.82158,446.887628 C1320.82158,447.370961 1320.74241,447.775128 1320.58408,448.100128 C1320.42575,448.425128 1320.20491,448.712628 1319.92158,448.962628 C1319.52158,449.345961 1319.04241,449.612628 1318.48408,449.762628 C1317.92575,449.912628 1317.30491,449.987628 1316.62158,449.987628 C1315.98825,449.987628 1315.36325,449.900128 1314.74658,449.725128 C1314.12991,449.550128 1313.62158,449.270961 1313.22158,448.887628 C1312.85491,448.537628 1312.55491,448.116795 1312.32158,447.625128 C1312.08825,447.133461 1311.97158,446.620961 1311.97158,446.087628 L1309.64658,446.087628 C1309.64658,446.937628 1309.82158,447.725128 1310.17158,448.450128 C1310.52158,449.175128 1310.97991,449.804295 1311.54658,450.337628 C1312.77991,451.470961 1314.47158,452.037628 1316.62158,452.037628 Z M1331.49658,452.037628 C1332.09658,452.037628 1332.67158,451.954295 1333.22158,451.787628 C1333.77158,451.620961 1334.27158,451.387628 1334.72158,451.087628 C1335.23825,450.737628 1335.67158,450.287628 1336.02158,449.737628 C1336.37158,449.187628 1336.58825,448.595961 1336.67158,447.962628 L1334.59658,447.962628 C1334.51325,448.295961 1334.41325,448.562628 1334.29658,448.762628 C1334.17991,448.962628 1334.02991,449.154295 1333.84658,449.337628 C1333.57991,449.620961 1333.24658,449.829295 1332.84658,449.962628 C1332.44658,450.095961 1331.99658,450.162628 1331.49658,450.162628 C1330.54658,450.162628 1329.77158,449.862628 1329.17158,449.262628 C1328.78825,448.879295 1328.48825,448.400128 1328.27158,447.825128 C1328.05491,447.250128 1327.94658,446.670961 1327.94658,446.087628 L1336.89658,446.087628 L1336.92158,444.812628 C1336.93825,443.962628 1336.80491,443.150128 1336.52158,442.375128 C1336.23825,441.600128 1335.83825,440.929295 1335.32158,440.362628 C1334.85491,439.862628 1334.30075,439.466795 1333.65908,439.175128 C1333.01741,438.883461 1332.28825,438.737628 1331.47158,438.737628 C1330.37158,438.737628 1329.41325,438.987628 1328.59658,439.487628 C1327.77991,439.987628 1327.14658,440.620961 1326.69658,441.387628 C1326.34658,441.970961 1326.09658,442.600128 1325.94658,443.275128 C1325.79658,443.950128 1325.72158,444.670961 1325.72158,445.437628 C1325.72158,446.337628 1325.85075,447.191795 1326.10908,448.000128 C1326.36741,448.808461 1326.76325,449.520961 1327.29658,450.137628 C1327.77991,450.720961 1328.37575,451.183461 1329.08408,451.525128 C1329.79241,451.866795 1330.59658,452.037628 1331.49658,452.037628 Z M1334.74658,444.262628 L1327.99658,444.262628 C1328.01325,443.795961 1328.09658,443.341795 1328.24658,442.900128 C1328.39658,442.458461 1328.61325,442.062628 1328.89658,441.712628 C1329.17991,441.362628 1329.53825,441.079295 1329.97158,440.862628 C1330.40491,440.645961 1330.90491,440.537628 1331.47158,440.537628 C1332.03825,440.537628 1332.52991,440.641795 1332.94658,440.850128 C1333.36325,441.058461 1333.70491,441.337628 1333.97158,441.687628 C1334.22158,442.020961 1334.41325,442.412628 1334.54658,442.862628 C1334.67991,443.312628 1334.74658,443.779295 1334.74658,444.262628 Z M1342.59658,451.712628 L1342.59658,446.087628 C1342.59658,445.754295 1342.60908,445.400128 1342.63408,445.025128 C1342.65908,444.650128 1342.70908,444.283461 1342.78408,443.925128 C1342.85908,443.566795 1342.97575,443.225128 1343.13408,442.900128 C1343.29241,442.575128 1343.49658,442.287628 1343.74658,442.037628 C1344.02991,441.754295 1344.37575,441.516795 1344.78408,441.325128 C1345.19241,441.133461 1345.64658,441.037628 1346.14658,441.037628 C1346.32991,441.037628 1346.52575,441.045961 1346.73408,441.062628 C1346.94241,441.079295 1347.13825,441.104295 1347.32158,441.137628 L1347.32158,439.062628 C1347.00491,439.012628 1346.67158,438.987628 1346.32158,438.987628 C1345.52158,438.987628 1344.77575,439.175128 1344.08408,439.550128 C1343.39241,439.925128 1342.87991,440.504295 1342.54658,441.287628 L1342.37158,439.062628 L1340.49658,439.062628 L1340.49658,451.712628 L1342.59658,451.712628 Z M1355.04658,451.712628 L1359.62158,439.062628 L1357.47158,439.062628 L1353.94658,449.212628 L1350.29658,439.062628 L1348.07158,439.062628 L1352.74658,451.712628 L1355.04658,451.712628 Z M1367.02158,452.037628 C1367.62158,452.037628 1368.19658,451.954295 1368.74658,451.787628 C1369.29658,451.620961 1369.79658,451.387628 1370.24658,451.087628 C1370.76325,450.737628 1371.19658,450.287628 1371.54658,449.737628 C1371.89658,449.187628 1372.11325,448.595961 1372.19658,447.962628 L1370.12158,447.962628 C1370.03825,448.295961 1369.93825,448.562628 1369.82158,448.762628 C1369.70491,448.962628 1369.55491,449.154295 1369.37158,449.337628 C1369.10491,449.620961 1368.77158,449.829295 1368.37158,449.962628 C1367.97158,450.095961 1367.52158,450.162628 1367.02158,450.162628 C1366.07158,450.162628 1365.29658,449.862628 1364.69658,449.262628 C1364.31325,448.879295 1364.01325,448.400128 1363.79658,447.825128 C1363.57991,447.250128 1363.47158,446.670961 1363.47158,446.087628 L1372.42158,446.087628 L1372.44658,444.812628 C1372.46325,443.962628 1372.32991,443.150128 1372.04658,442.375128 C1371.76325,441.600128 1371.36325,440.929295 1370.84658,440.362628 C1370.37991,439.862628 1369.82575,439.466795 1369.18408,439.175128 C1368.54241,438.883461 1367.81325,438.737628 1366.99658,438.737628 C1365.89658,438.737628 1364.93825,438.987628 1364.12158,439.487628 C1363.30491,439.987628 1362.67158,440.620961 1362.22158,441.387628 C1361.87158,441.970961 1361.62158,442.600128 1361.47158,443.275128 C1361.32158,443.950128 1361.24658,444.670961 1361.24658,445.437628 C1361.24658,446.337628 1361.37575,447.191795 1361.63408,448.000128 C1361.89241,448.808461 1362.28825,449.520961 1362.82158,450.137628 C1363.30491,450.720961 1363.90075,451.183461 1364.60908,451.525128 C1365.31741,451.866795 1366.12158,452.037628 1367.02158,452.037628 Z M1370.27158,444.262628 L1363.52158,444.262628 C1363.53825,443.795961 1363.62158,443.341795 1363.77158,442.900128 C1363.92158,442.458461 1364.13825,442.062628 1364.42158,441.712628 C1364.70491,441.362628 1365.06325,441.079295 1365.49658,440.862628 C1365.92991,440.645961 1366.42991,440.537628 1366.99658,440.537628 C1367.56325,440.537628 1368.05491,440.641795 1368.47158,440.850128 C1368.88825,441.058461 1369.22991,441.337628 1369.49658,441.687628 C1369.74658,442.020961 1369.93825,442.412628 1370.07158,442.862628 C1370.20491,443.312628 1370.27158,443.779295 1370.27158,444.262628 Z M1378.12158,451.712628 L1378.12158,446.087628 C1378.12158,445.754295 1378.13408,445.400128 1378.15908,445.025128 C1378.18408,444.650128 1378.23408,444.283461 1378.30908,443.925128 C1378.38408,443.566795 1378.50075,443.225128 1378.65908,442.900128 C1378.81741,442.575128 1379.02158,442.287628 1379.27158,442.037628 C1379.55491,441.754295 1379.90075,441.516795 1380.30908,441.325128 C1380.71741,441.133461 1381.17158,441.037628 1381.67158,441.037628 C1381.85491,441.037628 1382.05075,441.045961 1382.25908,441.062628 C1382.46741,441.079295 1382.66325,441.104295 1382.84658,441.137628 L1382.84658,439.062628 C1382.52991,439.012628 1382.19658,438.987628 1381.84658,438.987628 C1381.04658,438.987628 1380.30075,439.175128 1379.60908,439.550128 C1378.91741,439.925128 1378.40491,440.504295 1378.07158,441.287628 L1377.89658,439.062628 L1376.02158,439.062628 L1376.02158,451.712628 L1378.12158,451.712628 Z" id="NetworkServers" fill="#BE73FF" fill-rule="nonzero"></path>
                    <path d="M248.97628,290.581535 L248.97628,288.506535 L240.45128,288.506535 L240.45128,272.856535 L238.22628,272.856535 L238.22628,290.581535 L248.97628,290.581535 Z M256.30128,290.906535 C257.10128,290.906535 257.822114,290.773202 258.46378,290.506535 C259.105447,290.239868 259.659614,289.881535 260.12628,289.431535 C260.82628,288.748202 261.30128,287.964868 261.55128,287.081535 C261.80128,286.198202 261.92628,285.256535 261.92628,284.256535 C261.92628,283.256535 261.80128,282.314868 261.55128,281.431535 C261.30128,280.548202 260.82628,279.764868 260.12628,279.081535 C259.659614,278.631535 259.105447,278.273202 258.46378,278.006535 C257.822114,277.739868 257.10128,277.606535 256.30128,277.606535 C255.50128,277.606535 254.780447,277.739868 254.13878,278.006535 C253.497114,278.273202 252.942947,278.631535 252.47628,279.081535 C251.77628,279.764868 251.30128,280.548202 251.05128,281.431535 C250.80128,282.314868 250.67628,283.256535 250.67628,284.256535 C250.67628,285.256535 250.80128,286.198202 251.05128,287.081535 C251.30128,287.964868 251.77628,288.748202 252.47628,289.431535 C252.942947,289.881535 253.497114,290.239868 254.13878,290.506535 C254.780447,290.773202 255.50128,290.906535 256.30128,290.906535 Z M256.30128,289.081535 C255.80128,289.081535 255.36378,288.998202 254.98878,288.831535 C254.61378,288.664868 254.292947,288.448202 254.02628,288.181535 C253.57628,287.714868 253.267947,287.131535 253.10128,286.431535 C252.934614,285.731535 252.85128,285.006535 252.85128,284.256535 C252.85128,283.506535 252.934614,282.781535 253.10128,282.081535 C253.267947,281.381535 253.57628,280.798202 254.02628,280.331535 C254.292947,280.064868 254.61378,279.848202 254.98878,279.681535 C255.36378,279.514868 255.80128,279.431535 256.30128,279.431535 C256.80128,279.431535 257.23878,279.514868 257.61378,279.681535 C257.98878,279.848202 258.309614,280.064868 258.57628,280.331535 C259.02628,280.798202 259.334614,281.381535 259.50128,282.081535 C259.667947,282.781535 259.75128,283.506535 259.75128,284.256535 C259.75128,285.006535 259.667947,285.731535 259.50128,286.431535 C259.334614,287.131535 259.02628,287.714868 258.57628,288.181535 C258.309614,288.448202 257.98878,288.664868 257.61378,288.831535 C257.23878,288.998202 256.80128,289.081535 256.30128,289.081535 Z M268.00128,290.581535 L268.00128,283.206535 L272.90128,283.206535 L276.25128,290.581535 L278.70128,290.581535 L275.15128,282.781535 C275.584614,282.648202 275.980447,282.477368 276.33878,282.269035 C276.697114,282.060702 277.009614,281.814868 277.27628,281.531535 C277.709614,281.081535 278.042947,280.581535 278.27628,280.031535 C278.509614,279.481535 278.62628,278.814868 278.62628,278.031535 C278.62628,277.248202 278.50128,276.564868 278.25128,275.981535 C278.00128,275.398202 277.659614,274.881535 277.22628,274.431535 C276.742947,273.931535 276.134614,273.544035 275.40128,273.269035 C274.667947,272.994035 273.77628,272.856535 272.72628,272.856535 L265.77628,272.856535 L265.77628,290.581535 L268.00128,290.581535 Z M272.72628,281.131535 L268.00128,281.131535 L268.00128,274.906535 L272.72628,274.906535 C273.259614,274.906535 273.742947,274.964868 274.17628,275.081535 C274.609614,275.198202 274.98878,275.381535 275.31378,275.631535 C275.63878,275.881535 275.88878,276.202368 276.06378,276.594035 C276.23878,276.985702 276.32628,277.464868 276.32628,278.031535 C276.32628,279.148202 275.98878,279.944035 275.31378,280.419035 C274.63878,280.894035 273.77628,281.131535 272.72628,281.131535 Z M285.40128,290.906535 C286.30128,290.906535 287.11378,290.719035 287.83878,290.344035 C288.56378,289.969035 289.109614,289.464868 289.47628,288.831535 L289.52628,288.831535 C289.52628,289.364868 289.68878,289.819035 290.01378,290.194035 C290.33878,290.569035 290.784614,290.756535 291.35128,290.756535 C291.617947,290.756535 291.859614,290.735702 292.07628,290.694035 C292.292947,290.652368 292.517947,290.573202 292.75128,290.456535 L292.75128,288.881535 C292.684614,288.881535 292.617947,288.889868 292.55128,288.906535 C292.417947,288.939868 292.30128,288.956535 292.20128,288.956535 C291.984614,288.956535 291.81378,288.898202 291.68878,288.781535 C291.56378,288.664868 291.50128,288.439868 291.50128,288.106535 L291.50128,281.981535 C291.50128,281.248202 291.37628,280.598202 291.12628,280.031535 C290.82628,279.331535 290.317947,278.752368 289.60128,278.294035 C288.884614,277.835702 287.909614,277.606535 286.67628,277.606535 C285.892947,277.606535 285.155447,277.719035 284.46378,277.944035 C283.772114,278.169035 283.209614,278.506535 282.77628,278.956535 C282.442947,279.289868 282.180447,279.669035 281.98878,280.094035 C281.797114,280.519035 281.692947,281.023202 281.67628,281.606535 L283.75128,281.606535 C283.75128,281.006535 283.959614,280.498202 284.37628,280.081535 C284.592947,279.864868 284.884614,279.685702 285.25128,279.544035 C285.617947,279.402368 286.092947,279.331535 286.67628,279.331535 C287.192947,279.331535 287.61378,279.389868 287.93878,279.506535 C288.26378,279.623202 288.534614,279.781535 288.75128,279.981535 C289.034614,280.248202 289.21378,280.556535 289.28878,280.906535 C289.36378,281.256535 289.40128,281.589868 289.40128,281.906535 L289.40128,282.831535 L285.55128,283.056535 C284.684614,283.106535 283.96378,283.264868 283.38878,283.531535 C282.81378,283.798202 282.35128,284.119035 282.00128,284.494035 C281.65128,284.869035 281.405447,285.281535 281.26378,285.731535 C281.122114,286.181535 281.05128,286.606535 281.05128,287.006535 C281.05128,287.489868 281.142947,287.964868 281.32628,288.431535 C281.509614,288.898202 281.780447,289.314868 282.13878,289.681535 C282.497114,290.048202 282.95128,290.344035 283.50128,290.569035 C284.05128,290.794035 284.684614,290.906535 285.40128,290.906535 Z M285.72628,289.131535 C284.82628,289.131535 284.184614,288.910702 283.80128,288.469035 C283.417947,288.027368 283.22628,287.523202 283.22628,286.956535 C283.22628,286.556535 283.309614,286.214868 283.47628,285.931535 C283.642947,285.648202 283.859614,285.419035 284.12628,285.244035 C284.392947,285.069035 284.692947,284.935702 285.02628,284.844035 C285.359614,284.752368 285.684614,284.698202 286.00128,284.681535 L289.40128,284.481535 L289.40128,285.231535 C289.40128,285.764868 289.317947,286.281535 289.15128,286.781535 C288.984614,287.281535 288.709614,287.723202 288.32628,288.106535 C287.992947,288.456535 287.597114,288.714868 287.13878,288.881535 C286.680447,289.048202 286.209614,289.131535 285.72628,289.131535 Z M304.27628,290.581535 L304.27628,283.206535 L309.17628,283.206535 L312.52628,290.581535 L314.97628,290.581535 L311.42628,282.781535 C311.859614,282.648202 312.255447,282.477368 312.61378,282.269035 C312.972114,282.060702 313.284614,281.814868 313.55128,281.531535 C313.984614,281.081535 314.317947,280.581535 314.55128,280.031535 C314.784614,279.481535 314.90128,278.814868 314.90128,278.031535 C314.90128,277.248202 314.77628,276.564868 314.52628,275.981535 C314.27628,275.398202 313.934614,274.881535 313.50128,274.431535 C313.017947,273.931535 312.409614,273.544035 311.67628,273.269035 C310.942947,272.994035 310.05128,272.856535 309.00128,272.856535 L302.05128,272.856535 L302.05128,290.581535 L304.27628,290.581535 Z M309.00128,281.131535 L304.27628,281.131535 L304.27628,274.906535 L309.00128,274.906535 C309.534614,274.906535 310.017947,274.964868 310.45128,275.081535 C310.884614,275.198202 311.26378,275.381535 311.58878,275.631535 C311.91378,275.881535 312.16378,276.202368 312.33878,276.594035 C312.51378,276.985702 312.60128,277.464868 312.60128,278.031535 C312.60128,279.148202 312.26378,279.944035 311.58878,280.419035 C310.91378,280.894035 310.05128,281.131535 309.00128,281.131535 Z M320.82628,290.581535 L320.82628,282.781535 L329.07628,282.781535 L329.07628,280.681535 L320.82628,280.681535 L320.82628,274.906535 L330.07628,274.906535 L330.07628,272.856535 L318.60128,272.856535 L318.60128,290.581535 L320.82628,290.581535 Z" id="LoRaRF" fill="#FFC769" fill-rule="nonzero"></path>
                    <path id="Line-6" d="M444.597619,307.66307 C447.082901,307.66307 449.097619,309.677789 449.097619,312.16307 C449.097619,314.648351 447.082901,316.66307 444.597619,316.66307 C442.281585,316.66307 440.374206,314.913412 440.125162,312.663777 L126.377399,312.663777 C126.128355,314.913412 124.220976,316.66307 121.904942,316.66307 C119.41966,316.66307 117.404942,314.648351 117.404942,312.16307 C117.404942,309.677789 119.41966,307.66307 121.904942,307.66307 C124.22132,307.66307 126.128923,309.413249 126.37751,311.663367 L440.125051,311.663367 C440.373638,309.413249 442.281241,307.66307 444.597619,307.66307 Z" fill="#7C7EBB" fill-rule="nonzero"></path>
                </g>
            </g>
        </g>
    </g>
</svg>