<?xml version="1.0" encoding="UTF-8"?>
<svg width="1400px" height="632px" viewBox="0 0 1400 632" version="1.1" xmlns="http://www.w3.org/2000/svg" xmlns:xlink="http://www.w3.org/1999/xlink">
    <!-- Generator: Sketch 63.1 (92452) - https://sketch.com -->
    <title>Group 5</title>
    <desc>Created with Sketch.</desc>
    <defs>
        <rect id="path-1" x="41.3964609" y="543.16307" width="35.143849" height="35" rx="17.5"></rect>
        <mask id="mask-2" maskContentUnits="userSpaceOnUse" maskUnits="objectBoundingBox" x="0" y="0" width="35.143849" height="35" fill="white">
            <use xlink:href="#path-1"></use>
        </mask>
    </defs>
    <g id="Page-2" stroke="none" stroke-width="1" fill="none" fill-rule="evenodd">
        <g id="Artboard" transform="translate(-207.000000, -1434.000000)">
            <g id="Group-5" transform="translate(178.000000, 1435.000000)">
                <g id="Group-4-Copy">
                    <g id="Group-3" transform="translate(593.010868, 314.081535) rotate(-90.000000) translate(-593.010868, -314.081535) translate(525.010868, 240.581535)" stroke="#FFFFFF">
                        <g id="Group-2" transform="translate(88.274728, 73.500000) rotate(90.000000) translate(-88.274728, -73.500000) translate(44.774728, 26.000000)" stroke-width="2">
                            <path d="M6,0.692677706 C9.3137085,0.692677706 12,3.37896921 12,6.69267771 L12,94.6926777 L12,94.6926777 L0,94.6926777 L0,6.69267771 C-4.05812251e-16,3.37896921 2.6862915,0.692677706 6,0.692677706 Z" id="Rectangle-Copy-42"></path>
                            <path d="M81,0.692677706 C84.3137085,0.692677706 87,3.37896921 87,6.69267771 L87,94.6926777 L87,94.6926777 L75,94.6926777 L75,6.69267771 C75,3.37896921 77.6862915,0.692677706 81,0.692677706 Z" id="Rectangle-Copy-43"></path>
                        </g>
                        <path d="M68,67.8426699 L68,74.7252716 C68,77.4866953 65.7614237,79.7252716 63,79.7252716 L-50,79.7252716 C-52.7614237,79.7252716 -55,77.4866953 -55,74.7252716 L-55,67.2747284" id="Path" stroke-width="2" transform="translate(6.500000, 73.500000) rotate(90.000000) translate(-6.500000, -73.500000) "></path>
                        <rect id="Rectangle-Copy-7" stroke-width="3" transform="translate(26.967406, 73.500000) rotate(90.000000) translate(-26.967406, -73.500000) " x="-48.0325939" y="59" width="150" height="29" rx="5"></rect>
                    </g>
                    <g id="Group-3-Copy" transform="translate(593.010868, 58.000000) rotate(-90.000000) translate(-593.010868, -58.000000) translate(535.010868, 2.500000)" stroke="#FFFFFF">
                        <g id="Group-2" transform="translate(90.774728, 83.489132) rotate(90.000000) translate(-90.774728, -83.489132) translate(84.774728, 58.489132)" stroke-width="2">
                            <path d="M6,0.364567213 C9.3137085,0.364567213 12,3.05085871 12,6.36456721 L12,49.8382514 L12,49.8382514 L0,49.8382514 L0,6.36456721 C-1.29399067e-15,3.05085871 2.6862915,0.364567213 6,0.364567213 Z" id="Rectangle-Copy-43"></path>
                        </g>
                        <rect id="Rectangle-Copy-7" stroke-width="3" transform="translate(36.967406, 55.500000) rotate(90.000000) translate(-36.967406, -55.500000) " x="-18.0325939" y="27.5" width="110" height="56" rx="5"></rect>
                        <path d="M-39.2429835,51.2896104 L48.7570165,51.2896104 L48.7570165,56.7103896 C48.7570165,58.3672439 47.4138708,59.7103896 45.7570165,59.7103896 L-36.2429835,59.7103896 C-37.8998377,59.7103896 -39.2429835,58.3672439 -39.2429835,56.7103896 L-39.2429835,51.2896104 L-39.2429835,51.2896104 Z" id="Rectangle-Copy-8" stroke-width="3" transform="translate(4.757017, 55.500000) rotate(90.000000) translate(-4.757017, -55.500000) "></path>
                    </g>
                    <g id="Group" transform="translate(593.010868, 554.663070) rotate(-90.000000) translate(-593.010868, -554.663070) translate(512.510868, 466.663070)" stroke="#FFFFFF">
                        <g id="Group-9" transform="translate(80.692678, 88.000000) rotate(90.000000) translate(-80.692678, -88.000000) translate(-6.807322, 28.500000)">
                            <path d="M159,1 L16,1 C11.8578644,1 8.10786438,2.67893219 5.39339828,5.39339828 C2.67893219,8.10786438 1,11.8578644 1,16 L1,34 C1,38.1421356 2.67893219,41.8921356 5.39339828,44.6066017 C8.10786438,47.3210678 11.8578644,49 16,49 L159,49 C163.142136,49 166.892136,47.3210678 169.606602,44.6066017 C172.321068,41.8921356 174,38.1421356 174,34 L174,16 C174,11.8578644 172.321068,8.10786438 169.606602,5.39339828 C166.892136,2.67893219 163.142136,1 159,1 Z" id="Rectangle" stroke-width="2"></path>
                            <path d="M159,69.8073223 L16,69.8073223 C11.8578644,69.8073223 8.10786438,71.4862545 5.39339828,74.2007206 C2.67893219,76.9151867 1,80.6651867 1,84.8073223 L1,102.807322 C1,106.949458 2.67893219,110.699458 5.39339828,113.413924 C8.10786438,116.12839 11.8578644,117.807322 16,117.807322 L159,117.807322 C163.142136,117.807322 166.892136,116.12839 169.606602,113.413924 C172.321068,110.699458 174,106.949458 174,102.807322 L174,84.8073223 C174,80.6651867 172.321068,76.9151867 169.606602,74.2007206 C166.892136,71.4862545 163.142136,69.8073223 159,69.8073223 Z" id="Rectangle-Copy-45" stroke-width="2"></path>
                            <path d="M12.25,11 C11.0763949,11 10.0138949,11.4756975 9.24479618,12.2447962 C8.47569745,13.0138949 8,14.0763949 8,15.25 L8,34.75 C8,35.9236051 8.47569745,36.9861051 9.24479618,37.7552038 C10.0138949,38.5243025 11.0763949,39 12.25,39 C13.4236051,39 14.4861051,38.5243025 15.2552038,37.7552038 C16.0243025,36.9861051 16.5,35.9236051 16.5,34.75 L16.5,15.25 C16.5,14.0763949 16.0243025,13.0138949 15.2552038,12.2447962 C14.4861051,11.4756975 13.4236051,11 12.25,11 Z" id="Rectangle"></path>
                            <path d="M12.25,79.8073223 C11.0763949,79.8073223 10.0138949,80.2830197 9.24479618,81.0521185 C8.47569745,81.8212172 8,82.8837172 8,84.0573223 L8,103.557322 C8,104.730927 8.47569745,105.793427 9.24479618,106.562526 C10.0138949,107.331625 11.0763949,107.807322 12.25,107.807322 C13.4236051,107.807322 14.4861051,107.331625 15.2552038,106.562526 C16.0243025,105.793427 16.5,104.730927 16.5,103.557322 L16.5,84.0573223 C16.5,82.8837172 16.0243025,81.8212172 15.2552038,81.0521185 C14.4861051,80.2830197 13.4236051,79.8073223 12.25,79.8073223 Z" id="Rectangle-Copy-46"></path>
                            <path d="M162.75,11 C161.576395,11 160.513895,11.4756975 159.744796,12.2447962 C158.975697,13.0138949 158.5,14.0763949 158.5,15.25 L158.5,34.75 C158.5,35.9236051 158.975697,36.9861051 159.744796,37.7552038 C160.513895,38.5243025 161.576395,39 162.75,39 C163.923605,39 164.986105,38.5243025 165.755204,37.7552038 C166.524303,36.9861051 167,35.9236051 167,34.75 L167,15.25 C167,14.0763949 166.524303,13.0138949 165.755204,12.2447962 C164.986105,11.4756975 163.923605,11 162.75,11 Z" id="Rectangle-Copy-3"></path>
                            <path d="M162.75,79.8073223 C161.576395,79.8073223 160.513895,80.2830197 159.744796,81.0521185 C158.975697,81.8212172 158.5,82.8837172 158.5,84.0573223 L158.5,103.557322 C158.5,104.730927 158.975697,105.793427 159.744796,106.562526 C160.513895,107.331625 161.576395,107.807322 162.75,107.807322 C163.923605,107.807322 164.986105,107.331625 165.755204,106.562526 C166.524303,105.793427 167,104.730927 167,103.557322 L167,84.0573223 C167,82.8837172 166.524303,81.8212172 165.755204,81.0521185 C164.986105,80.2830197 163.923605,79.8073223 162.75,79.8073223 Z" id="Rectangle-Copy-47"></path>
                        </g>
                        <rect id="Rectangle" stroke-width="3" fill="#27284B" transform="translate(80.692678, 88.000000) rotate(90.000000) translate(-80.692678, -88.000000) " x="17.1926777" y="6.5" width="127" height="163" rx="17"></rect>
                        <rect id="Rectangle" stroke-width="2" transform="translate(46.000000, 88.000000) rotate(90.000000) translate(-46.000000, -88.000000) " x="-10" y="49" width="112" height="78" rx="13"></rect>
                    </g>
                    <path id="Line-5" d="M660.196268,272.068012 C662.681549,272.068012 664.696268,274.08273 664.696268,276.568012 C664.696268,278.884046 662.94661,280.791425 660.696975,281.040469 L660.696268,324.758128 C660.696268,337.607033 650.384334,348.047457 637.584883,348.25498 L637.196268,348.258128 L186.196268,348.258128 C173.347363,348.258128 162.90694,337.946194 162.699416,325.146744 L162.696268,324.758128 L162.695944,281.040511 C160.446125,280.791642 158.696268,278.884177 158.696268,276.568012 C158.696268,274.08273 160.710986,272.068012 163.196268,272.068012 C165.681549,272.068012 167.696268,274.08273 167.696268,276.568012 C167.696268,278.884046 165.94661,280.791425 163.696975,281.040469 L163.696268,324.758128 C163.696268,337.060271 173.569396,347.056421 185.824189,347.255114 L186.196268,347.258128 L637.196268,347.258128 C649.498411,347.258128 659.494561,337.385 659.693253,325.130207 L659.696268,324.758128 L659.695944,281.040511 C657.446125,280.791642 655.696268,278.884177 655.696268,276.568012 C655.696268,274.08273 657.710986,272.068012 660.196268,272.068012 Z" fill="#7C7EBB" fill-rule="nonzero"></path>
                    <path d="M73.537017,40.8256981 L44.5981222,40.8256981 C42.2873836,40.8256981 40.1954025,41.7623099 38.681106,43.2766064 C37.1668095,44.7909029 36.2301977,46.882884 36.2301977,49.1936226 L36.2301977,78.1325174 C36.2301977,80.443256 37.1668095,82.5352371 38.681106,84.0495336 C40.1954025,85.5638301 42.2873836,86.500442 44.5981222,86.500442 L73.537017,86.500442 C75.8477556,86.500442 77.9397367,85.5638301 79.4540332,84.0495336 C80.9683297,82.5352371 81.9049416,80.443256 81.9049416,78.1325174 L81.9049416,49.1936226 C81.9049416,46.882884 80.9683297,44.7909029 79.4540332,43.2766064 C77.9397367,41.7623099 75.8477556,40.8256981 73.537017,40.8256981 Z" id="Rectangle" stroke="#FFFFFF" stroke-width="3" transform="translate(59.067570, 63.663070) rotate(90.000000) translate(-59.067570, -63.663070) "></path>
                    <path d="M64.6185521,291.244163 L35.6796572,291.244163 C33.3689186,291.244163 31.2769375,292.180775 29.762641,293.695071 C28.2483445,295.209368 27.3117327,297.301349 27.3117327,299.612088 L27.3117327,328.550982 C27.3117327,330.861721 28.2483445,332.953702 29.762641,334.467999 C31.2769375,335.982295 33.3689186,336.918907 35.6796572,336.918907 L64.6185521,336.918907 C65.0302908,336.918907 65.4350677,336.889066 65.830856,336.831535 L84.1734381,336.831535 C86.0097762,336.831535 87.6722683,336.087212 88.8756759,334.883804 C90.0790835,333.680397 90.8234066,332.017905 90.8234066,330.181567 L90.8234066,308.481503 C90.8234066,306.645165 90.0790835,304.982673 88.8756759,303.779266 C87.6722683,302.575858 86.0097762,301.831535 84.1734381,301.831535 L75.205924,301.831535 C74.5930405,301.831535 74.0381787,301.583115 73.6365377,301.181474 C73.2348967,300.779833 72.9864766,300.224971 72.9864766,299.612088 C72.9864766,297.301349 72.0498647,295.209368 70.5355682,293.695071 C69.0212717,292.180775 66.9292906,291.244163 64.6185521,291.244163 Z" id="Path" stroke="#FFFFFF" stroke-width="3" transform="translate(59.067570, 314.081535) rotate(90.000000) translate(-59.067570, -314.081535) "></path>
                    <path d="M66.3079093,53.4887681 L51.8272299,53.4887681 C51.0170386,53.4887681 50.2835481,53.817163 49.7526053,54.3481057 C49.2216626,54.8790485 48.8932677,55.612539 48.8932677,56.4227303 L48.8932677,70.9034097 C48.8932677,71.713601 49.2216626,72.4470916 49.7526053,72.9780343 C50.2835481,73.508977 51.0170386,73.837372 51.8272299,73.837372 L66.3079093,73.837372 C67.1181006,73.837372 67.8515912,73.508977 68.3825339,72.9780343 C68.9134766,72.4470916 69.2418716,71.713601 69.2418716,70.9034097 L69.2418716,56.4227303 C69.2418716,55.612539 68.9134766,54.8790485 68.3825339,54.3481057 C67.8515912,53.817163 67.1181006,53.4887681 66.3079093,53.4887681 Z" id="Rectangle" stroke="#FFFFFF" transform="translate(59.067570, 63.663070) rotate(90.000000) translate(-59.067570, -63.663070) "></path>
                    <rect id="Rectangle" stroke="#39393B" fill="#FFFFFF" transform="translate(58.968385, 300.913070) rotate(90.000000) translate(-58.968385, -300.913070) " x="48.7183854" y="285.976514" width="20.5" height="29.8731124" rx="4"></rect>
                    <rect id="Rectangle" stroke="#39393B" fill="#FFFFFF" transform="translate(58.968385, 305.663070) rotate(90.000000) translate(-58.968385, -305.663070) " x="43.9683854" y="290.726514" width="30" height="29.8731124" rx="4"></rect>
                    <rect id="Rectangle-Copy-41" stroke="#39393B" fill="#FFFFFF" transform="translate(47.031829, 335.163070) rotate(90.000000) translate(-47.031829, -335.163070) " x="44.0318292" y="332.16307" width="6" height="6" rx="3"></rect>
                    <rect id="Rectangle-Copy-41" stroke="#39393B" fill="#FFFFFF" transform="translate(57.031829, 335.163070) rotate(90.000000) translate(-57.031829, -335.163070) " x="54.0318292" y="332.16307" width="6" height="6" rx="3"></rect>
                    <rect id="Rectangle" stroke="#FFFFFF" stroke-width="3" transform="translate(58.968385, 560.663070) rotate(90.000000) translate(-58.968385, -560.663070) " x="31.4683854" y="533.16307" width="55" height="55" rx="26"></rect>
                    <use id="Rectangle-Copy-44" stroke="#FFFFFF" mask="url(#mask-2)" stroke-width="2" stroke-dasharray="4.199999809265137" transform="translate(58.968385, 560.663070) rotate(90.000000) translate(-58.968385, -560.663070) " xlink:href="#path-1"></use>
                    <rect id="Rectangle" stroke="#39393B" fill="#FFFFFF" transform="translate(59.067570, 560.663070) rotate(90.000000) translate(-59.067570, -560.663070) " x="54.0675696" y="555.66307" width="10" height="10" rx="5"></rect>
                    <path id="Path-3" d="M383,276.068012 C395.848905,276.068012 406.289328,286.379946 406.496852,299.179396 L406.5,299.568012 L406.500707,343.285671 C408.750342,343.534715 410.5,345.442094 410.5,347.758128 C410.5,350.24341 408.485281,352.258128 406,352.258128 C403.514719,352.258128 401.5,350.24341 401.5,347.758128 C401.5,345.44175 403.250179,343.534147 405.500297,343.28556 L405.5,299.568012 C405.5,287.265869 395.626871,277.269719 383.372079,277.071026 L383,277.068012 L-68,277.068012 C-80.3021428,277.068012 -90.2982929,286.94114 -90.4969856,299.195933 L-90.5,299.568012 L-90.500297,343.28556 C-88.2501788,343.534147 -86.5,345.44175 -86.5,347.758128 C-86.5,350.24341 -88.5147186,352.258128 -91,352.258128 C-93.4852814,352.258128 -95.5,350.24341 -95.5,347.758128 C-95.5,345.442094 -93.7503421,343.534715 -91.5007074,343.285671 L-91.5,299.568012 C-91.5,286.719107 -81.1880657,276.278683 -68.3886155,276.07116 L-68,276.068012 L383,276.068012 Z" fill="#7C7EBB" fill-rule="nonzero"></path>
                    <path id="Line-6-Copy" d="M866.643659,179.806729 C869.128941,179.806729 871.143659,181.821448 871.143659,184.306729 C871.143659,186.622895 869.393803,188.53036 867.143983,188.779229 L867.143983,435.603819 C869.393803,435.852689 871.143659,437.760153 871.143659,440.076319 C871.143659,442.5616 869.128941,444.576319 866.643659,444.576319 C864.158378,444.576319 862.143659,442.5616 862.143659,440.076319 C862.143659,437.760153 863.893516,435.852689 866.143335,435.603819 L866.143335,188.779229 C863.893516,188.53036 862.143659,186.622895 862.143659,184.306729 C862.143659,181.821448 864.158378,179.806729 866.643659,179.806729 Z" fill="#7C7EBB" fill-rule="nonzero"></path>
                    <path id="Path-3-Copy" d="M999.825469,276.068012 C1012.67437,276.068012 1023.1148,286.379946 1023.32232,299.179396 L1023.32547,299.568012 L1023.32579,343.285629 C1025.57561,343.534498 1027.32547,345.441963 1027.32547,347.758128 C1027.32547,350.24341 1025.31075,352.258128 1022.82547,352.258128 C1020.34019,352.258128 1018.32547,350.24341 1018.32547,347.758128 C1018.32547,345.441963 1020.07533,343.534498 1022.32514,343.285629 L1022.32547,299.568012 C1022.32547,287.265869 1012.45234,277.269719 1000.19755,277.071026 L999.825469,277.068012 L548.825469,277.068012 C536.523326,277.068012 526.527176,286.94114 526.328483,299.195933 L526.325469,299.568012 L526.325793,343.285629 C528.575612,343.534498 530.325469,345.441963 530.325469,347.758128 C530.325469,350.24341 528.31075,352.258128 525.825469,352.258128 C523.340187,352.258128 521.325469,350.24341 521.325469,347.758128 C521.325469,345.441963 523.075325,343.534498 525.325145,343.285629 L525.325469,299.568012 C525.325469,286.719107 535.637403,276.278683 548.436853,276.07116 L548.825469,276.068012 L999.825469,276.068012 Z" fill="#7C7EBB" fill-rule="nonzero"></path>
                    <path d="M1093.5,344.337372 C1075.55075,344.337372 1061,329.786626 1061,311.837372 C1061,293.888118 1075.55075,279.337372 1093.5,279.337372 C1096.95025,279.337372 1100.27492,279.875013 1103.39481,280.871086 C1109.95069,262.491958 1127.51056,249.337372 1148.14286,249.337372 C1174.37638,249.337372 1195.64286,270.603846 1195.64286,296.837372 C1195.64286,298.280386 1195.57851,299.708372 1195.45253,301.118616 C1196.72211,300.88667 1198.03251,300.765943 1199.3711,300.765943 C1211.40302,300.765943 1221.15682,310.51974 1221.15682,322.551658 C1221.15682,334.583575 1211.40302,344.337372 1199.3711,344.337372 L1199.3711,344.337372 Z" id="Combined-Shape-Copy" stroke="#FFFFFF" stroke-width="3"></path>
                    <path d="M1095.62841,422.05 L1095.62841,407.8 L1104.32841,422.05 L1106.82841,422.05 L1106.82841,404.325 L1104.67841,404.325 L1104.67841,418.625 L1095.97841,404.325 L1093.47841,404.325 L1093.47841,422.05 L1095.62841,422.05 Z M1116.42841,422.375 C1117.02841,422.375 1117.60341,422.291667 1118.15341,422.125 C1118.70341,421.958333 1119.20341,421.725 1119.65341,421.425 C1120.17007,421.075 1120.60341,420.625 1120.95341,420.075 C1121.30341,419.525 1121.52007,418.933333 1121.60341,418.3 L1119.52841,418.3 C1119.44507,418.633333 1119.34507,418.9 1119.22841,419.1 C1119.11174,419.3 1118.96174,419.491667 1118.77841,419.675 C1118.51174,419.958333 1118.17841,420.166667 1117.77841,420.3 C1117.37841,420.433333 1116.92841,420.5 1116.42841,420.5 C1115.47841,420.5 1114.70341,420.2 1114.10341,419.6 C1113.72007,419.216667 1113.42007,418.7375 1113.20341,418.1625 C1112.98674,417.5875 1112.87841,417.008333 1112.87841,416.425 L1121.82841,416.425 L1121.85341,415.15 C1121.87007,414.3 1121.73674,413.4875 1121.45341,412.7125 C1121.17007,411.9375 1120.77007,411.266667 1120.25341,410.7 C1119.78674,410.2 1119.23257,409.804167 1118.59091,409.5125 C1117.94924,409.220833 1117.22007,409.075 1116.40341,409.075 C1115.30341,409.075 1114.34507,409.325 1113.52841,409.825 C1112.71174,410.325 1112.07841,410.958333 1111.62841,411.725 C1111.27841,412.308333 1111.02841,412.9375 1110.87841,413.6125 C1110.72841,414.2875 1110.65341,415.008333 1110.65341,415.775 C1110.65341,416.675 1110.78257,417.529167 1111.04091,418.3375 C1111.29924,419.145833 1111.69507,419.858333 1112.22841,420.475 C1112.71174,421.058333 1113.30757,421.520833 1114.01591,421.8625 C1114.72424,422.204167 1115.52841,422.375 1116.42841,422.375 Z M1119.67841,414.6 L1112.92841,414.6 C1112.94507,414.133333 1113.02841,413.679167 1113.17841,413.2375 C1113.32841,412.795833 1113.54507,412.4 1113.82841,412.05 C1114.11174,411.7 1114.47007,411.416667 1114.90341,411.2 C1115.33674,410.983333 1115.83674,410.875 1116.40341,410.875 C1116.97007,410.875 1117.46174,410.979167 1117.87841,411.1875 C1118.29507,411.395833 1118.63674,411.675 1118.90341,412.025 C1119.15341,412.358333 1119.34507,412.75 1119.47841,413.2 C1119.61174,413.65 1119.67841,414.116667 1119.67841,414.6 Z M1129.45341,422.225 C1130.03674,422.225 1130.53257,422.1875 1130.94091,422.1125 C1131.34924,422.0375 1131.69507,421.958333 1131.97841,421.875 L1131.97841,420.05 L1131.22841,420.15 C1131.01174,420.183333 1130.77841,420.2125 1130.52841,420.2375 C1130.27841,420.2625 1130.03674,420.275 1129.80341,420.275 C1129.22007,420.275 1128.79091,420.141667 1128.51591,419.875 C1128.24091,419.608333 1128.10341,419.166667 1128.10341,418.55 L1128.10341,411.225 L1131.85341,411.225 L1131.85341,409.4 L1128.10341,409.4 L1128.10341,405.675 L1125.97841,406.175 L1125.97841,409.4 L1123.52841,409.4 L1123.52841,411.225 L1125.97841,411.225 L1125.97841,418.8 C1125.97841,419.216667 1126.03257,419.633333 1126.14091,420.05 C1126.24924,420.466667 1126.43257,420.833333 1126.69091,421.15 C1126.94924,421.466667 1127.30341,421.725 1127.75341,421.925 C1128.20341,422.125 1128.77007,422.225 1129.45341,422.225 Z M1138.95341,422.05 L1142.32841,412.375 L1145.62841,422.05 L1147.67841,422.05 L1150.95341,409.4 L1148.87841,409.4 L1146.42841,418.95 L1143.25341,409.55 L1141.42841,409.55 L1138.20341,418.95 L1135.77841,409.4 L1133.67841,409.4 L1136.92841,422.05 L1138.95341,422.05 Z M1158.87841,422.375 C1159.67841,422.375 1160.39924,422.241667 1161.04091,421.975 C1161.68257,421.708333 1162.23674,421.35 1162.70341,420.9 C1163.40341,420.216667 1163.87841,419.433333 1164.12841,418.55 C1164.37841,417.666667 1164.50341,416.725 1164.50341,415.725 C1164.50341,414.725 1164.37841,413.783333 1164.12841,412.9 C1163.87841,412.016667 1163.40341,411.233333 1162.70341,410.55 C1162.23674,410.1 1161.68257,409.741667 1161.04091,409.475 C1160.39924,409.208333 1159.67841,409.075 1158.87841,409.075 C1158.07841,409.075 1157.35757,409.208333 1156.71591,409.475 C1156.07424,409.741667 1155.52007,410.1 1155.05341,410.55 C1154.35341,411.233333 1153.87841,412.016667 1153.62841,412.9 C1153.37841,413.783333 1153.25341,414.725 1153.25341,415.725 C1153.25341,416.725 1153.37841,417.666667 1153.62841,418.55 C1153.87841,419.433333 1154.35341,420.216667 1155.05341,420.9 C1155.52007,421.35 1156.07424,421.708333 1156.71591,421.975 C1157.35757,422.241667 1158.07841,422.375 1158.87841,422.375 Z M1158.87841,420.55 C1158.37841,420.55 1157.94091,420.466667 1157.56591,420.3 C1157.19091,420.133333 1156.87007,419.916667 1156.60341,419.65 C1156.15341,419.183333 1155.84507,418.6 1155.67841,417.9 C1155.51174,417.2 1155.42841,416.475 1155.42841,415.725 C1155.42841,414.975 1155.51174,414.25 1155.67841,413.55 C1155.84507,412.85 1156.15341,412.266667 1156.60341,411.8 C1156.87007,411.533333 1157.19091,411.316667 1157.56591,411.15 C1157.94091,410.983333 1158.37841,410.9 1158.87841,410.9 C1159.37841,410.9 1159.81591,410.983333 1160.19091,411.15 C1160.56591,411.316667 1160.88674,411.533333 1161.15341,411.8 C1161.60341,412.266667 1161.91174,412.85 1162.07841,413.55 C1162.24507,414.25 1162.32841,414.975 1162.32841,415.725 C1162.32841,416.475 1162.24507,417.2 1162.07841,417.9 C1161.91174,418.6 1161.60341,419.183333 1161.15341,419.65 C1160.88674,419.916667 1160.56591,420.133333 1160.19091,420.3 C1159.81591,420.466667 1159.37841,420.55 1158.87841,420.55 Z M1170.27841,422.05 L1170.27841,416.425 C1170.27841,416.091667 1170.29091,415.7375 1170.31591,415.3625 C1170.34091,414.9875 1170.39091,414.620833 1170.46591,414.2625 C1170.54091,413.904167 1170.65757,413.5625 1170.81591,413.2375 C1170.97424,412.9125 1171.17841,412.625 1171.42841,412.375 C1171.71174,412.091667 1172.05757,411.854167 1172.46591,411.6625 C1172.87424,411.470833 1173.32841,411.375 1173.82841,411.375 C1174.01174,411.375 1174.20757,411.383333 1174.41591,411.4 C1174.62424,411.416667 1174.82007,411.441667 1175.00341,411.475 L1175.00341,409.4 C1174.68674,409.35 1174.35341,409.325 1174.00341,409.325 C1173.20341,409.325 1172.45757,409.5125 1171.76591,409.8875 C1171.07424,410.2625 1170.56174,410.841667 1170.22841,411.625 L1170.05341,409.4 L1168.17841,409.4 L1168.17841,422.05 L1170.27841,422.05 Z M1179.90341,422.05 L1179.90341,418.65 L1182.32841,415.95 L1186.27841,422.05 L1188.67841,422.05 L1183.70341,414.4 L1188.20341,409.4 L1185.62841,409.4 L1179.90341,415.775 L1179.90341,404 L1177.77841,404 L1177.77841,422.05 L1179.90341,422.05 Z M1109.22841,450.375 C1110.17841,450.375 1111.09924,450.229167 1111.99091,449.9375 C1112.88257,449.645833 1113.63674,449.2 1114.25341,448.6 C1114.68674,448.166667 1115.04507,447.675 1115.32841,447.125 C1115.61174,446.575 1115.75341,445.925 1115.75341,445.175 C1115.75341,443.758333 1115.30341,442.620833 1114.40341,441.7625 C1113.50341,440.904167 1112.31174,440.366667 1110.82841,440.15 C1110.34507,440.066667 1109.85757,439.9875 1109.36591,439.9125 C1108.87424,439.8375 1108.37841,439.766667 1107.87841,439.7 C1107.54507,439.65 1107.22007,439.566667 1106.90341,439.45 C1106.58674,439.333333 1106.30341,439.175 1106.05341,438.975 C1105.80341,438.775 1105.60341,438.529167 1105.45341,438.2375 C1105.30341,437.945833 1105.22841,437.6 1105.22841,437.2 C1105.22841,436.8 1105.29091,436.445833 1105.41591,436.1375 C1105.54091,435.829167 1105.72007,435.541667 1105.95341,435.275 C1106.33674,434.841667 1106.79924,434.529167 1107.34091,434.3375 C1107.88257,434.145833 1108.47007,434.05 1109.10341,434.05 C1109.80341,434.05 1110.41591,434.158333 1110.94091,434.375 C1111.46591,434.591667 1111.89507,434.891667 1112.22841,435.275 C1112.47841,435.558333 1112.67841,435.891667 1112.82841,436.275 C1112.97841,436.658333 1113.07007,437.066667 1113.10341,437.5 L1115.42841,437.5 C1115.37841,436 1114.81174,434.733333 1113.72841,433.7 C1113.14507,433.133333 1112.44924,432.708333 1111.64091,432.425 C1110.83257,432.141667 1109.99507,432 1109.12841,432 C1107.27841,432 1105.72841,432.583333 1104.47841,433.75 C1103.99507,434.2 1103.61591,434.729167 1103.34091,435.3375 C1103.06591,435.945833 1102.92841,436.583333 1102.92841,437.25 C1102.92841,437.95 1103.04924,438.570833 1103.29091,439.1125 C1103.53257,439.654167 1103.86591,440.120833 1104.29091,440.5125 C1104.71591,440.904167 1105.21591,441.216667 1105.79091,441.45 C1106.36591,441.683333 1106.98674,441.85 1107.65341,441.95 C1108.13674,442.033333 1108.60341,442.104167 1109.05341,442.1625 C1109.50341,442.220833 1109.97007,442.291667 1110.45341,442.375 C1111.50341,442.541667 1112.26174,442.883333 1112.72841,443.4 C1113.19507,443.916667 1113.42841,444.525 1113.42841,445.225 C1113.42841,445.708333 1113.34924,446.1125 1113.19091,446.4375 C1113.03257,446.7625 1112.81174,447.05 1112.52841,447.3 C1112.12841,447.683333 1111.64924,447.95 1111.09091,448.1 C1110.53257,448.25 1109.91174,448.325 1109.22841,448.325 C1108.59507,448.325 1107.97007,448.2375 1107.35341,448.0625 C1106.73674,447.8875 1106.22841,447.608333 1105.82841,447.225 C1105.46174,446.875 1105.16174,446.454167 1104.92841,445.9625 C1104.69507,445.470833 1104.57841,444.958333 1104.57841,444.425 L1102.25341,444.425 C1102.25341,445.275 1102.42841,446.0625 1102.77841,446.7875 C1103.12841,447.5125 1103.58674,448.141667 1104.15341,448.675 C1105.38674,449.808333 1107.07841,450.375 1109.22841,450.375 Z M1124.10341,450.375 C1124.70341,450.375 1125.27841,450.291667 1125.82841,450.125 C1126.37841,449.958333 1126.87841,449.725 1127.32841,449.425 C1127.84507,449.075 1128.27841,448.625 1128.62841,448.075 C1128.97841,447.525 1129.19507,446.933333 1129.27841,446.3 L1127.20341,446.3 C1127.12007,446.633333 1127.02007,446.9 1126.90341,447.1 C1126.78674,447.3 1126.63674,447.491667 1126.45341,447.675 C1126.18674,447.958333 1125.85341,448.166667 1125.45341,448.3 C1125.05341,448.433333 1124.60341,448.5 1124.10341,448.5 C1123.15341,448.5 1122.37841,448.2 1121.77841,447.6 C1121.39507,447.216667 1121.09507,446.7375 1120.87841,446.1625 C1120.66174,445.5875 1120.55341,445.008333 1120.55341,444.425 L1129.50341,444.425 L1129.52841,443.15 C1129.54507,442.3 1129.41174,441.4875 1129.12841,440.7125 C1128.84507,439.9375 1128.44507,439.266667 1127.92841,438.7 C1127.46174,438.2 1126.90757,437.804167 1126.26591,437.5125 C1125.62424,437.220833 1124.89507,437.075 1124.07841,437.075 C1122.97841,437.075 1122.02007,437.325 1121.20341,437.825 C1120.38674,438.325 1119.75341,438.958333 1119.30341,439.725 C1118.95341,440.308333 1118.70341,440.9375 1118.55341,441.6125 C1118.40341,442.2875 1118.32841,443.008333 1118.32841,443.775 C1118.32841,444.675 1118.45757,445.529167 1118.71591,446.3375 C1118.97424,447.145833 1119.37007,447.858333 1119.90341,448.475 C1120.38674,449.058333 1120.98257,449.520833 1121.69091,449.8625 C1122.39924,450.204167 1123.20341,450.375 1124.10341,450.375 Z M1127.35341,442.6 L1120.60341,442.6 C1120.62007,442.133333 1120.70341,441.679167 1120.85341,441.2375 C1121.00341,440.795833 1121.22007,440.4 1121.50341,440.05 C1121.78674,439.7 1122.14507,439.416667 1122.57841,439.2 C1123.01174,438.983333 1123.51174,438.875 1124.07841,438.875 C1124.64507,438.875 1125.13674,438.979167 1125.55341,439.1875 C1125.97007,439.395833 1126.31174,439.675 1126.57841,440.025 C1126.82841,440.358333 1127.02007,440.75 1127.15341,441.2 C1127.28674,441.65 1127.35341,442.116667 1127.35341,442.6 Z M1135.20341,450.05 L1135.20341,444.425 C1135.20341,444.091667 1135.21591,443.7375 1135.24091,443.3625 C1135.26591,442.9875 1135.31591,442.620833 1135.39091,442.2625 C1135.46591,441.904167 1135.58257,441.5625 1135.74091,441.2375 C1135.89924,440.9125 1136.10341,440.625 1136.35341,440.375 C1136.63674,440.091667 1136.98257,439.854167 1137.39091,439.6625 C1137.79924,439.470833 1138.25341,439.375 1138.75341,439.375 C1138.93674,439.375 1139.13257,439.383333 1139.34091,439.4 C1139.54924,439.416667 1139.74507,439.441667 1139.92841,439.475 L1139.92841,437.4 C1139.61174,437.35 1139.27841,437.325 1138.92841,437.325 C1138.12841,437.325 1137.38257,437.5125 1136.69091,437.8875 C1135.99924,438.2625 1135.48674,438.841667 1135.15341,439.625 L1134.97841,437.4 L1133.10341,437.4 L1133.10341,450.05 L1135.20341,450.05 Z M1147.65341,450.05 L1152.22841,437.4 L1150.07841,437.4 L1146.55341,447.55 L1142.90341,437.4 L1140.67841,437.4 L1145.35341,450.05 L1147.65341,450.05 Z M1159.62841,450.375 C1160.22841,450.375 1160.80341,450.291667 1161.35341,450.125 C1161.90341,449.958333 1162.40341,449.725 1162.85341,449.425 C1163.37007,449.075 1163.80341,448.625 1164.15341,448.075 C1164.50341,447.525 1164.72007,446.933333 1164.80341,446.3 L1162.72841,446.3 C1162.64507,446.633333 1162.54507,446.9 1162.42841,447.1 C1162.31174,447.3 1162.16174,447.491667 1161.97841,447.675 C1161.71174,447.958333 1161.37841,448.166667 1160.97841,448.3 C1160.57841,448.433333 1160.12841,448.5 1159.62841,448.5 C1158.67841,448.5 1157.90341,448.2 1157.30341,447.6 C1156.92007,447.216667 1156.62007,446.7375 1156.40341,446.1625 C1156.18674,445.5875 1156.07841,445.008333 1156.07841,444.425 L1165.02841,444.425 L1165.05341,443.15 C1165.07007,442.3 1164.93674,441.4875 1164.65341,440.7125 C1164.37007,439.9375 1163.97007,439.266667 1163.45341,438.7 C1162.98674,438.2 1162.43257,437.804167 1161.79091,437.5125 C1161.14924,437.220833 1160.42007,437.075 1159.60341,437.075 C1158.50341,437.075 1157.54507,437.325 1156.72841,437.825 C1155.91174,438.325 1155.27841,438.958333 1154.82841,439.725 C1154.47841,440.308333 1154.22841,440.9375 1154.07841,441.6125 C1153.92841,442.2875 1153.85341,443.008333 1153.85341,443.775 C1153.85341,444.675 1153.98257,445.529167 1154.24091,446.3375 C1154.49924,447.145833 1154.89507,447.858333 1155.42841,448.475 C1155.91174,449.058333 1156.50757,449.520833 1157.21591,449.8625 C1157.92424,450.204167 1158.72841,450.375 1159.62841,450.375 Z M1162.87841,442.6 L1156.12841,442.6 C1156.14507,442.133333 1156.22841,441.679167 1156.37841,441.2375 C1156.52841,440.795833 1156.74507,440.4 1157.02841,440.05 C1157.31174,439.7 1157.67007,439.416667 1158.10341,439.2 C1158.53674,438.983333 1159.03674,438.875 1159.60341,438.875 C1160.17007,438.875 1160.66174,438.979167 1161.07841,439.1875 C1161.49507,439.395833 1161.83674,439.675 1162.10341,440.025 C1162.35341,440.358333 1162.54507,440.75 1162.67841,441.2 C1162.81174,441.65 1162.87841,442.116667 1162.87841,442.6 Z M1170.72841,450.05 L1170.72841,444.425 C1170.72841,444.091667 1170.74091,443.7375 1170.76591,443.3625 C1170.79091,442.9875 1170.84091,442.620833 1170.91591,442.2625 C1170.99091,441.904167 1171.10757,441.5625 1171.26591,441.2375 C1171.42424,440.9125 1171.62841,440.625 1171.87841,440.375 C1172.16174,440.091667 1172.50757,439.854167 1172.91591,439.6625 C1173.32424,439.470833 1173.77841,439.375 1174.27841,439.375 C1174.46174,439.375 1174.65757,439.383333 1174.86591,439.4 C1175.07424,439.416667 1175.27007,439.441667 1175.45341,439.475 L1175.45341,437.4 C1175.13674,437.35 1174.80341,437.325 1174.45341,437.325 C1173.65341,437.325 1172.90757,437.5125 1172.21591,437.8875 C1171.52424,438.2625 1171.01174,438.841667 1170.67841,439.625 L1170.50341,437.4 L1168.62841,437.4 L1168.62841,450.05 L1170.72841,450.05 Z" id="NetworkServers" fill="#BE73FF" fill-rule="nonzero"></path>
                    <path d="M248.97628,290.581535 L248.97628,288.506535 L240.45128,288.506535 L240.45128,272.856535 L238.22628,272.856535 L238.22628,290.581535 L248.97628,290.581535 Z M256.30128,290.906535 C257.10128,290.906535 257.822114,290.773202 258.46378,290.506535 C259.105447,290.239868 259.659614,289.881535 260.12628,289.431535 C260.82628,288.748202 261.30128,287.964868 261.55128,287.081535 C261.80128,286.198202 261.92628,285.256535 261.92628,284.256535 C261.92628,283.256535 261.80128,282.314868 261.55128,281.431535 C261.30128,280.548202 260.82628,279.764868 260.12628,279.081535 C259.659614,278.631535 259.105447,278.273202 258.46378,278.006535 C257.822114,277.739868 257.10128,277.606535 256.30128,277.606535 C255.50128,277.606535 254.780447,277.739868 254.13878,278.006535 C253.497114,278.273202 252.942947,278.631535 252.47628,279.081535 C251.77628,279.764868 251.30128,280.548202 251.05128,281.431535 C250.80128,282.314868 250.67628,283.256535 250.67628,284.256535 C250.67628,285.256535 250.80128,286.198202 251.05128,287.081535 C251.30128,287.964868 251.77628,288.748202 252.47628,289.431535 C252.942947,289.881535 253.497114,290.239868 254.13878,290.506535 C254.780447,290.773202 255.50128,290.906535 256.30128,290.906535 Z M256.30128,289.081535 C255.80128,289.081535 255.36378,288.998202 254.98878,288.831535 C254.61378,288.664868 254.292947,288.448202 254.02628,288.181535 C253.57628,287.714868 253.267947,287.131535 253.10128,286.431535 C252.934614,285.731535 252.85128,285.006535 252.85128,284.256535 C252.85128,283.506535 252.934614,282.781535 253.10128,282.081535 C253.267947,281.381535 253.57628,280.798202 254.02628,280.331535 C254.292947,280.064868 254.61378,279.848202 254.98878,279.681535 C255.36378,279.514868 255.80128,279.431535 256.30128,279.431535 C256.80128,279.431535 257.23878,279.514868 257.61378,279.681535 C257.98878,279.848202 258.309614,280.064868 258.57628,280.331535 C259.02628,280.798202 259.334614,281.381535 259.50128,282.081535 C259.667947,282.781535 259.75128,283.506535 259.75128,284.256535 C259.75128,285.006535 259.667947,285.731535 259.50128,286.431535 C259.334614,287.131535 259.02628,287.714868 258.57628,288.181535 C258.309614,288.448202 257.98878,288.664868 257.61378,288.831535 C257.23878,288.998202 256.80128,289.081535 256.30128,289.081535 Z M268.00128,290.581535 L268.00128,283.206535 L272.90128,283.206535 L276.25128,290.581535 L278.70128,290.581535 L275.15128,282.781535 C275.584614,282.648202 275.980447,282.477368 276.33878,282.269035 C276.697114,282.060702 277.009614,281.814868 277.27628,281.531535 C277.709614,281.081535 278.042947,280.581535 278.27628,280.031535 C278.509614,279.481535 278.62628,278.814868 278.62628,278.031535 C278.62628,277.248202 278.50128,276.564868 278.25128,275.981535 C278.00128,275.398202 277.659614,274.881535 277.22628,274.431535 C276.742947,273.931535 276.134614,273.544035 275.40128,273.269035 C274.667947,272.994035 273.77628,272.856535 272.72628,272.856535 L265.77628,272.856535 L265.77628,290.581535 L268.00128,290.581535 Z M272.72628,281.131535 L268.00128,281.131535 L268.00128,274.906535 L272.72628,274.906535 C273.259614,274.906535 273.742947,274.964868 274.17628,275.081535 C274.609614,275.198202 274.98878,275.381535 275.31378,275.631535 C275.63878,275.881535 275.88878,276.202368 276.06378,276.594035 C276.23878,276.985702 276.32628,277.464868 276.32628,278.031535 C276.32628,279.148202 275.98878,279.944035 275.31378,280.419035 C274.63878,280.894035 273.77628,281.131535 272.72628,281.131535 Z M285.40128,290.906535 C286.30128,290.906535 287.11378,290.719035 287.83878,290.344035 C288.56378,289.969035 289.109614,289.464868 289.47628,288.831535 L289.52628,288.831535 C289.52628,289.364868 289.68878,289.819035 290.01378,290.194035 C290.33878,290.569035 290.784614,290.756535 291.35128,290.756535 C291.617947,290.756535 291.859614,290.735702 292.07628,290.694035 C292.292947,290.652368 292.517947,290.573202 292.75128,290.456535 L292.75128,288.881535 C292.684614,288.881535 292.617947,288.889868 292.55128,288.906535 C292.417947,288.939868 292.30128,288.956535 292.20128,288.956535 C291.984614,288.956535 291.81378,288.898202 291.68878,288.781535 C291.56378,288.664868 291.50128,288.439868 291.50128,288.106535 L291.50128,281.981535 C291.50128,281.248202 291.37628,280.598202 291.12628,280.031535 C290.82628,279.331535 290.317947,278.752368 289.60128,278.294035 C288.884614,277.835702 287.909614,277.606535 286.67628,277.606535 C285.892947,277.606535 285.155447,277.719035 284.46378,277.944035 C283.772114,278.169035 283.209614,278.506535 282.77628,278.956535 C282.442947,279.289868 282.180447,279.669035 281.98878,280.094035 C281.797114,280.519035 281.692947,281.023202 281.67628,281.606535 L283.75128,281.606535 C283.75128,281.006535 283.959614,280.498202 284.37628,280.081535 C284.592947,279.864868 284.884614,279.685702 285.25128,279.544035 C285.617947,279.402368 286.092947,279.331535 286.67628,279.331535 C287.192947,279.331535 287.61378,279.389868 287.93878,279.506535 C288.26378,279.623202 288.534614,279.781535 288.75128,279.981535 C289.034614,280.248202 289.21378,280.556535 289.28878,280.906535 C289.36378,281.256535 289.40128,281.589868 289.40128,281.906535 L289.40128,282.831535 L285.55128,283.056535 C284.684614,283.106535 283.96378,283.264868 283.38878,283.531535 C282.81378,283.798202 282.35128,284.119035 282.00128,284.494035 C281.65128,284.869035 281.405447,285.281535 281.26378,285.731535 C281.122114,286.181535 281.05128,286.606535 281.05128,287.006535 C281.05128,287.489868 281.142947,287.964868 281.32628,288.431535 C281.509614,288.898202 281.780447,289.314868 282.13878,289.681535 C282.497114,290.048202 282.95128,290.344035 283.50128,290.569035 C284.05128,290.794035 284.684614,290.906535 285.40128,290.906535 Z M285.72628,289.131535 C284.82628,289.131535 284.184614,288.910702 283.80128,288.469035 C283.417947,288.027368 283.22628,287.523202 283.22628,286.956535 C283.22628,286.556535 283.309614,286.214868 283.47628,285.931535 C283.642947,285.648202 283.859614,285.419035 284.12628,285.244035 C284.392947,285.069035 284.692947,284.935702 285.02628,284.844035 C285.359614,284.752368 285.684614,284.698202 286.00128,284.681535 L289.40128,284.481535 L289.40128,285.231535 C289.40128,285.764868 289.317947,286.281535 289.15128,286.781535 C288.984614,287.281535 288.709614,287.723202 288.32628,288.106535 C287.992947,288.456535 287.597114,288.714868 287.13878,288.881535 C286.680447,289.048202 286.209614,289.131535 285.72628,289.131535 Z M304.27628,290.581535 L304.27628,283.206535 L309.17628,283.206535 L312.52628,290.581535 L314.97628,290.581535 L311.42628,282.781535 C311.859614,282.648202 312.255447,282.477368 312.61378,282.269035 C312.972114,282.060702 313.284614,281.814868 313.55128,281.531535 C313.984614,281.081535 314.317947,280.581535 314.55128,280.031535 C314.784614,279.481535 314.90128,278.814868 314.90128,278.031535 C314.90128,277.248202 314.77628,276.564868 314.52628,275.981535 C314.27628,275.398202 313.934614,274.881535 313.50128,274.431535 C313.017947,273.931535 312.409614,273.544035 311.67628,273.269035 C310.942947,272.994035 310.05128,272.856535 309.00128,272.856535 L302.05128,272.856535 L302.05128,290.581535 L304.27628,290.581535 Z M309.00128,281.131535 L304.27628,281.131535 L304.27628,274.906535 L309.00128,274.906535 C309.534614,274.906535 310.017947,274.964868 310.45128,275.081535 C310.884614,275.198202 311.26378,275.381535 311.58878,275.631535 C311.91378,275.881535 312.16378,276.202368 312.33878,276.594035 C312.51378,276.985702 312.60128,277.464868 312.60128,278.031535 C312.60128,279.148202 312.26378,279.944035 311.58878,280.419035 C310.91378,280.894035 310.05128,281.131535 309.00128,281.131535 Z M320.82628,290.581535 L320.82628,282.781535 L329.07628,282.781535 L329.07628,280.681535 L320.82628,280.681535 L320.82628,274.906535 L330.07628,274.906535 L330.07628,272.856535 L318.60128,272.856535 L318.60128,290.581535 L320.82628,290.581535 Z" id="LoRaRF" fill="#FFC769" fill-rule="nonzero"></path>
                    <path id="Line-6" d="M283.124484,146.189934 C285.609765,146.189934 287.624484,148.204653 287.624484,150.689934 C287.624484,153.0061 285.874627,154.913565 283.624808,155.162434 L283.624808,468.910112 C285.874627,469.158982 287.624484,471.066446 287.624484,473.382612 C287.624484,475.867893 285.609765,477.882612 283.124484,477.882612 C280.639202,477.882612 278.624484,475.867893 278.624484,473.382612 C278.624484,471.066446 280.37434,469.158982 282.624159,468.910112 L282.624159,155.162434 C280.37434,154.913565 278.624484,153.0061 278.624484,150.689934 C278.624484,148.204653 280.639202,146.189934 283.124484,146.189934 Z" fill="#7C7EBB" fill-rule="nonzero"></path>
                </g>
                <circle id="Oval" fill="#27284B" cx="1413.0233" cy="306.883236" r="15.9767008"></circle>
            </g>
        </g>
    </g>
</svg>