<?xml version="1.0" encoding="UTF-8"?>
<svg width="87px" height="94px" viewBox="0 0 87 94" version="1.1" xmlns="http://www.w3.org/2000/svg" xmlns:xlink="http://www.w3.org/1999/xlink">
    <!-- Generator: Sketch 54.1 (76490) - https://sketchapp.com -->
    <title>Combined Shape</title>
    <desc>Created with Sketch.</desc>
    <g id="Page-2" stroke="none" stroke-width="1" fill="none" fill-rule="evenodd">
        <g id="Desktop-HD-Copy-4" transform="translate(-1876.000000, -4395.000000)" fill="#BE73FF">
            <path d="M1928.52723,4397.49871 L1953.07849,4411.67339 C1958.84902,4415.00501 1962.40381,4421.16209 1962.40381,4427.82532 L1962.40381,4456.17468 C1962.40381,4462.83791 1958.84902,4468.99499 1953.07849,4472.32661 L1928.52723,4486.50129 C1922.7567,4489.8329 1915.64711,4489.8329 1909.87659,4486.50129 L1885.32532,4472.32661 C1879.55479,4468.99499 1876,4462.83791 1876,4456.17468 L1876,4427.82532 C1876,4421.16209 1879.55479,4415.00501 1885.32532,4411.67339 L1909.87659,4397.49871 C1915.64711,4394.1671 1922.7567,4394.1671 1928.52723,4397.49871 Z M1905.72445,4416.44068 C1899.05182,4416.44068 1893.64258,4421.84991 1893.64258,4428.52254 L1893.64258,4455.47746 C1893.64258,4462.15009 1899.05182,4467.55932 1905.72445,4467.55932 L1932.67936,4467.55932 C1939.35199,4467.55932 1944.76123,4462.15009 1944.76123,4455.47746 L1944.76123,4428.52254 C1944.76123,4421.84991 1939.35199,4416.44068 1932.67936,4416.44068 L1905.72445,4416.44068 Z M1919.20191,4421.21919 C1930.67883,4421.21919 1939.98271,4430.52308 1939.98271,4442 C1939.98271,4453.47692 1930.67883,4462.78081 1919.20191,4462.78081 C1907.72498,4462.78081 1898.4211,4453.47692 1898.4211,4442 C1898.4211,4430.52308 1907.72498,4421.21919 1919.20191,4421.21919 Z" id="Combined-Shape"></path>
        </g>
    </g>
</svg>