<?xml version="1.0" encoding="UTF-8"?>
<svg width="131px" height="42px" viewBox="0 0 131 42" version="1.1" xmlns="http://www.w3.org/2000/svg" xmlns:xlink="http://www.w3.org/1999/xlink">
    <!-- Generator: Sketch 54.1 (76490) - https://sketchapp.com -->
    <title>Group 23</title>
    <desc>Created with Sketch.</desc>
    <g id="Page-1" stroke="none" stroke-width="1" fill="none" fill-rule="evenodd">
        <g id="Group-23">
            <g id="Group-22-Copy" fill="#38A2FF">
                <g id="Group-12-Copy">
                    <path d="M20.9999561,3.63087338e-12 C32.5979621,3.63087338e-12 42,9.40203788 42,21.0000439 C42,32.5979612 32.5979621,42 20.9999561,42 C9.40203876,42 2.82796009e-12,32.5979612 2.82796009e-12,21.0000439 C2.82796009e-12,9.40203788 9.40203876,3.63087338e-12 20.9999561,3.63087338e-12 Z M32.1890243,16.531368 C34.0448563,14.6756229 34.0448563,11.6667208 32.1890243,9.81088785 C30.3332784,7.9551428 27.3243762,7.9551428 25.4685433,9.81088785 C24.7799825,10.4997131 24.3474936,11.3472263 24.1699283,12.2356698 C20.8048366,10.9690736 16.945157,11.7737183 14.3756236,14.3435161 C11.8037978,16.9153419 10.9999475,20.7794325 12.2713061,24.1466409 C11.3771293,24.3222661 10.5234416,24.7561661 9.83064564,25.4488733 C7.97490148,27.3046175 7.97490148,30.3136084 9.83064564,32.1693535 C11.6864794,34.0250976 14.6952938,34.0250976 16.5511267,32.1693535 C17.2478907,31.4725007 17.6829383,30.6130788 17.8565338,29.7133453 C18.8989898,30.1022591 19.9881085,30.2944675 21.0718454,30.2944675 C23.4792508,30.2944675 25.8571926,29.3591856 27.6242876,27.5920914 C30.1846468,25.0319089 30.9935249,21.1907524 29.7464229,17.8341285 C30.641394,17.6587687 31.4957872,17.224692 32.1890243,16.531368 Z M26.582097,10.9244398 C27.8056453,9.70062607 29.796703,9.70062607 31.0202514,10.9244398 C32.2438903,12.1480778 32.2438903,14.1390467 31.0202514,15.3626847 C30.3152841,16.0679165 29.3443668,16.3912033 28.3548357,16.2502451 C28.3075553,16.2435409 28.2615112,16.2452174 28.2161709,16.2505096 C27.9236702,16.2124913 27.6175834,16.2523619 27.330374,16.38547 C26.9213492,16.5748543 26.6293765,16.9134897 26.4880651,17.3065499 C26.3492237,17.6926414 26.3558401,18.1313056 26.5417844,18.5329214 C27.5953548,20.8088944 27.1110867,23.5301478 25.3367593,25.3044743 C23.5622553,27.078626 20.8409149,27.5636883 18.5643243,26.5092358 C18.1572395,26.3207328 17.7120477,26.3161452 17.3220743,26.4608966 C16.935807,26.6042368 16.6036106,26.8940919 16.4168728,27.2975609 C16.2976134,27.5549552 16.2524506,27.8275216 16.271415,28.0917959 C16.2644462,28.1439275 16.2624174,28.1972066 16.271415,28.2519838 C16.437337,29.2503349 16.1095515,30.2732089 15.3949697,30.9883205 C14.1714196,32.2115174 12.1804506,32.2115174 10.9566369,30.9883205 C10.3638715,30.3952906 10.0374083,29.60723 10.0374083,28.7690658 C10.0374083,27.930638 10.3638715,27.1424895 10.9566369,26.549812 C11.6614276,25.8447559 12.6328756,25.5219981 13.6718029,25.6642795 C13.7766837,25.6854502 13.8829757,25.7000924 13.991032,25.7000924 C14.2185234,25.7000924 14.4497202,25.6517541 14.6695373,25.5500488 C15.0687719,25.3651624 15.3562458,25.0379067 15.5012608,24.656755 C15.6505988,24.264048 15.648483,23.8140929 15.4580381,23.4025973 C14.4046444,21.1265356 14.8889124,18.4053709 16.6631528,16.6311323 C18.4376559,14.8566283 21.159173,14.3720957 23.435587,15.4262829 C23.841084,15.6141691 24.284601,15.6195492 24.6736027,15.4764744 C25.061723,15.3335752 25.3955064,15.0429258 25.5830394,14.6379578 C25.7284084,14.3241098 25.763427,13.9877677 25.7054734,13.6608652 C25.53964,12.6620721 25.8673368,11.6391112 26.582097,10.9244398 Z M23.4811039,23.4488189 C24.8388192,22.0911915 24.8388192,19.8899311 23.4811039,18.5322159 C22.1234756,17.1745894 19.9221283,17.1745894 18.5644121,18.5322159 C17.2067856,19.8899311 17.2067856,22.0911915 18.5644121,23.4488189 C19.9221283,24.806622 22.1234756,24.806622 23.4811039,23.4488189 Z" id="Combined-Shape"></path>
                </g>
            </g>
            <path d="M72.042,3.25 L72.042,34 L67.491,34 L67.245,31.294 C65.728,33.59 62.981,34.492 60.644,34.492 C54.822,34.492 50.517,29.531 50.517,23.381 C50.517,17.6 54.658,12.393 60.726,12.393 C62.899,12.393 65.4,13.254 67.04,15.058 L67.04,3.25 L72.042,3.25 Z M67.04,26.866 L67.04,19.404 C65.605,17.559 63.596,16.739 61.669,16.739 C57.528,16.739 55.56,20.265 55.56,23.504 C55.56,26.948 57.856,30.146 61.587,30.146 C63.555,30.146 65.851,29.162 67.04,26.866 Z M95.211,24.693 L79.836,24.693 C80.164,27.85 82.296,30.433 85.74,30.433 C88.487,30.433 90.25,29.367 91.562,27.153 L94.924,29.408 C92.587,32.852 89.84,34.492 85.453,34.492 C78.934,34.492 74.834,29.859 74.834,23.586 C74.834,17.231 79.467,12.393 85.453,12.393 C91.193,12.393 95.416,16.534 95.416,22.192 C95.416,22.971 95.334,23.914 95.211,24.693 Z M90.332,21.126 C90.209,18.379 88.2,16.37 85.576,16.37 C82.542,16.37 80.779,18.42 80.123,21.126 L90.332,21.126 Z M110.549,12.885 L115.961,12.885 L107.474,34 L103.333,34 L95.3380001,12.885 L100.832,12.885 L105.629,27.317 L105.711,27.317 L110.549,12.885 Z M130.684,14.976 L127.896,18.01 C126.871,17.108 125.272,16.37 123.714,16.37 C122.279,16.37 121.213,17.149 121.213,18.42 C121.213,19.855 122.976,20.593 124.862,21.372 C127.568,22.438 131.012,23.873 131.012,27.768 C131.012,32.442 127.158,34.492 123.058,34.492 C119.942,34.492 117.113,33.262 115.063,31.007 L118.097,28.137 C119.614,29.654 121.049,30.515 122.935,30.515 C124.452,30.515 126.092,29.777 126.092,28.096 C126.092,26.62 124.042,25.8 122.156,25.021 C119.655,23.996 116.457,22.561 116.457,18.789 C116.457,14.484 119.983,12.393 123.714,12.393 C126.338,12.393 128.839,13.254 130.684,14.976 Z" id="devs" fill="#FFFFFF" fill-rule="nonzero"></path>
        </g>
    </g>
</svg>