<?xml version="1.0" encoding="UTF-8"?>
<svg width="134px" height="42px" viewBox="0 0 134 42" version="1.1" xmlns="http://www.w3.org/2000/svg" xmlns:xlink="http://www.w3.org/1999/xlink">
    <!-- Generator: Sketch 54.1 (76490) - https://sketchapp.com -->
    <title>Group 22</title>
    <desc>Created with Sketch.</desc>
    <g id="Page-1" stroke="none" stroke-width="1" fill="none" fill-rule="evenodd">
        <g id="Group-22">
            <path d="M72.48,5.76 L72.48,35.76 L68.04,35.76 L67.8,33.12 C66.32,35.36 63.64,36.24 61.36,36.24 C55.68,36.24 51.48,31.4 51.48,25.4 C51.48,19.76 55.52,14.68 61.44,14.68 C63.56,14.68 66,15.52 67.6,17.28 L67.6,5.76 L72.48,5.76 Z M67.6,28.8 L67.6,21.52 C66.2,19.72 64.24,18.92 62.36,18.92 C58.32,18.92 56.4,22.36 56.4,25.52 C56.4,28.88 58.64,32 62.28,32 C64.2,32 66.44,31.04 67.6,28.8 Z M86.64,14.68 C92.8,14.68 97.32,19.44 97.32,25.44 C97.32,31.48 92.8,36.24 86.64,36.24 C80.48,36.24 75.96,31.48 75.96,25.44 C75.96,19.44 80.48,14.68 86.64,14.68 Z M92.4,25.44 C92.4,21.84 90,18.92 86.64,18.92 C83.28,18.92 80.88,21.84 80.88,25.44 C80.88,29.08 83.28,32 86.64,32 C90,32 92.4,29.08 92.4,25.44 Z M114.2,30.48 L116.72,33.92 C114.92,35.48 112.52,36.24 109.76,36.24 C103.76,36.24 99.28,31.88 99.28,25.44 C99.28,19.44 103.76,14.68 109.96,14.68 C112.48,14.68 114.76,15.48 116.6,16.88 L114.2,20.48 C113.04,19.48 111.64,18.92 110.12,18.92 C106.76,18.92 104.2,21.84 104.2,25.44 C104.2,29.28 106.88,32 110.08,32 C111.56,32 113.04,31.48 114.2,30.48 Z M133.12,17.2 L130.4,20.16 C129.4,19.28 127.84,18.56 126.32,18.56 C124.92,18.56 123.88,19.32 123.88,20.56 C123.88,21.96 125.6,22.68 127.44,23.44 C130.08,24.48 133.44,25.88 133.44,29.68 C133.44,34.24 129.68,36.24 125.68,36.24 C122.64,36.24 119.88,35.04 117.88,32.84 L120.84,30.04 C122.32,31.52 123.72,32.36 125.56,32.36 C127.04,32.36 128.64,31.64 128.64,30 C128.64,28.56 126.64,27.76 124.8,27 C122.36,26 119.24,24.6 119.24,20.92 C119.24,16.72 122.68,14.68 126.32,14.68 C128.88,14.68 131.32,15.52 133.12,17.2 Z" id="docs" fill="#FFFFFF" fill-rule="nonzero"></path>
            <g id="Group-12-Copy" fill="#38A2FF">
                <path d="M20.9999561,3.63087338e-12 C32.5979621,3.63087338e-12 42,9.40203788 42,21.0000439 C42,32.5979612 32.5979621,42 20.9999561,42 C9.40203876,42 2.82796009e-12,32.5979612 2.82796009e-12,21.0000439 C2.82796009e-12,9.40203788 9.40203876,3.63087338e-12 20.9999561,3.63087338e-12 Z M32.1890243,16.531368 C34.0448563,14.6756229 34.0448563,11.6667208 32.1890243,9.81088785 C30.3332784,7.9551428 27.3243762,7.9551428 25.4685433,9.81088785 C24.7799825,10.4997131 24.3474936,11.3472263 24.1699283,12.2356698 C20.8048366,10.9690736 16.945157,11.7737183 14.3756236,14.3435161 C11.8037978,16.9153419 10.9999475,20.7794325 12.2713061,24.1466409 C11.3771293,24.3222661 10.5234416,24.7561661 9.83064564,25.4488733 C7.97490148,27.3046175 7.97490148,30.3136084 9.83064564,32.1693535 C11.6864794,34.0250976 14.6952938,34.0250976 16.5511267,32.1693535 C17.2478907,31.4725007 17.6829383,30.6130788 17.8565338,29.7133453 C18.8989898,30.1022591 19.9881085,30.2944675 21.0718454,30.2944675 C23.4792508,30.2944675 25.8571926,29.3591856 27.6242876,27.5920914 C30.1846468,25.0319089 30.9935249,21.1907524 29.7464229,17.8341285 C30.641394,17.6587687 31.4957872,17.224692 32.1890243,16.531368 Z M26.582097,10.9244398 C27.8056453,9.70062607 29.796703,9.70062607 31.0202514,10.9244398 C32.2438903,12.1480778 32.2438903,14.1390467 31.0202514,15.3626847 C30.3152841,16.0679165 29.3443668,16.3912033 28.3548357,16.2502451 C28.3075553,16.2435409 28.2615112,16.2452174 28.2161709,16.2505096 C27.9236702,16.2124913 27.6175834,16.2523619 27.330374,16.38547 C26.9213492,16.5748543 26.6293765,16.9134897 26.4880651,17.3065499 C26.3492237,17.6926414 26.3558401,18.1313056 26.5417844,18.5329214 C27.5953548,20.8088944 27.1110867,23.5301478 25.3367593,25.3044743 C23.5622553,27.078626 20.8409149,27.5636883 18.5643243,26.5092358 C18.1572395,26.3207328 17.7120477,26.3161452 17.3220743,26.4608966 C16.935807,26.6042368 16.6036106,26.8940919 16.4168728,27.2975609 C16.2976134,27.5549552 16.2524506,27.8275216 16.271415,28.0917959 C16.2644462,28.1439275 16.2624174,28.1972066 16.271415,28.2519838 C16.437337,29.2503349 16.1095515,30.2732089 15.3949697,30.9883205 C14.1714196,32.2115174 12.1804506,32.2115174 10.9566369,30.9883205 C10.3638715,30.3952906 10.0374083,29.60723 10.0374083,28.7690658 C10.0374083,27.930638 10.3638715,27.1424895 10.9566369,26.549812 C11.6614276,25.8447559 12.6328756,25.5219981 13.6718029,25.6642795 C13.7766837,25.6854502 13.8829757,25.7000924 13.991032,25.7000924 C14.2185234,25.7000924 14.4497202,25.6517541 14.6695373,25.5500488 C15.0687719,25.3651624 15.3562458,25.0379067 15.5012608,24.656755 C15.6505988,24.264048 15.648483,23.8140929 15.4580381,23.4025973 C14.4046444,21.1265356 14.8889124,18.4053709 16.6631528,16.6311323 C18.4376559,14.8566283 21.159173,14.3720957 23.435587,15.4262829 C23.841084,15.6141691 24.284601,15.6195492 24.6736027,15.4764744 C25.061723,15.3335752 25.3955064,15.0429258 25.5830394,14.6379578 C25.7284084,14.3241098 25.763427,13.9877677 25.7054734,13.6608652 C25.53964,12.6620721 25.8673368,11.6391112 26.582097,10.9244398 Z M23.4811039,23.4488189 C24.8388192,22.0911915 24.8388192,19.8899311 23.4811039,18.5322159 C22.1234756,17.1745894 19.9221283,17.1745894 18.5644121,18.5322159 C17.2067856,19.8899311 17.2067856,22.0911915 18.5644121,23.4488189 C19.9221283,24.806622 22.1234756,24.806622 23.4811039,23.4488189 Z" id="Combined-Shape"></path>
            </g>
        </g>
    </g>
</svg>