<?xml version="1.0" encoding="UTF-8"?>
<svg width="257px" height="131px" viewBox="0 0 257 131" version="1.1" xmlns="http://www.w3.org/2000/svg" xmlns:xlink="http://www.w3.org/1999/xlink">
    <!-- Generator: Sketch 54.1 (76490) - https://sketchapp.com -->
    <title>Combined Shape</title>
    <desc>Created with Sketch.</desc>
    <defs>
        <linearGradient x1="9.95622987%" y1="38.7553489%" x2="92.0769023%" y2="60.5461026%" id="linearGradient-1">
            <stop stop-color="#358AF1" offset="0%"></stop>
            <stop stop-color="#35E3B9" offset="100%"></stop>
        </linearGradient>
    </defs>
    <g id="Page-2" stroke="none" stroke-width="1" fill="none" fill-rule="evenodd">
        <g id="Desktop-HD-Copy-3" transform="translate(-691.000000, -3609.000000)" fill="url(#linearGradient-1)" fill-rule="nonzero">
            <path d="M870.490166,3678.63817 L879.832465,3678.63817 L879.832465,3692.5735 L870.469271,3692.5735 C869.94789,3704.96769 859.73496,3714.85581 847.212535,3714.85581 L847.212535,3700.92048 C852.372144,3700.92048 856.554834,3696.73779 856.554834,3691.57818 L856.554834,3676.03034 C856.554834,3663.17445 866.976584,3652.7527 879.832465,3652.7527 L879.832465,3666.68804 C874.672856,3666.68804 870.490166,3670.87073 870.490166,3676.03034 L870.490166,3678.63817 Z M786.927077,3711.52345 L786.927077,3694.86164 C786.927077,3691.01351 783.807546,3687.89398 779.959411,3687.89398 C776.111275,3687.89398 772.991745,3691.01351 772.991745,3694.86164 L772.991745,3711.52345 L760.268181,3711.52345 L760.268181,3694.86164 C760.268181,3683.98648 769.084245,3675.17041 779.959411,3675.17041 C790.834577,3675.17041 799.650641,3683.98648 799.650641,3694.86164 L799.650641,3711.52345 L786.927077,3711.52345 Z M838.464166,3708.09898 C841.641066,3711.06619 843.577231,3715.2123 843.577231,3720.30877 C843.577231,3731.18394 834.761167,3740 823.886001,3740 C813.010835,3740 804.194771,3731.18394 804.194771,3720.30877 L818.130103,3720.30877 C818.130103,3723.48766 820.707106,3726.06467 823.886001,3726.06467 C827.064895,3726.06467 829.641899,3723.48766 829.641899,3720.30877 C829.641899,3717.12988 827.064895,3714.55287 823.886001,3714.55287 C813.010835,3714.55287 804.194771,3705.73681 804.194771,3694.86164 C804.194771,3683.98648 813.010835,3675.17041 823.886001,3675.17041 C834.761167,3675.17041 843.577231,3683.98648 843.577231,3694.86164 C843.577231,3699.95811 841.641066,3704.60237 838.464166,3708.09898 Z M691,3673.90779 L704.935332,3673.90779 L704.935332,3693.75541 C704.935332,3697.54526 708.007612,3700.61754 711.797461,3700.61754 L711.797461,3714.55287 C700.31134,3714.55287 691,3705.24153 691,3693.75541 L691,3673.90779 Z M901.393219,3678.50277 L901.393219,3711.22051 L887.457887,3711.22051 L887.457887,3678.50277 L901.393219,3678.50277 Z M736.032821,3714.55287 C725.157655,3714.55287 716.341591,3705.73681 716.341591,3694.86164 C716.341591,3683.98648 725.157655,3675.17041 736.032821,3675.17041 C746.907987,3675.17041 755.724051,3683.98648 755.724051,3694.86164 C755.724051,3705.73681 746.907987,3714.55287 736.032821,3714.55287 Z M736.032821,3701.82931 C739.880956,3701.82931 743.000487,3698.70978 743.000487,3694.86164 C743.000487,3691.01351 739.880956,3687.89398 736.032821,3687.89398 C732.184685,3687.89398 729.065155,3691.01351 729.065155,3694.86164 C729.065155,3698.70978 732.184685,3701.82931 736.032821,3701.82931 Z M823.886001,3701.82931 C827.734136,3701.82931 830.853667,3698.70978 830.853667,3694.86164 C830.853667,3691.01351 827.734136,3687.89398 823.886001,3687.89398 C820.037865,3687.89398 816.918335,3691.01351 816.918335,3694.86164 C816.918335,3698.70978 820.037865,3701.82931 823.886001,3701.82931 Z M894.425553,3669.11157 C890.577417,3669.11157 887.457887,3665.99204 887.457887,3662.14391 C887.457887,3658.29577 890.577417,3655.17624 894.425553,3655.17624 C898.273689,3655.17624 901.393219,3658.29577 901.393219,3662.14391 C901.393219,3665.99204 898.273689,3669.11157 894.425553,3669.11157 Z M923.573192,3662.14391 L910.401328,3662.14391 C910.401328,3653.32073 903.24873,3646.16813 894.425553,3646.16813 L894.425553,3632.99627 C910.52335,3632.99627 923.573192,3646.04611 923.573192,3662.14391 Z M947.569459,3662.14391 L934.397595,3662.14391 C934.397595,3640.06796 916.501502,3622.17186 894.425553,3622.17186 L894.425553,3609 C923.776122,3609 947.569459,3632.79334 947.569459,3662.14391 Z" id="Combined-Shape"></path>
        </g>
    </g>
</svg>