<?xml version="1.0" encoding="UTF-8"?>
<svg width="57px" height="57px" viewBox="0 0 57 57" version="1.1" xmlns="http://www.w3.org/2000/svg" xmlns:xlink="http://www.w3.org/1999/xlink">
    <!-- Generator: Sketch 54.1 (76490) - https://sketchapp.com -->
    <title>Artboard</title>
    <desc>Created with Sketch.</desc>
    <g id="Artboard" stroke="none" stroke-width="1" fill="none" fill-rule="evenodd">
        <g id="device" transform="translate(29.000000, 28.500000) rotate(45.000000) translate(-29.000000, -28.500000) translate(17.000000, 1.000000)" fill="#9395BD" fill-rule="nonzero">
            <path d="M8.19631,7.91985 C6.20683,8.03324 4.62849,9.68247 4.62849,11.70034 L4.62849,12.45768 C4.62849,12.66682 4.45895,12.83636 4.24981,12.83636 C2.15847,12.83636 0.4631,14.53172 0.4631,16.62307 L0.4631,50.70346 C0.4631,52.7948 2.15847,54.49017 4.24981,54.49017 L20.154,54.49017 C22.24534,54.49017 23.94071,52.7948 23.94071,50.70346 L23.94071,16.62307 C23.94071,14.53172 22.24534,12.83636 20.154,12.83636 C19.94486,12.83636 19.77533,12.66682 19.77533,12.45768 L19.77533,11.70034 C19.77533,9.69857 18.22207,8.05958 16.25505,7.92286 L16.25505,0.5 L8.19631,0.5 L8.19631,7.91985 Z M10.19631,7.91363 L10.19631,2.5 L14.25505,2.5 L14.25505,7.91363 L10.19631,7.91363 Z M8.7645,35.55662 L15.68687,35.55662 C17.34372,35.55662 18.68687,36.89976 18.68687,38.55662 L18.68687,45.47899 C18.68687,47.13584 17.34372,48.47899 15.68687,48.47899 L8.7645,48.47899 C7.10764,48.47899 5.7645,47.13584 5.7645,45.47899 L5.7645,38.55662 C5.7645,36.89976 7.10764,35.55662 8.7645,35.55662 Z M7.65785,23.08425 C8.70352,23.08425 9.55121,23.93193 9.55121,24.97761 C9.55121,26.02328 8.70352,26.87096 7.65785,26.87096 C6.61218,26.87096 5.7645,26.02328 5.7645,24.97761 C5.7645,23.93193 6.61218,23.08425 7.65785,23.08425 Z" id="Combined-Shape"></path>
        </g>
    </g>
</svg>