<?xml version="1.0" encoding="UTF-8"?>
<svg width="57px" height="57px" viewBox="0 0 57 57" version="1.1" xmlns="http://www.w3.org/2000/svg" xmlns:xlink="http://www.w3.org/1999/xlink">
    <!-- Generator: Sketch 54.1 (76490) - https://sketchapp.com -->
    <title>Artboard</title>
    <desc>Created with Sketch.</desc>
    <g id="Artboard" stroke="none" stroke-width="1" fill="none" fill-rule="evenodd">
        <path d="M44.3833661,24.5150567 L51.0455357,24.5150567 L51.0455357,34.9184107 L44.3712607,34.9184107 C44.0197303,44.6046409 36.0564824,52.3491959 26.2843968,52.3491959 L26.2843968,40.9123961 C29.9638115,40.9123961 32.9465664,37.9296412 32.9465664,34.2502266 L32.9465664,22.4481652 C32.9465664,12.4523804 41.0497509,4.34919588 51.0455357,4.34919588 L51.0455357,15.7859956 C47.366121,15.7859956 44.3833661,18.7687505 44.3833661,22.4481652 L44.3833661,24.5150567 Z M6.04963961,17.8839475 L17.4864394,17.8839475 L17.4864394,34.2502266 C17.4864394,37.9296412 20.4691943,40.9123961 24.1486089,40.9123961 L24.1486089,52.3491959 C14.1528242,52.3491959 6.04963961,44.2460113 6.04963961,34.2502266 L6.04963961,17.8839475 Z" id="Combined-Shape-Copy" fill="#9395BD" fill-rule="nonzero"></path>
    </g>
</svg>