<?xml version="1.0" encoding="UTF-8"?>
<svg width="37px" height="49px" viewBox="0 0 37 49" version="1.1" xmlns="http://www.w3.org/2000/svg" xmlns:xlink="http://www.w3.org/1999/xlink">
    <!-- Generator: Sketch 54.1 (76490) - https://sketchapp.com -->
    <title>Combined-Shape</title>
    <desc>Created with Sketch.</desc>
    <g id="Page-1" stroke="none" stroke-width="1" fill="none" fill-rule="evenodd">
        <g id="nav_blockchain" fill="#9395BD" fill-rule="nonzero">
            <path d="M10.6282359,30.8535475 L10.6282359,31.8310163 L0.8535475,31.8310163 L0.8535475,0.5 L10.6282359,0.5 L10.6282359,15.0557775 C12.9979929,13.8726772 15.6712689,13.207095 18.5,13.207095 C28.2458666,13.207095 36.1464525,21.1076809 36.1464525,30.8535475 C36.1464525,40.5994141 28.2458666,48.5 18.5,48.5 C16.1988516,48.5 13.9511213,48.0568123 11.8573781,47.2056679 L15.5384295,38.1505923 C16.4680459,38.5284981 17.4662313,38.7253115 18.5,38.7253115 C22.8474552,38.7253115 26.3717641,35.2010027 26.3717641,30.8535475 C26.3717641,26.5060923 22.8474552,22.9817834 18.5,22.9817834 C14.1525448,22.9817834 10.6282359,26.5060923 10.6282359,30.8535475 Z" id="Combined-Shape"></path>
        </g>
    </g>
</svg>