<?xml version="1.0" encoding="UTF-8"?>
<svg width="57px" height="57px" viewBox="0 0 57 57" version="1.1" xmlns="http://www.w3.org/2000/svg" xmlns:xlink="http://www.w3.org/1999/xlink">
    <!-- Generator: Sketch 54.1 (76490) - https://sketchapp.com -->
    <title>Artboard</title>
    <desc>Created with Sketch.</desc>
    <g id="Artboard" stroke="none" stroke-width="1" fill="none" fill-rule="evenodd">
        <path d="M16.5,4.5 L40.5,4.5 C47.127417,4.5 52.5,9.872583 52.5,16.5 L52.5,40.5 C52.5,47.127417 47.127417,52.5 40.5,52.5 L16.5,52.5 C9.872583,52.5 4.5,47.127417 4.5,40.5 L4.5,16.5 C4.5,9.872583 9.872583,4.5 16.5,4.5 Z M28.5,48.1421151 C39.3480406,48.1421151 48.1421151,39.3480406 48.1421151,28.5 C48.1421151,17.6519594 39.3480406,8.85788488 28.5,8.85788488 C17.6519594,8.85788488 8.85788488,17.6519594 8.85788488,28.5 C8.85788488,39.3480406 17.6519594,48.1421151 28.5,48.1421151 Z" id="Combined-Shape" fill="#9395BD"></path>
    </g>
</svg>